<svg xmlns="http://www.w3.org/2000/svg" xmlns:xlink="http://www.w3.org/1999/xlink" width="108" height="108" viewBox="0 0 108 108">
  <defs>
    <filter id="Path_904820" x="0" y="0" width="108" height="108" filterUnits="userSpaceOnUse">
      <feOffset dy="3" input="SourceAlpha"/>
      <feGaussianBlur stdDeviation="3" result="blur"/>
      <feFlood flood-opacity="0.161"/>
      <feComposite operator="in" in2="blur"/>
      <feComposite in="SourceGraphic"/>
    </filter>
  </defs>
  <g id="Group_1177336" data-name="Group 1177336" transform="translate(-620 -440)">
    <g id="Group_1173821" data-name="Group 1173821" transform="translate(0 -86)">
      <g id="Group_1173585" data-name="Group 1173585" transform="translate(629 532)">
        <g id="Group_1173428" data-name="Group 1173428" transform="translate(0 0)">
          <g id="Group_1171958" data-name="Group 1171958">
            <g id="Group_1167341" data-name="Group 1167341">
              <g id="Group_1166792" data-name="Group 1166792">
                <g transform="matrix(1, 0, 0, 1, -9, -6)" filter="url(#Path_904820)">
                  <g id="Path_904820-2" data-name="Path 904820" transform="translate(9 6)" fill="#fff4e6">
                    <path d="M 44.99999618530273 88.49999237060547 C 39.12687301635742 88.49999237060547 33.43022155761719 87.35006713867188 28.06829643249512 85.08216857910156 C 22.88852119445801 82.89130401611328 18.23629570007324 79.75457763671875 14.24084663391113 75.75914001464844 C 10.24540901184082 71.76369476318359 7.108683586120605 67.11146545410156 4.917821407318115 61.93169403076172 C 2.649921178817749 56.56976699829102 1.499996185302734 50.87311553955078 1.499996185302734 44.99999237060547 C 1.499996185302734 39.12686920166016 2.649921178817749 33.43021774291992 4.917821407318115 28.06829261779785 C 7.108683586120605 22.88851737976074 10.24540901184082 18.23630523681641 14.24084663391113 14.24085521697998 C 18.23629570007324 10.24540519714355 22.88852119445801 7.108692169189453 28.06829643249512 4.917829990386963 C 33.43022155761719 2.649929761886597 39.12687301635742 1.500004887580872 44.99999618530273 1.500004887580872 C 50.87311935424805 1.500004887580872 56.56977081298828 2.649929761886597 61.93169784545898 4.917829990386963 C 67.11147308349609 7.108692169189453 71.76369476318359 10.24540519714355 75.75914764404297 14.24085521697998 C 79.75458526611328 18.23630523681641 82.89131164550781 22.88851737976074 85.08216857910156 28.06829261779785 C 87.35007476806641 33.43021774291992 88.5 39.12686920166016 88.5 44.99999237060547 C 88.5 50.87311553955078 87.35007476806641 56.56976699829102 85.08216857910156 61.93169403076172 C 82.89131164550781 67.11146545410156 79.75458526611328 71.76369476318359 75.75914764404297 75.75914001464844 C 71.76369476318359 79.75457763671875 67.11147308349609 82.89130401611328 61.93169784545898 85.08216857910156 C 56.56977081298828 87.35006713867188 50.87311935424805 88.49999237060547 44.99999618530273 88.49999237060547 Z" stroke="none"/>
                    <path d="M 44.99999618530273 2.999992370605469 C 39.32870864868164 2.999992370605469 33.82865142822266 4.11004638671875 28.65262603759766 6.299331665039062 C 23.65165710449219 8.414566040039062 19.15968322753906 11.44333648681641 15.301513671875 15.30150604248047 C 11.44333648681641 19.15967559814453 8.414566040039062 23.65164947509766 6.299339294433594 28.65262222290039 C 4.110054016113281 33.82864761352539 2.999992370605469 39.32870483398438 2.999992370605469 44.99999237060547 C 2.999992370605469 50.67127990722656 4.110054016113281 56.17132186889648 6.299339294433594 61.34736633300781 C 8.414566040039062 66.34833526611328 11.44333648681641 70.84029388427734 15.301513671875 74.69846343994141 C 19.15968322753906 78.55663299560547 23.65165710449219 81.58540344238281 28.65262603759766 83.70063781738281 C 33.82865142822266 85.88992309570312 39.32870864868164 86.99997711181641 44.99999618530273 86.99997711181641 C 50.67128372192383 86.99997711181641 56.17134094238281 85.88992309570312 61.34736633300781 83.70063781738281 C 66.34834289550781 81.58540344238281 70.84030914306641 78.55663299560547 74.69847869873047 74.69846343994141 C 78.55665588378906 70.84029388427734 81.58542633056641 66.34833526611328 83.70065307617188 61.34736633300781 C 85.88993835449219 56.17132186889648 87 50.67127990722656 87 44.99999237060547 C 87 39.32870483398438 85.88993835449219 33.82864761352539 83.70065307617188 28.65262222290039 C 81.58542633056641 23.65164947509766 78.55665588378906 19.15967559814453 74.69847869873047 15.30150604248047 C 70.84030914306641 11.44333648681641 66.34834289550781 8.414566040039062 61.34736633300781 6.299331665039062 C 56.17134094238281 4.11004638671875 50.67128372192383 2.999992370605469 44.99999618530273 2.999992370605469 M 44.99999618530273 -7.62939453125e-06 C 69.85281372070312 -7.62939453125e-06 90 20.14717864990234 90 44.99999237060547 C 90 69.85279083251953 69.85281372070312 89.99997711181641 44.99999618530273 89.99997711181641 C 20.14717864990234 89.99997711181641 -7.62939453125e-06 69.85279083251953 -7.62939453125e-06 44.99999237060547 C -7.62939453125e-06 20.14717864990234 20.14717864990234 -7.62939453125e-06 44.99999618530273 -7.62939453125e-06 Z" stroke="none" fill="#ff9d1c"/>
                  </g>
                </g>
              </g>
            </g>
          </g>
        </g>
      </g>
      <g id="gdp_3310633" transform="translate(631.127 534.829)">
        <path id="Path_1036572" data-name="Path 1036572" d="M408,355.71l2.7-8.107V344h3.6v3.6l2.7,8.107Z" transform="translate(-347.864 -291.07)" fill="#ffd873"/>
        <path id="Path_1036573" data-name="Path 1036573" d="M369.007,184.9v.869a.45.45,0,0,0,.769.318l1.251-1.251,2.548,2.548-1.251,1.251a.45.45,0,0,0,.318.769h1.77v3.6h-1.77a.45.45,0,0,0-.318.769l1.251,1.251-2.548,2.548-1.251-1.251a.45.45,0,0,0-.769.318v1.77h-3.6v-1.77a.45.45,0,0,0-.769-.318l-1.251,1.251-2.548-2.548,1.251-1.251a.45.45,0,0,0-.318-.769H360v-3.6h1.769a.45.45,0,0,0,.318-.769l-1.251-1.251,2.548-2.548,1.251,1.251a.45.45,0,0,0,.769-.318V184h3.6v.9" transform="translate(-305.268 -149.085)" fill="#548aff"/>
        <path id="Path_1036574" data-name="Path 1036574" d="M419.6,72h0a3.6,3.6,0,0,1,3.6,3.6v2.7H416V75.6A3.6,3.6,0,0,1,419.6,72Z" transform="translate(-354.963 -49.695)" fill="#ffb401"/>
        <path id="Path_1036575" data-name="Path 1036575" d="M56.427,216.213A16.215,16.215,0,0,1,41.116,232.4c-.3.017-.6.025-.9.025a16.213,16.213,0,1,1,0-32.427q.446,0,.887.025A16.211,16.211,0,0,1,56.427,216.213Z" transform="translate(-7.099 -163.283)" fill="#8be0e8"/>
        <path id="Path_1036576" data-name="Path 1036576" d="M205.511,237.644a16.135,16.135,0,0,1-1.961,7.735l-2.542-5.934-5.4-1.8v-3.6l-3.6-2.7v-1.8l6.286-5.388A16.192,16.192,0,0,1,205.511,237.644Z" transform="translate(-156.184 -184.714)" fill="#02c26a"/>
        <path id="Path_1036577" data-name="Path 1036577" d="M40.207,323.6v3.6l-3.6,1.8v3.6l-4.268,4.268A16.24,16.24,0,0,1,24.218,320H33Z" transform="translate(-7.093 -269.772)" fill="#02c26a"/>
        <path id="Path_1036578" data-name="Path 1036578" d="M58.8,200.025l-3.589,6.28v3.6h-4.5l-6.761-1.932A16.2,16.2,0,0,1,57.917,200Q58.363,200,58.8,200.025Z" transform="translate(-24.803 -163.283)" fill="#02c26a"/>
        <path id="Path_1036579" data-name="Path 1036579" d="M186.049,398.552A16.15,16.15,0,0,1,176,402.784V397.4l3.6-5.4h2.7Z" transform="translate(-141.985 -333.665)" fill="#02c26a"/>
        <rect id="Rectangle_415987" data-name="Rectangle 415987" width="10" height="7" transform="translate(52.873 62.171)" fill="#ffc431"/>
        <path id="Path_1036580" data-name="Path 1036580" d="M336,395.6l10.809-3.6v3.6Z" transform="translate(-283.97 -333.665)" fill="#f78e00"/>
        <rect id="Rectangle_415988" data-name="Rectangle 415988" width="6" height="5" transform="translate(62.873 64.171)" fill="#ffb401"/>
        <path id="Path_1036581" data-name="Path 1036581" d="M438.305,426.7l-2.7-2.7H432v2.7Z" transform="translate(-369.162 -362.062)" fill="#f78e00"/>
        <path id="Path_1036582" data-name="Path 1036582" d="M433.8,51.6h0a1.8,1.8,0,0,1-1.8-1.8v-.9l.9-.9h2.7v1.8A1.8,1.8,0,0,1,433.8,51.6Z" transform="translate(-369.162 -28.397)" fill="#ffceb6"/>
        <path id="Path_1036583" data-name="Path 1036583" d="M435.6,26.7l.528-.528a1.274,1.274,0,0,0,.373-.9h0A1.274,1.274,0,0,0,435.23,24H433.8a1.8,1.8,0,0,0-1.8,1.8v1.8l.9-.9Z" transform="translate(-369.162 -7.099)" fill="#c47220"/>
        <rect id="Rectangle_415989" data-name="Rectangle 415989" width="14" height="9" transform="translate(41.873 17.171)" fill="#02c26a"/>
        <path id="Path_1036584" data-name="Path 1036584" d="M248,24h2.7v.9a1.8,1.8,0,0,1-1.8,1.8H248Z" transform="translate(-205.879 -7.099)" fill="#67eba0"/>
        <path id="Path_1036585" data-name="Path 1036585" d="M248,80h.9a1.8,1.8,0,0,1,1.8,1.8v.9H248Z" transform="translate(-205.879 -56.794)" fill="#67eba0"/>
        <path id="Path_1036586" data-name="Path 1036586" d="M0,0H.9A1.8,1.8,0,0,1,2.7,1.8v.9H0Z" transform="translate(56.533 19.603) rotate(180)" fill="#67eba0"/>
        <path id="Path_1036587" data-name="Path 1036587" d="M0,0H2.7V.9A1.8,1.8,0,0,1,.9,2.7H0Z" transform="translate(56.533 25.908) rotate(180)" fill="#67eba0"/>
        <circle id="Ellipse_11868" data-name="Ellipse 11868" cx="2" cy="2" r="2" transform="translate(47.873 19.171)" fill="#67eba0"/>
        <path id="Path_1036588" data-name="Path 1036588" d="M152.9,28.5l.9.9-1.8,2.7h7.206l-1.8-2.7.9-.9L155.6,24Z" transform="translate(-120.687 -7.099)" fill="#02c26a"/>
        <rect id="Rectangle_415990" data-name="Rectangle 415990" width="3" height="4" transform="translate(33.873 25.171)" fill="#c47220"/>
        <rect id="Rectangle_415991" data-name="Rectangle 415991" width="11" height="8" rx="4" transform="translate(16.873 20.171)" fill="#548aff"/>
        <path id="Path_1036589" data-name="Path 1036589" d="M56.5,123.6l-.9-3.6H52.9l-.9,3.6Z" transform="translate(-31.947 -92.29)" fill="#c5dafa"/>
        <path id="Path_1036590" data-name="Path 1036590" d="M33.114,166.181a17.144,17.144,0,0,0,16.323-11.969l4.006,1.034.45-1.744-4.006-1.034a17.15,17.15,0,0,0-.361-8.249l3.865-1.366-.6-1.7-3.866,1.367a17.131,17.131,0,0,0-2.479-4.171L59.134,127l-1.2-1.343L45.246,137.008a17.225,17.225,0,0,0-3.5-2.713l4.711-9.135-1.6-.826-4.709,9.131a16.973,16.973,0,0,0-4.33-1.3v-4.718h-1.8v4.527q-.447-.023-.9-.024a17.015,17.015,0,0,0-7.032,1.512l-2.075-4.024-1.6.826,2.077,4.028a17.111,17.111,0,0,0,8.631,31.887Zm1.8-1.908v-4.124l3.184-4.776h1.7l3.116,5.452a15.248,15.248,0,0,1-8,3.449Zm9.346-4.72L41.1,154.024a.9.9,0,0,0-.782-.454h-2.7a.9.9,0,0,0-.749.4l-3.6,5.4a.9.9,0,0,0-.151.5v4.5A15.223,15.223,0,0,1,26.762,163l3.386-3.386a.9.9,0,0,0,.264-.637v-3.046l3.105-1.553a.9.9,0,0,0,.5-.806v-3.6a.9.9,0,0,0-.5-.806l-7.206-3.6a.9.9,0,0,0-.4-.1H18.231a15.2,15.2,0,0,1,1.359-3.571l6.071,1.735a.9.9,0,0,0,.247.035h4.5a.9.9,0,0,0,.9-.9V139.4l3.189-5.58a15.2,15.2,0,0,1,6.071,1.88l-5.342,4.579a.9.9,0,0,0-.315.684v1.8a.9.9,0,0,0,.36.721l3.243,2.432v3.153a.9.9,0,0,0,.616.854l5.021,1.674,2.205,5.146a15.4,15.4,0,0,1-2.1,2.812Zm4.165-10.486a15.234,15.234,0,0,1-1.03,5.519l-1.745-4.073a.9.9,0,0,0-.543-.5l-4.789-1.6v-2.954a.9.9,0,0,0-.36-.721l-3.243-2.432v-.937l5.436-4.66a15.3,15.3,0,0,1,6.274,12.352Zm-15.973-15.3-2.824,4.942a.9.9,0,0,0-.119.447v2.7H26.034L20.568,140.3a15.31,15.31,0,0,1,11.886-6.53Zm-14.546,13.5H25.7l6.518,3.259v2.49l-3.105,1.553a.9.9,0,0,0-.5.806v3.23L25.1,162.11a15.3,15.3,0,0,1-7.194-14.845Z" transform="translate(0 -96.136)"/>
        <rect id="Rectangle_415992" data-name="Rectangle 415992" width="1" height="2" transform="translate(54.873 64.171)"/>
        <rect id="Rectangle_415993" data-name="Rectangle 415993" width="2" height="2" transform="translate(57.873 64.171)"/>
        <path id="Path_1036591" data-name="Path 1036591" d="M346.869,348.325l-2.656-7.968V336.9a.9.9,0,0,0-.9-.9h-3.6a.9.9,0,0,0-.9.9v3.457l-.487,1.461-9.688,3.229h0l-.014,0h0a.9.9,0,0,0-.616.854v7.206a.9.9,0,0,0,.9.9h17.114a.9.9,0,0,0,.9-.9v-4.5a.9.9,0,0,0-.047-.285Zm-8.06-3.318h-4.358l4.358-1.452Zm1.8,1.8h2.329l.9.9h-3.23Zm0-6.305v-2.7h1.8v2.7a.9.9,0,0,0,.046.285l1.5,4.487,0,0a.9.9,0,0,0-.637-.264h-2.7v-2.7a.9.9,0,0,0-.322-.688l.276-.828A.9.9,0,0,0,340.61,340.5ZM329.8,346.809h9.007v5.4H329.8Zm15.313,5.4h-4.5v-2.7h4.5Z" transform="translate(-276.871 -283.97)"/>
        <circle id="Ellipse_11869" data-name="Ellipse 11869" cx="2" cy="2" r="2" transform="translate(59.873 40.171)"/>
        <path id="Path_1036592" data-name="Path 1036592" d="M367.313,181.4h-.682l.482-.482a.9.9,0,0,0,0-1.274l-2.548-2.548a.9.9,0,0,0-1.274,0l-.482.482V176.9a.9.9,0,0,0-.9-.9h-3.6a.9.9,0,0,0-.9.9v.682l-.482-.482a.9.9,0,0,0-1.274,0l-2.548,2.548a.9.9,0,0,0,0,1.274l.482.482H352.9a.9.9,0,0,0-.9.9v3.6a.9.9,0,0,0,.9.9h.682l-.482.482a.9.9,0,0,0,0,1.274l2.548,2.548a.9.9,0,0,0,1.274,0l.482-.482v.682a.9.9,0,0,0,.9.9h3.6a.9.9,0,0,0,.9-.9v-.682l.482.482a.9.9,0,0,0,1.274,0l2.548-2.548a.9.9,0,0,0,0-1.274l-.482-.482h.682a.9.9,0,0,0,.9-.9v-3.6a.9.9,0,0,0-.9-.9Zm-.9,3.6h-.869a1.351,1.351,0,0,0-.955,2.306l.614.614-1.274,1.274-.614-.614a1.351,1.351,0,0,0-2.306.955v.869h-1.8v-.869a1.351,1.351,0,0,0-2.306-.955l-.614.614-1.274-1.274.614-.614a1.351,1.351,0,0,0-.955-2.306H353.8v-1.8h.869a1.351,1.351,0,0,0,.955-2.306l-.614-.614,1.274-1.274.614.614a1.351,1.351,0,0,0,2.306-.955V177.8h1.8v.869a1.351,1.351,0,0,0,2.306.955l.614-.614,1.274,1.274-.614.614a1.351,1.351,0,0,0,.955,2.306h.869Z" transform="translate(-298.169 -141.985)"/>
        <path id="Path_1036593" data-name="Path 1036593" d="M240.9,26.809h14.412a.9.9,0,0,0,.9-.9V16.9a.9.9,0,0,0-.9-.9H240.9a.9.9,0,0,0-.9.9v9.007a.9.9,0,0,0,.9.9Zm.9-1.8v-.9a.9.9,0,0,1,.9.9Zm12.61,0h-.9a.9.9,0,0,1,.9-.9Zm0-7.206v.9a.9.9,0,0,1-.9-.9Zm-12.61,0h.9a.9.9,0,0,1-.9.9Zm2.7,0h7.206a2.705,2.705,0,0,0,2.7,2.7v1.8a2.705,2.705,0,0,0-2.7,2.7H244.5a2.705,2.705,0,0,0-2.7-2.7V20.5a2.705,2.705,0,0,0,2.7-2.7Z" transform="translate(-198.779 0)"/>
        <path id="Path_1036594" data-name="Path 1036594" d="M290.7,45.4a2.7,2.7,0,1,0-2.7-2.7A2.7,2.7,0,0,0,290.7,45.4Zm0-3.6a.9.9,0,1,1-.9.9A.9.9,0,0,1,290.7,41.8Z" transform="translate(-241.375 -21.298)"/>
        <path id="Path_1036595" data-name="Path 1036595" d="M144.9,25.908h1.351v2.7a.9.9,0,0,0,.9.9h2.7a.9.9,0,0,0,.9-.9v-2.7h1.351a.9.9,0,0,0,.749-1.4l-1.392-2.088.379-.379a.9.9,0,0,0,.135-1.1l-2.7-4.5a.9.9,0,0,0-1.545,0l-2.7,4.5a.9.9,0,0,0,.135,1.1l.379.379-1.392,2.088a.9.9,0,0,0,.749,1.4Zm4.053,1.8h-.9v-1.8h.9Zm-1.615-6.041-.4-.4,1.568-2.613,1.568,2.613-.4.4a.9.9,0,0,0-.113,1.137l.868,1.3h-3.84l.868-1.3a.9.9,0,0,0-.112-1.137Z" transform="translate(-113.588)"/>
        <path id="Path_1036596" data-name="Path 1036596" d="M18.7,57.007h1.1l-.45,1.8H18.7v1.8h7.206v-1.8H25.26l-.45-1.8h1.1a2.705,2.705,0,0,0,2.7-2.7V50.7a2.705,2.705,0,0,0-2.7-2.7H18.7A2.705,2.705,0,0,0,16,50.7v3.6A2.705,2.705,0,0,0,18.7,57.007Zm4.7,1.8h-2.2l.45-1.8h1.3ZM17.8,50.7a.9.9,0,0,1,.9-.9h7.206a.9.9,0,0,1,.9.9v3.6a.9.9,0,0,1-.9.9H18.7a.9.9,0,0,1-.9-.9Z" transform="translate(0 -28.397)"/>
        <path id="Path_1036597" data-name="Path 1036597" d="M415.082,22.214a2.693,2.693,0,0,0,.124-.809V19.976l.264-.264A2.175,2.175,0,0,0,413.932,16H412.5a2.705,2.705,0,0,0-2.7,2.7v2.7a2.693,2.693,0,0,0,.125.811A4.5,4.5,0,0,0,408,25.908v2.7a.9.9,0,0,0,.9.9h7.206a.9.9,0,0,0,.9-.9v-2.7a4.488,4.488,0,0,0-1.925-3.695ZM412.5,17.8h1.428a.373.373,0,0,1,.264.637l-.264.264H411.6A.9.9,0,0,1,412.5,17.8Zm.9,2.7v.9a.9.9,0,0,1-1.8,0v-.528l.373-.373Zm1.8,7.206h-5.4v-1.8a2.7,2.7,0,0,1,1.21-2.252,2.7,2.7,0,0,0,2.984,0,2.692,2.692,0,0,1,1.21,2.252Z" transform="translate(-347.864 0)"/>
      </g>
    </g>
  </g>
</svg>
