<svg xmlns="http://www.w3.org/2000/svg" xmlns:xlink="http://www.w3.org/1999/xlink" width="113" height="113" viewBox="0 0 113 113">
  <defs>
    <filter id="Path_982547" x="0" y="0" width="113" height="113" filterUnits="userSpaceOnUse">
      <feOffset dy="3" input="SourceAlpha"/>
      <feGaussianBlur stdDeviation="3" result="blur"/>
      <feFlood flood-opacity="0.161"/>
      <feComposite operator="in" in2="blur"/>
      <feComposite in="SourceGraphic"/>
    </filter>
  </defs>
  <g id="Group_1177317" data-name="Group 1177317" transform="translate(-1109.49 -1489.435)">
    <g id="Group_1177181" data-name="Group 1177181">
      <g id="Group_1176923" data-name="Group 1176923" transform="translate(1118.49 1495.435)">
        <g id="Group_1172323" data-name="Group 1172323" transform="translate(0 0)">
          <g id="Group_1166163" data-name="Group 1166163">
            <g id="Group_1164700" data-name="Group 1164700">
              <g id="Group_1160931" data-name="Group 1160931">
                <g id="Group_1160749" data-name="Group 1160749">
                  <g id="Group_1158891" data-name="Group 1158891">
                    <g id="Group_1157406" data-name="Group 1157406">
                      <g id="Group_1155793" data-name="Group 1155793">
                        <g id="Group_1154704" data-name="Group 1154704">
                          <g id="Group_1150790" data-name="Group 1150790">
                            <g id="Group_1154214" data-name="Group 1154214">
                              <g id="Group_1152583" data-name="Group 1152583">
                                <g id="Group_1146973" data-name="Group 1146973">
                                  <g id="Group_1146954" data-name="Group 1146954">
                                    <g transform="matrix(1, 0, 0, 1, -9, -6)" filter="url(#Path_982547)">
                                      <g id="Path_982547-2" data-name="Path 982547" transform="translate(9 6)" fill="#f2f7e5">
                                        <path d="M 47.5000114440918 93.49987030029297 C 41.28938293457031 93.49987030029297 35.26534652709961 92.28384399414062 29.5951976776123 89.88558959960938 C 24.11773109436035 87.56881713867188 19.19814491271973 84.25183868408203 14.97310447692871 80.02680206298828 C 10.74805164337158 75.80176544189453 7.43107795715332 70.88218688964844 5.114304542541504 65.40472412109375 C 2.716038227081299 59.73458862304688 1.500011444091797 53.71054840087891 1.500011444091797 47.49993515014648 C 1.500011444091797 41.28932189941406 2.716038227081299 35.26528167724609 5.114304542541504 29.59514808654785 C 7.43107795715332 24.1176815032959 10.74805164337158 19.1981086730957 14.97310447692871 14.97306823730469 C 19.19814491271973 10.74802875518799 24.11773109436035 7.431055068969727 29.5951976776123 5.11428165435791 C 35.26534652709961 2.716028451919556 41.28938293457031 1.500001788139343 47.5000114440918 1.500001788139343 C 53.71063995361328 1.500001788139343 59.73467636108398 2.716028451919556 65.40482330322266 5.11428165435791 C 70.88229370117188 7.431055068969727 75.8018798828125 10.74802875518799 80.02691650390625 14.97306823730469 C 84.25196838378906 19.1981086730957 87.56894683837891 24.1176815032959 89.88571929931641 29.59514808654785 C 92.28398132324219 35.26528167724609 93.50001525878906 41.28932189941406 93.50001525878906 47.49993515014648 C 93.50001525878906 53.71054840087891 92.28398132324219 59.73458862304688 89.88571929931641 65.40472412109375 C 87.56894683837891 70.88218688964844 84.25196838378906 75.80176544189453 80.02691650390625 80.02680206298828 C 75.8018798828125 84.25183868408203 70.88229370117188 87.56881713867188 65.40482330322266 89.88558959960938 C 59.73467636108398 92.28384399414062 53.71063995361328 93.49987030029297 47.5000114440918 93.49987030029297 Z" stroke="none"/>
                                        <path d="M 47.5000114440918 3 C 41.49122619628906 3 35.66378021240234 4.1761474609375 30.17951965332031 6.495796203613281 C 24.880859375 8.7369384765625 20.12153625488281 11.94596862792969 16.03376770019531 16.03373718261719 C 11.94598388671875 20.12149047851562 8.736968994140625 24.88081359863281 6.495811462402344 30.17947387695312 C 4.176162719726562 35.66371917724609 3.000007629394531 41.49116516113281 3.000007629394531 47.49993515014648 C 3.000007629394531 53.50870513916016 4.176162719726562 59.33615112304688 6.495811462402344 64.82039642333984 C 8.736968994140625 70.11905670166016 11.94598388671875 74.87837982177734 16.03376770019531 78.96613311767578 C 20.12153625488281 83.05390167236328 24.880859375 86.26293182373047 30.17951965332031 88.50407409667969 C 35.66378021240234 90.82372283935547 41.49122619628906 91.99987030029297 47.5000114440918 91.99987030029297 C 53.50879669189453 91.99987030029297 59.33624267578125 90.82372283935547 64.82050323486328 88.50407409667969 C 70.11916351318359 86.26293182373047 74.87848663330078 83.05390167236328 78.96625518798828 78.96613311767578 C 83.05403900146484 74.87837982177734 86.2630615234375 70.11905670166016 88.50421142578125 64.82039642333984 C 90.82386016845703 59.33615112304688 92.00001525878906 53.50870513916016 92.00001525878906 47.49993515014648 C 92.00001525878906 41.49116516113281 90.82386016845703 35.66371917724609 88.50421142578125 30.17947387695312 C 86.2630615234375 24.88081359863281 83.05403900146484 20.12149047851562 78.96625518798828 16.03373718261719 C 74.87848663330078 11.94596862792969 70.11916351318359 8.7369384765625 64.82050323486328 6.495796203613281 C 59.33624267578125 4.1761474609375 53.50879669189453 3 47.5000114440918 3 M 47.5000114440918 0 C 73.73353576660156 0 95.00001525878906 21.26644134521484 95.00001525878906 47.49993515014648 C 95.00001525878906 73.73342895507812 73.73353576660156 94.99987030029297 47.5000114440918 94.99987030029297 C 21.26648712158203 94.99987030029297 7.62939453125e-06 73.73342895507812 7.62939453125e-06 47.49993515014648 C 7.62939453125e-06 21.26644134521484 21.26648712158203 0 47.5000114440918 0 Z" stroke="none" fill="#86b60c"/>
                                      </g>
                                    </g>
                                  </g>
                                </g>
                              </g>
                            </g>
                          </g>
                        </g>
                      </g>
                    </g>
                  </g>
                </g>
              </g>
            </g>
          </g>
        </g>
      </g>
      <g id="new-features_10435158" transform="translate(1108.746 1508.41)">
        <g id="Group_1177179" data-name="Group 1177179" transform="translate(31.87 7.774)">
          <path id="Path_1036409" data-name="Path 1036409" d="M80.366,355.219h0a3.914,3.914,0,0,0-5.437-1.036L66.9,359.637l-1.372,1.348-2.007.951h0a2.8,2.8,0,0,0,1.16-1.8h0a2.812,2.812,0,0,0-2.227-3.268L46.9,353.835a8.681,8.681,0,0,0-6.871,1.576L32,361.435a.326.326,0,0,0-.13.261v7.686a.544.544,0,0,0,.544.544h5.532a.327.327,0,0,0,.183-.056l2.034-1.382a7.242,7.242,0,0,1,4.618-1.232l16.888,1.277a4.321,4.321,0,0,0,2.783-.733L79.98,357.244A1.458,1.458,0,0,0,80.366,355.219Z" transform="translate(-31.87 -316.151)" fill="#e0925c"/>
          <path id="Path_1036410" data-name="Path 1036410" d="M213.547,409.89a4.9,4.9,0,0,1-.082.893,4.967,4.967,0,0,1-4.889,4.086,5.21,5.21,0,0,1-.742-.054l-4.111-.606-6.388-.941a1.087,1.087,0,0,1-.917-1.234h0a1.087,1.087,0,0,1,1.234-.917l10.5,1.546a2.721,2.721,0,0,0,.407.03h.007a2.8,2.8,0,0,0,1.6-.5.02.02,0,0,0,.008-.005Z" transform="translate(-178.513 -366.404)" fill="#c97f47"/>
          <g id="Group_1177174" data-name="Group 1177174" transform="translate(8.483)">
            <g id="Group_1177173" data-name="Group 1177173">
              <path id="Path_1036411" data-name="Path 1036411" d="M114.114,16.948l-2.17,1.175a.218.218,0,0,1-.316-.229l.408-2.335c.006-.035-.1-.122-.115-.155a.217.217,0,0,0-.055-.089l-1.929-1.88a.217.217,0,0,1,.12-.371l2.665-.387a.218.218,0,0,0,.164-.119l1.192-2.415a.218.218,0,0,1,.39,0l1.192,2.415a.218.218,0,0,0,.164.119l.163.024,2.277.415a.217.217,0,0,1,.121.371l-1.895,1.765a.218.218,0,0,0-.063.192l.476,2.48a.217.217,0,0,1-.316.229l-2.271-1.2A.217.217,0,0,0,114.114,16.948Z" transform="translate(-109.872 -10.021)" fill="#ffef57"/>
              <path id="Path_1036412" data-name="Path 1036412" d="M129.781,37.273a.219.219,0,0,0-.062.192l.456,2.655a.218.218,0,0,1-.316.229L127.474,39.1a.215.215,0,0,0-.2,0l-2.384,1.253a.217.217,0,0,1-.315-.229l.456-2.655a.213.213,0,0,0-.009-.108,3.8,3.8,0,0,0,.387.02,3.85,3.85,0,0,0,3.68-2.718l2.5.363a.217.217,0,0,1,.121.371Z" transform="translate(-122.971 -31.98)" fill="#f9db48"/>
            </g>
            <path id="Path_1036413" data-name="Path 1036413" d="M254.732,36.6l-2.135.19H232.539a1.32,1.32,0,0,1-1.32-1.32V31.758a1.32,1.32,0,0,1,1.32-1.32h20.074l2,.224a1.32,1.32,0,0,1,1.32,1.32l.123,3.3A1.32,1.32,0,0,1,254.732,36.6Z" transform="translate(-218.022 -28.218)" fill="#b2e5fb"/>
            <path id="Path_1036414" data-name="Path 1036414" d="M429.01,31.759v3.715a1.321,1.321,0,0,1-1.32,1.32h-2.61a1.321,1.321,0,0,0,1.32-1.32V31.759a1.32,1.32,0,0,0-1.32-1.319h2.61A1.32,1.32,0,0,1,429.01,31.759Z" transform="translate(-390.801 -28.219)" fill="#90d8f9"/>
          </g>
          <g id="Group_1177176" data-name="Group 1177176" transform="translate(8.483 11.74)">
            <g id="Group_1177175" data-name="Group 1177175">
              <path id="Path_1036415" data-name="Path 1036415" d="M114.114,124.9l-2.17,1.174a.218.218,0,0,1-.316-.229l.408-2.335c.006-.035-.1-.122-.115-.155a.218.218,0,0,0-.055-.089l-1.929-1.88a.217.217,0,0,1,.12-.371l2.665-.387a.218.218,0,0,0,.164-.119l1.192-2.415a.218.218,0,0,1,.39,0l1.192,2.415a.218.218,0,0,0,.164.119l.163.024,2.277.415a.217.217,0,0,1,.121.371l-1.895,1.765a.218.218,0,0,0-.063.192l.476,2.48a.217.217,0,0,1-.316.229l-2.271-1.2A.217.217,0,0,0,114.114,124.9Z" transform="translate(-109.872 -117.976)" fill="#ffef57"/>
              <path id="Path_1036416" data-name="Path 1036416" d="M129.781,145.228a.219.219,0,0,0-.062.193l.456,2.655a.218.218,0,0,1-.316.229l-2.384-1.253a.215.215,0,0,0-.2,0l-2.384,1.253a.217.217,0,0,1-.315-.229l.456-2.655a.213.213,0,0,0-.009-.108,3.8,3.8,0,0,0,.387.02,3.85,3.85,0,0,0,3.68-2.718l2.5.363a.217.217,0,0,1,.121.371Z" transform="translate(-122.971 -139.935)" fill="#f9db48"/>
            </g>
            <path id="Path_1036417" data-name="Path 1036417" d="M254.732,144.558l-2.135.19H232.539a1.32,1.32,0,0,1-1.32-1.32v-3.715a1.32,1.32,0,0,1,1.32-1.32h20.074l2,.224a1.32,1.32,0,0,1,1.32,1.32l.123,3.3A1.32,1.32,0,0,1,254.732,144.558Z" transform="translate(-218.022 -136.173)" fill="#b2e5fb"/>
            <path id="Path_1036418" data-name="Path 1036418" d="M429.01,139.714v3.715a1.321,1.321,0,0,1-1.32,1.32h-2.61a1.321,1.321,0,0,0,1.32-1.32v-3.715a1.32,1.32,0,0,0-1.32-1.319h2.61A1.32,1.32,0,0,1,429.01,139.714Z" transform="translate(-390.801 -136.174)" fill="#90d8f9"/>
          </g>
          <g id="Group_1177178" data-name="Group 1177178" transform="translate(8.483 23.48)">
            <g id="Group_1177177" data-name="Group 1177177">
              <path id="Path_1036419" data-name="Path 1036419" d="M114.114,232.858l-2.17,1.174a.218.218,0,0,1-.316-.229l.408-2.335c.006-.035-.1-.122-.115-.155a.218.218,0,0,0-.055-.089l-1.929-1.88a.217.217,0,0,1,.12-.371l2.665-.387a.218.218,0,0,0,.164-.119l1.192-2.415a.218.218,0,0,1,.39,0l1.192,2.415a.217.217,0,0,0,.164.119l.163.024,2.277.415a.217.217,0,0,1,.121.371l-1.895,1.765a.218.218,0,0,0-.063.192l.476,2.48a.217.217,0,0,1-.316.229l-2.271-1.2A.217.217,0,0,0,114.114,232.858Z" transform="translate(-109.872 -225.931)" fill="#ffef57"/>
              <path id="Path_1036420" data-name="Path 1036420" d="M129.781,253.183a.219.219,0,0,0-.062.192l.456,2.655a.218.218,0,0,1-.316.229l-2.384-1.253a.215.215,0,0,0-.2,0l-2.384,1.253a.217.217,0,0,1-.315-.229l.456-2.655a.213.213,0,0,0-.009-.108,3.794,3.794,0,0,0,.387.02,3.85,3.85,0,0,0,3.68-2.718l2.5.363a.217.217,0,0,1,.121.371Z" transform="translate(-122.971 -247.89)" fill="#f9db48"/>
            </g>
            <path id="Path_1036421" data-name="Path 1036421" d="M254.732,252.513l-2.135.19H232.539a1.32,1.32,0,0,1-1.32-1.32v-3.715a1.32,1.32,0,0,1,1.32-1.32h20.074l2,.224a1.32,1.32,0,0,1,1.32,1.32l.123,3.3A1.32,1.32,0,0,1,254.732,252.513Z" transform="translate(-218.022 -244.128)" fill="#b2e5fb"/>
            <path id="Path_1036422" data-name="Path 1036422" d="M429.01,247.669v3.715a1.321,1.321,0,0,1-1.32,1.32h-2.61a1.321,1.321,0,0,0,1.32-1.32v-3.715a1.32,1.32,0,0,0-1.32-1.319h2.61A1.32,1.32,0,0,1,429.01,247.669Z" transform="translate(-390.801 -244.129)" fill="#90d8f9"/>
          </g>
        </g>
        <g id="Group_1177180" data-name="Group 1177180" transform="translate(31.87 7.5)">
          <path id="Path_1036423" data-name="Path 1036423" d="M88.66,454.635l2.117-1.439a7.24,7.24,0,0,1,4.618-1.232l16.888,1.277a4.315,4.315,0,0,0,2.784-.733l5.822-3.957" transform="translate(-82.484 -400.586)" fill="none" stroke="#000" stroke-linecap="round" stroke-linejoin="round" stroke-miterlimit="10" stroke-width="1.5"/>
          <path id="Path_1036424" data-name="Path 1036424" d="M332.838,361.7l6.558-4.458a1.457,1.457,0,0,0,.386-2.025,3.915,3.915,0,0,0-5.438-1.037l-11.4,7.747a.02.02,0,0,1-.008.005" transform="translate(-291.286 -315.877)" fill="none" stroke="#000" stroke-linecap="round" stroke-linejoin="round" stroke-miterlimit="10" stroke-width="1.5"/>
          <path id="Path_1036425" data-name="Path 1036425" d="M197.98,373.463l11.574,1.7a2.8,2.8,0,0,0,2.015-.474l.013-.009a2.811,2.811,0,0,0-1.081-5.058l-9.26-1.806" transform="translate(-179.916 -328.635)" fill="none" stroke="#000" stroke-linecap="round" stroke-linejoin="round" stroke-miterlimit="10" stroke-width="1.5"/>
          <path id="Path_1036426" data-name="Path 1036426" d="M31.87,362.919l8.163-6.123a8.677,8.677,0,0,1,6.871-1.576l2.555.5" transform="translate(-31.87 -317.263)" fill="none" stroke="#000" stroke-linecap="round" stroke-linejoin="round" stroke-miterlimit="10" stroke-width="1.5"/>
          <path id="Path_1036427" data-name="Path 1036427" d="M112.227,14.837l-2.875,1.512.549-3.2-2.326-2.267,3.215-.467L112.227,7.5l1.438,2.913,3.214.467-2.326,2.267.549,3.2Z" transform="translate(-99.342 -7.5)" fill="none" stroke="#000" stroke-linecap="round" stroke-linejoin="round" stroke-miterlimit="10" stroke-width="1.5"/>
          <path id="Path_1036428" data-name="Path 1036428" d="M112.227,124.053l-2.875,1.512.549-3.2-2.326-2.267,3.215-.467,1.438-2.913,1.438,2.913,3.214.467-2.326,2.267.549,3.2Z" transform="translate(-99.342 -104.839)" fill="none" stroke="#000" stroke-linecap="round" stroke-linejoin="round" stroke-miterlimit="10" stroke-width="1.5"/>
          <path id="Path_1036429" data-name="Path 1036429" d="M112.227,233.268l-2.875,1.512.549-3.2-2.326-2.267,3.215-.467,1.438-2.913,1.438,2.913,3.214.467-2.326,2.267.549,3.2Z" transform="translate(-99.342 -202.177)" fill="none" stroke="#000" stroke-linecap="round" stroke-linejoin="round" stroke-miterlimit="10" stroke-width="1.5"/>
          <path id="Path_1036430" data-name="Path 1036430" d="M239.872,36.794h15.04a1.321,1.321,0,0,0,1.32-1.32V31.759a1.32,1.32,0,0,0-1.32-1.319H232.539a1.319,1.319,0,0,0-1.319,1.319v3.715a1.32,1.32,0,0,0,1.319,1.32h3.527" transform="translate(-209.541 -27.945)" fill="none" stroke="#000" stroke-linecap="round" stroke-linejoin="round" stroke-miterlimit="10" stroke-width="1.5"/>
          <path id="Path_1036431" data-name="Path 1036431" d="M254.912,146.007H232.539a1.32,1.32,0,0,1-1.32-1.32v-3.715a1.32,1.32,0,0,1,1.32-1.32h22.373a1.32,1.32,0,0,1,1.32,1.32v3.715A1.32,1.32,0,0,1,254.912,146.007Z" transform="translate(-209.54 -125.281)" fill="none" stroke="#000" stroke-linecap="round" stroke-linejoin="round" stroke-miterlimit="10" stroke-width="1.5"/>
          <path id="Path_1036432" data-name="Path 1036432" d="M249.3,248.87h5.615a1.32,1.32,0,0,1,1.32,1.319V253.9a1.32,1.32,0,0,1-1.32,1.32H232.539a1.319,1.319,0,0,1-1.319-1.32v-3.715a1.319,1.319,0,0,1,1.319-1.319h12.952" transform="translate(-209.541 -222.621)" fill="none" stroke="#000" stroke-linecap="round" stroke-linejoin="round" stroke-miterlimit="10" stroke-width="1.5"/>
        </g>
      </g>
    </g>
  </g>
</svg>
