<svg xmlns="http://www.w3.org/2000/svg" xmlns:xlink="http://www.w3.org/1999/xlink" width="93.934" height="93.934" viewBox="0 0 93.934 93.934">
  <defs>
    <filter id="Path_982547" x="0" y="0" width="93.934" height="93.934" filterUnits="userSpaceOnUse">
      <feOffset dy="3" input="SourceAlpha"/>
      <feGaussianBlur stdDeviation="3" result="blur"/>
      <feFlood flood-opacity="0.161"/>
      <feComposite operator="in" in2="blur"/>
      <feComposite in="SourceGraphic"/>
    </filter>
  </defs>
  <g id="Group_1177299" data-name="Group 1177299" transform="translate(-189.033 -679)">
    <g id="Group_1177296" data-name="Group 1177296">
      <g id="Group_1176910" data-name="Group 1176910" transform="translate(0 -334)">
        <g id="Group_1176309" data-name="Group 1176309" transform="translate(0 -973)">
          <g id="Group_1172970" data-name="Group 1172970" transform="translate(-1 -9042)">
            <g id="Group_1171971" data-name="Group 1171971" transform="translate(199.033 11034)">
              <g id="Group_1167337" data-name="Group 1167337" transform="translate(0)">
                <g id="Group_1166720" data-name="Group 1166720">
                  <g id="Group_1164305" data-name="Group 1164305">
                    <g id="Group_1163948" data-name="Group 1163948">
                      <g id="Group_1158168" data-name="Group 1158168">
                        <g id="Group_1152576" data-name="Group 1152576">
                          <g id="Group_1148633" data-name="Group 1148633">
                            <g id="Group_1148525" data-name="Group 1148525">
                              <g transform="matrix(1, 0, 0, 1, -9, -6)" filter="url(#Path_982547)">
                                <g id="Path_982547-2" data-name="Path 982547" transform="translate(9 6)" fill="#e9f9fd">
                                  <path d="M 37.966796875 74.43359375 C 33.04315185546875 74.43359375 28.26757431030273 73.46962738037109 23.77274131774902 71.56847381591797 C 19.43047523498535 69.73184967041016 15.53040790557861 67.10224914550781 12.18087482452393 63.75271987915039 C 8.831341743469238 60.4031867980957 6.201741218566895 56.50312042236328 4.365118980407715 52.16086196899414 C 2.463963508605957 47.66601943969727 1.499996900558472 42.89044189453125 1.499996900558472 37.966796875 C 1.499996900558472 33.04315185546875 2.463963508605957 28.26757431030273 4.365118980407715 23.77274131774902 C 6.201741218566895 19.43047523498535 8.831341743469238 15.53040790557861 12.18087482452393 12.18087482452393 C 15.53040790557861 8.831341743469238 19.43047523498535 6.201741218566895 23.77274131774902 4.365118980407715 C 28.26757431030273 2.463963508605957 33.04315185546875 1.499996900558472 37.966796875 1.499996900558472 C 42.89044189453125 1.499996900558472 47.66601943969727 2.463963508605957 52.16086196899414 4.365118980407715 C 56.50312042236328 6.201741218566895 60.4031867980957 8.831341743469238 63.75271987915039 12.18087482452393 C 67.10224914550781 15.53040790557861 69.73184967041016 19.43047523498535 71.56847381591797 23.77274131774902 C 73.46962738037109 28.26757431030273 74.43359375 33.04315185546875 74.43359375 37.966796875 C 74.43359375 42.89044189453125 73.46962738037109 47.66601943969727 71.56847381591797 52.16086196899414 C 69.73184967041016 56.50313186645508 67.10224914550781 60.4031867980957 63.75271987915039 63.75271987915039 C 60.4031867980957 67.10224914550781 56.50313186645508 69.73184967041016 52.16086196899414 71.56847381591797 C 47.66601943969727 73.46962738037109 42.89044189453125 74.43359375 37.966796875 74.43359375 Z" stroke="none"/>
                                  <path d="M 37.966796875 3 C 33.2449836730957 3 28.66600799560547 3.924095153808594 24.35705947875977 5.746635437011719 C 20.19359588623047 7.507637023925781 16.45379638671875 10.02928161621094 13.24153518676758 13.24153518676758 C 10.02927398681641 16.45379638671875 7.507621765136719 20.19359588623047 5.746635437011719 24.35705947875977 C 3.924095153808594 28.66600799560547 3 33.2449836730957 3 37.966796875 C 3 42.6886100769043 3.924095153808594 47.26758575439453 5.746635437011719 51.57653427124023 C 7.507621765136719 55.73999786376953 10.02927398681641 59.47979736328125 13.24153518676758 62.69205856323242 C 16.45379638671875 65.90431976318359 20.19359588623047 68.42597198486328 24.35705947875977 70.18695831298828 C 28.66600799560547 72.00949859619141 33.2449836730957 72.93359375 37.966796875 72.93359375 C 42.6886100769043 72.93359375 47.26758575439453 72.00949859619141 51.57653427124023 70.18695831298828 C 55.73999786376953 68.42597198486328 59.47979736328125 65.90431976318359 62.69205856323242 62.69205856323242 C 65.90431976318359 59.47979736328125 68.42597198486328 55.73999786376953 70.18695831298828 51.57653427124023 C 72.00949859619141 47.26758575439453 72.93359375 42.6886100769043 72.93359375 37.966796875 C 72.93359375 33.2449836730957 72.00949859619141 28.66600799560547 70.18695831298828 24.35705947875977 C 68.42597198486328 20.19359588623047 65.90431976318359 16.45379638671875 62.69205856323242 13.24153518676758 C 59.47979736328125 10.02928161621094 55.73999786376953 7.507637023925781 51.57653427124023 5.746635437011719 C 47.26758575439453 3.924095153808594 42.6886100769043 3 37.966796875 3 M 37.966796875 0 C 58.93528366088867 0 75.93359375 16.99832153320312 75.93359375 37.966796875 C 75.93359375 58.93528366088867 58.93528366088867 75.93359375 37.966796875 75.93359375 C 16.99831008911133 75.93359375 0 58.93528366088867 0 37.966796875 C 0 16.99832153320312 16.99831008911133 0 37.966796875 0 Z" stroke="none" fill="#1d7083"/>
                                </g>
                              </g>
                            </g>
                          </g>
                        </g>
                      </g>
                    </g>
                  </g>
                </g>
              </g>
            </g>
          </g>
        </g>
        <g id="math_3320937" transform="translate(212.955 1018.544)">
          <g id="Group_1176807" data-name="Group 1176807" transform="translate(4.976 28.208)">
            <path id="Path_1035083" data-name="Path 1035083" d="M162.753,165.138h19.209V143.532a6.638,6.638,0,0,0-5.02-2.245c-6.455,0-6.455,7.746-12.91,7.746a7.091,7.091,0,0,1-1.278-.111Z" transform="translate(-152.988 -141.287)" fill="#b3e59f"/>
            <path id="Path_1035084" data-name="Path 1035084" d="M164.032,225.688a7.273,7.273,0,0,0,.986-.065v16.17h-2.264V225.577A7.088,7.088,0,0,0,164.032,225.688Z" transform="translate(-152.989 -217.943)" fill="#95d6a4"/>
            <path id="Path_1035085" data-name="Path 1035085" d="M64.708,167.259V151.043c-4.608-.837-5.472-6.17-9.765-7.386v23.6Z" transform="translate(-54.943 -143.442)" fill="#ffe177"/>
            <path id="Path_1035086" data-name="Path 1035086" d="M57.207,144.845v22.414H54.943v-23.6A6.387,6.387,0,0,1,57.207,144.845Z" transform="translate(-54.943 -143.442)" fill="#ffd15b"/>
            <path id="Path_1035087" data-name="Path 1035087" d="M382.878,187.674h-7.89V166.069c2.253,2.287,3.732,5.5,7.89,5.5Z" transform="translate(-346.001 -163.824)" fill="#ffe177"/>
            <path id="Path_1035088" data-name="Path 1035088" d="M377.255,168.671v19h-2.264V166.068C375.792,166.881,376.495,167.811,377.255,168.671Z" transform="translate(-346.003 -163.824)" fill="#ffd15b"/>
          </g>
          <g id="Group_1176808" data-name="Group 1176808" transform="translate(0 16.946)">
            <path id="Path_1035089" data-name="Path 1035089" d="M238.544,156.787l-3.859-3.859a.679.679,0,1,0-.961.961l2.7,2.7h-9.491V137.445l.234.28c1.608,1.93,3.431,4.117,6.977,4.117a.679.679,0,1,0,0-1.359c-2.909,0-4.378-1.762-5.933-3.629-1.608-1.93-3.431-4.117-6.977-4.117s-5.368,2.187-6.976,4.116a16.4,16.4,0,0,1-2.167,2.293.679.679,0,0,0,.857,1.055,17.658,17.658,0,0,0,2.354-2.477c1.555-1.865,3.024-3.627,5.932-3.627a5.9,5.9,0,0,1,4.341,1.85v20.642h-2.812a.679.679,0,0,0,0,1.359h13.661l-2.7,2.7a.679.679,0,0,0,.961.961l3.859-3.859A.679.679,0,0,0,238.544,156.787Z" transform="translate(-192.652 -122.25)"/>
            <path id="Path_1035090" data-name="Path 1035090" d="M26.94,51.284H15.072V36.516c.194.014.393.022.6.022a7.812,7.812,0,0,0,1.435-.128.679.679,0,0,0-.25-1.335,6.445,6.445,0,0,1-1.184.105c-2.908,0-4.377-1.762-5.932-3.628a10.8,10.8,0,0,0-4.432-3.683v-8.6l2.7,2.7A.679.679,0,0,0,8.968,21L5.109,17.145c-.016-.016-.033-.031-.05-.045l-.023-.017-.03-.022-.029-.017-.028-.017-.03-.014L4.888,17l-.029-.011-.033-.012L4.8,16.968l-.035-.009-.033-.005-.033,0-.059,0H4.62l-.059,0-.033,0-.033.005-.035.009-.029.008-.033.012L4.369,17l-.03.014-.03.014-.028.017-.029.017-.03.022L4.2,17.1q-.026.021-.05.045L.289,21a.679.679,0,1,0,.961.961l2.7-2.7V51.284H.679a.679.679,0,1,0,0,1.359h3.27V56.8a.679.679,0,0,0,1.359,0V52.643H26.94a.679.679,0,1,0,0-1.359ZM5.308,29.345A10.764,10.764,0,0,1,8.7,32.422c1.282,1.538,2.7,3.238,5.018,3.865v15H5.308Z" transform="translate(0 -16.946)"/>
            <path id="Path_1035091" data-name="Path 1035091" d="M246.842,269.805a.959.959,0,0,1-.712-.294.679.679,0,1,0-1.007.912,2.314,2.314,0,0,0,1.719.74,1.681,1.681,0,0,0,1.707-1.316,1.56,1.56,0,0,0-1.169-1.717c-.369-.136-.716-.283-.878-.353.006-.021.033-.054.106-.076a1.221,1.221,0,0,1,.883.223.679.679,0,0,0,.8-1.1,2.54,2.54,0,0,0-2.078-.428,1.468,1.468,0,0,0-1.06,1.189,1.349,1.349,0,0,0,.6,1.336.673.673,0,0,0,.094.051c.02.009.508.226,1.056.428.238.088.305.185.3.2A.37.37,0,0,1,246.842,269.805Z" transform="translate(-222.762 -243.732)"/>
            <path id="Path_1035092" data-name="Path 1035092" d="M127.529,437.594a.679.679,0,0,0-.634.437,2.252,2.252,0,1,0,0,4.047.679.679,0,0,0,1.313-.242v-3.563A.679.679,0,0,0,127.529,437.594Zm-1.621,3.354a.893.893,0,1,1,.893-.893A.894.894,0,0,1,125.909,440.948Z" transform="translate(-112.457 -399.495)"/>
            <path id="Path_1035093" data-name="Path 1035093" d="M346.531,420.814a2.332,2.332,0,0,0-1.077.26v-1.306a.679.679,0,0,0-1.359,0v5.239a.679.679,0,0,0,1.254.362,2.325,2.325,0,0,0,1.182.317,2.436,2.436,0,1,0,0-4.872Zm0,3.513a1.077,1.077,0,1,1,1.077-1.077A1.078,1.078,0,0,1,346.531,424.328Z" transform="translate(-312.929 -382.666)"/>
            <path id="Path_1035094" data-name="Path 1035094" d="M182.387,45.258v2.759a.679.679,0,1,0,1.359,0V45.264h.1a.679.679,0,1,0,0-1.359h-.1v-.457a.876.876,0,0,1,.219,0,.679.679,0,0,0,.225-1.34,1.793,1.793,0,0,0-1.373.305,1.241,1.241,0,0,0-.429.97v.527a.679.679,0,0,0,0,1.346Z" transform="translate(-165.328 -39.806)"/>
            <path id="Path_1035095" data-name="Path 1035095" d="M267.932,56.587a.679.679,0,0,0,.951-.133l.85-1.127.9,1.191a.679.679,0,1,0,1.082-.821l-1.136-1.5.94-1.246a.679.679,0,1,0-1.085-.818l-.709.94-.714-.941a.679.679,0,0,0-1.082.821l.947,1.247L267.8,55.636A.679.679,0,0,0,267.932,56.587Z" transform="translate(-243.419 -48.702)"/>
            <path id="Path_1035096" data-name="Path 1035096" d="M230.352,53.922a.68.68,0,0,0,.657-.854,6.636,6.636,0,0,1-.024-3.772.679.679,0,0,0-1.263-.5,7.819,7.819,0,0,0-.026,4.623A.679.679,0,0,0,230.352,53.922Z" transform="translate(-208.6 -45.521)"/>
            <path id="Path_1035097" data-name="Path 1035097" d="M334,53.067a.679.679,0,1,0,1.313.35,7.819,7.819,0,0,0-.026-4.623.679.679,0,1,0-1.261.5A6.642,6.642,0,0,1,334,53.067Z" transform="translate(-303.73 -45.521)"/>
          </g>
        </g>
      </g>
    </g>
  </g>
</svg>
