<svg xmlns="http://www.w3.org/2000/svg" xmlns:xlink="http://www.w3.org/1999/xlink" width="113" height="113" viewBox="0 0 113 113">
  <defs>
    <filter id="Path_982547" x="0" y="0" width="113" height="113" filterUnits="userSpaceOnUse">
      <feOffset dy="3" input="SourceAlpha"/>
      <feGaussianBlur stdDeviation="3" result="blur"/>
      <feFlood flood-opacity="0.161"/>
      <feComposite operator="in" in2="blur"/>
      <feComposite in="SourceGraphic"/>
    </filter>
  </defs>
  <g id="Group_1177322" data-name="Group 1177322" transform="translate(-4968 -2365.273)">
    <g id="Group_1177267" data-name="Group 1177267">
      <g id="Group_1176929" data-name="Group 1176929" transform="translate(4977 2371.273)">
        <g id="Group_1172322" data-name="Group 1172322" transform="translate(0 0)">
          <g id="Group_1164700" data-name="Group 1164700">
            <g id="Group_1160931" data-name="Group 1160931">
              <g id="Group_1160749" data-name="Group 1160749">
                <g id="Group_1158891" data-name="Group 1158891">
                  <g id="Group_1157406" data-name="Group 1157406">
                    <g id="Group_1155793" data-name="Group 1155793">
                      <g id="Group_1154704" data-name="Group 1154704">
                        <g id="Group_1150790" data-name="Group 1150790">
                          <g id="Group_1154214" data-name="Group 1154214">
                            <g id="Group_1152583" data-name="Group 1152583">
                              <g id="Group_1146973" data-name="Group 1146973">
                                <g id="Group_1146954" data-name="Group 1146954">
                                  <g transform="matrix(1, 0, 0, 1, -9, -6)" filter="url(#Path_982547)">
                                    <g id="Path_982547-2" data-name="Path 982547" transform="translate(9 6)" fill="#f2f7e5">
                                      <path d="M 47.5000114440918 93.49987030029297 C 41.28938293457031 93.49987030029297 35.26534652709961 92.28384399414062 29.5951976776123 89.88558959960938 C 24.11773109436035 87.56881713867188 19.19814491271973 84.25183868408203 14.97310447692871 80.02680206298828 C 10.74805164337158 75.80176544189453 7.43107795715332 70.88218688964844 5.114304542541504 65.40472412109375 C 2.716038227081299 59.73458862304688 1.500011444091797 53.71054840087891 1.500011444091797 47.49993515014648 C 1.500011444091797 41.28932189941406 2.716038227081299 35.26528167724609 5.114304542541504 29.59514808654785 C 7.43107795715332 24.1176815032959 10.74805164337158 19.1981086730957 14.97310447692871 14.97306823730469 C 19.19814491271973 10.74802875518799 24.11773109436035 7.431055068969727 29.5951976776123 5.11428165435791 C 35.26534652709961 2.716028451919556 41.28938293457031 1.500001788139343 47.5000114440918 1.500001788139343 C 53.71063995361328 1.500001788139343 59.73467636108398 2.716028451919556 65.40482330322266 5.11428165435791 C 70.88229370117188 7.431055068969727 75.8018798828125 10.74802875518799 80.02691650390625 14.97306823730469 C 84.25196838378906 19.1981086730957 87.56894683837891 24.1176815032959 89.88571929931641 29.59514808654785 C 92.28398132324219 35.26528167724609 93.50001525878906 41.28932189941406 93.50001525878906 47.49993515014648 C 93.50001525878906 53.71054840087891 92.28398132324219 59.73458862304688 89.88571929931641 65.40472412109375 C 87.56894683837891 70.88218688964844 84.25196838378906 75.80176544189453 80.02691650390625 80.02680206298828 C 75.8018798828125 84.25183868408203 70.88229370117188 87.56881713867188 65.40482330322266 89.88558959960938 C 59.73467636108398 92.28384399414062 53.71063995361328 93.49987030029297 47.5000114440918 93.49987030029297 Z" stroke="none"/>
                                      <path d="M 47.5000114440918 3 C 41.49122619628906 3 35.66378021240234 4.1761474609375 30.17951965332031 6.495796203613281 C 24.880859375 8.7369384765625 20.12153625488281 11.94596862792969 16.03376770019531 16.03373718261719 C 11.94598388671875 20.12149047851562 8.736968994140625 24.88081359863281 6.495811462402344 30.17947387695312 C 4.176162719726562 35.66371917724609 3.000007629394531 41.49116516113281 3.000007629394531 47.49993515014648 C 3.000007629394531 53.50870513916016 4.176162719726562 59.33615112304688 6.495811462402344 64.82039642333984 C 8.736968994140625 70.11905670166016 11.94598388671875 74.87837982177734 16.03376770019531 78.96613311767578 C 20.12153625488281 83.05390167236328 24.880859375 86.26293182373047 30.17951965332031 88.50407409667969 C 35.66378021240234 90.82372283935547 41.49122619628906 91.99987030029297 47.5000114440918 91.99987030029297 C 53.50879669189453 91.99987030029297 59.33624267578125 90.82372283935547 64.82050323486328 88.50407409667969 C 70.11916351318359 86.26293182373047 74.87848663330078 83.05390167236328 78.96625518798828 78.96613311767578 C 83.05403900146484 74.87837982177734 86.2630615234375 70.11905670166016 88.50421142578125 64.82039642333984 C 90.82386016845703 59.33615112304688 92.00001525878906 53.50870513916016 92.00001525878906 47.49993515014648 C 92.00001525878906 41.49116516113281 90.82386016845703 35.66371917724609 88.50421142578125 30.17947387695312 C 86.2630615234375 24.88081359863281 83.05403900146484 20.12149047851562 78.96625518798828 16.03373718261719 C 74.87848663330078 11.94596862792969 70.11916351318359 8.7369384765625 64.82050323486328 6.495796203613281 C 59.33624267578125 4.1761474609375 53.50879669189453 3 47.5000114440918 3 M 47.5000114440918 0 C 73.73353576660156 0 95.00001525878906 21.26644134521484 95.00001525878906 47.49993515014648 C 95.00001525878906 73.73342895507812 73.73353576660156 94.99987030029297 47.5000114440918 94.99987030029297 C 21.26648712158203 94.99987030029297 7.62939453125e-06 73.73342895507812 7.62939453125e-06 47.49993515014648 C 7.62939453125e-06 21.26644134521484 21.26648712158203 0 47.5000114440918 0 Z" stroke="none" fill="#86b60c"/>
                                    </g>
                                  </g>
                                </g>
                              </g>
                            </g>
                          </g>
                        </g>
                      </g>
                    </g>
                  </g>
                </g>
              </g>
            </g>
          </g>
        </g>
      </g>
      <g id="ecology_2499950" transform="translate(4996.801 2391.599)">
        <g id="Group_1177252" data-name="Group 1177252" transform="translate(13.749 18.617)">
          <g id="Group_1177243" data-name="Group 1177243">
            <circle id="Ellipse_11864" data-name="Ellipse 11864" cx="14.451" cy="14.451" r="14.451" fill="#62b4fd"/>
          </g>
          <g id="Group_1177244" data-name="Group 1177244" transform="translate(2.658 2.94)">
            <path id="Path_1036546" data-name="Path 1036546" d="M169.371,195.876a14.451,14.451,0,0,1-20.529,19.864,14.451,14.451,0,1,0,20.529-19.864Z" transform="translate(-148.842 -195.876)" fill="#27a2fb"/>
          </g>
          <g id="Group_1177245" data-name="Group 1177245" transform="translate(5.986 20.567)">
            <path id="Path_1036547" data-name="Path 1036547" d="M187.549,364.382a14.389,14.389,0,0,0,9.081-3.211l-.831-2.116a1.762,1.762,0,0,0-.911-.96l-4.156-1.889a1.762,1.762,0,0,0-1.86.253l-1.6,1.342a2.35,2.35,0,0,1-.961.483l-4.415,1.056a1.763,1.763,0,0,0-.792.425l-2.016,1.879A14.385,14.385,0,0,0,187.549,364.382Z" transform="translate(-179.084 -356.048)" fill="#93d87b"/>
          </g>
          <g id="Group_1177246" data-name="Group 1177246" transform="translate(5.986 22.168)">
            <path id="Path_1036548" data-name="Path 1036548" d="M194.89,371.039l-.982-.446A14.468,14.468,0,0,1,180.2,373.55l-1.114,1.038a14.45,14.45,0,0,0,17.546-.472L195.8,372A1.763,1.763,0,0,0,194.89,371.039Z" transform="translate(-179.086 -370.593)" fill="#67c846"/>
          </g>
          <g id="Group_1177247" data-name="Group 1177247" transform="translate(15.649 4.642)">
            <path id="Path_1036549" data-name="Path 1036549" d="M266.885,212.842v1.31a1.5,1.5,0,0,0,.744,1.294l2.629,1.53A1.5,1.5,0,0,1,271,218.27v2.156a1.5,1.5,0,0,0,.861,1.356l2.44,1.145a1.5,1.5,0,0,0,.772.136l1.847-.168a1.5,1.5,0,0,1,.435.024l2.6.53a14.549,14.549,0,0,0,.182-2.3,14.4,14.4,0,0,0-3.84-9.809h-7.915A1.5,1.5,0,0,0,266.885,212.842Z" transform="translate(-266.885 -211.344)" fill="#93d87b"/>
          </g>
          <g id="Group_1177248" data-name="Group 1177248" transform="translate(24.173 4.642)">
            <path id="Path_1036550" data-name="Path 1036550" d="M345.233,211.346h-.888a14.481,14.481,0,0,1,.835,11.612l.678-.062a1.5,1.5,0,0,1,.435.024l2.6.53a14.549,14.549,0,0,0,.182-2.3A14.4,14.4,0,0,0,345.233,211.346Z" transform="translate(-344.345 -211.346)" fill="#67c846"/>
          </g>
          <g id="Group_1177250" data-name="Group 1177250" transform="translate(0 0.701)">
            <g id="Group_1177249" data-name="Group 1177249">
              <path id="Path_1036551" data-name="Path 1036551" d="M134.689,175.536a14.456,14.456,0,0,0-9.995,13.75q0,.263.01.524h2.11a2.474,2.474,0,0,0,2.343-1.68l.359-1.058a2.474,2.474,0,0,1,2.343-1.68,2.474,2.474,0,0,0,2.034-1.066l1.9-2.745a2.474,2.474,0,0,0,.288-2.262Z" transform="translate(-124.694 -175.536)" fill="#93d87b"/>
            </g>
          </g>
          <g id="Group_1177251" data-name="Group 1177251" transform="translate(9.458 11.231)">
            <path id="Path_1036552" data-name="Path 1036552" d="M215.277,271.3l1.14.59a.749.749,0,0,1,.4.75l-.214,1.871a.748.748,0,0,1-.186.415l-1.588,1.771a.749.749,0,0,1-.5.247l-1.38.11a.748.748,0,0,0-.356.123l-.675.45a.749.749,0,0,1-.945-.094l-.126-.126a.749.749,0,0,1-.077-.968l3.553-4.913A.749.749,0,0,1,215.277,271.3Z" transform="translate(-210.631 -271.217)" fill="#93d87b"/>
          </g>
        </g>
        <g id="Group_1177261" data-name="Group 1177261" transform="translate(0.854 4.167)">
          <g id="Group_1177253" data-name="Group 1177253" transform="translate(35.793 0)">
            <path id="Path_1036553" data-name="Path 1036553" d="M350.677,40.848a3.122,3.122,0,0,0-6.241.133V55.347a3.1,3.1,0,0,0-3.981,1.829l-5.023,13.586-2.145,5.095a6.671,6.671,0,0,0-.523,2.588v2.061a6.67,6.67,0,0,0,.921,3.382l1.3,2.214v3.112H347.77V86.1l3.891-22.121Z" transform="translate(-332.764 -37.859)" fill="#fcd0a3"/>
          </g>
          <g id="Group_1177254" data-name="Group 1177254" transform="translate(36.49)">
            <path id="Path_1036554" data-name="Path 1036554" d="M356.31,40.912a3.166,3.166,0,0,0-2.891-3.045,3.121,3.121,0,0,0-1.231.156,3.122,3.122,0,0,1,2.118,2.824l.984,23.133-2.215,12.594a4.448,4.448,0,0,1-1.27,2.41,15.952,15.952,0,0,1-11.188,4.56c-.515,0-1.024-.025-1.527-.073q.1.211.225.416l1.3,2.214v3.112H353.4V86.1l3.891-22.121Z" transform="translate(-339.091 -37.859)" fill="#ffb983"/>
          </g>
          <g id="Group_1177256" data-name="Group 1177256" transform="translate(45.333 17.474)">
            <g id="Group_1177255" data-name="Group 1177255" transform="translate(0 0)">
              <path id="Path_1036555" data-name="Path 1036555" d="M419.443,196.644l.02.007v-.015Z" transform="translate(-419.443 -196.636)" fill="#ffb983"/>
            </g>
          </g>
          <g id="Group_1177257" data-name="Group 1177257" transform="translate(0 0)">
            <path id="Path_1036556" data-name="Path 1036556" d="M8.512,40.848a3.122,3.122,0,0,1,6.241.133V55.347a3.1,3.1,0,0,1,3.981,1.829L25.9,75.857a6.67,6.67,0,0,1,.523,2.588v2.061a6.67,6.67,0,0,1-.921,3.382L24.2,86.1v3.112H11.419V86.1L7.528,63.981Z" transform="translate(-7.528 -37.859)" fill="#fcd0a3"/>
          </g>
          <g id="Group_1177258" data-name="Group 1177258" transform="translate(3.431 17.295)">
            <path id="Path_1036557" data-name="Path 1036557" d="M54.162,217.974a6.889,6.889,0,0,0-.514-2.262L46.48,197.031a3.1,3.1,0,0,0-3.961-1.836,3.089,3.089,0,0,1,1.849,1.836l7.168,18.681a6.663,6.663,0,0,1,.328.99,2.223,2.223,0,0,1-.6,2.117A15.949,15.949,0,0,1,40.053,223.4c-.454,0-.9-.02-1.349-.057l.46,2.614v3.112H51.947v-3.112l1.3-2.214a6.67,6.67,0,0,0,.921-3.382V218.3q0-.163-.008-.326Z" transform="translate(-38.704 -195.009)" fill="#ffb983"/>
          </g>
          <g id="Group_1177260" data-name="Group 1177260" transform="translate(9.337 17.474)">
            <g id="Group_1177259" data-name="Group 1177259" transform="translate(0 0)">
              <path id="Path_1036558" data-name="Path 1036558" d="M92.393,196.644l-.02.007v-.015Z" transform="translate(-92.373 -196.636)" fill="#ffb983"/>
            </g>
          </g>
        </g>
        <g id="Group_1177262" data-name="Group 1177262" transform="translate(13.749 0.832)">
          <path id="Path_1036559" data-name="Path 1036559" d="M124.884,7.749a12.132,12.132,0,0,0,14.062,14.083A12.112,12.112,0,0,0,124.884,7.749Z" transform="translate(-124.694 -7.558)" fill="#93d87b"/>
        </g>
        <g id="Group_1177263" data-name="Group 1177263" transform="translate(17.357 2.207)">
          <path id="Path_1036560" data-name="Path 1036560" d="M164.773,22.23a12.086,12.086,0,0,0-2.94-2.175l.054.053a12.03,12.03,0,0,1,3.543,8.7,2.221,2.221,0,0,1-2.206,2.213,12.3,12.3,0,0,1-5.746-1.379,12.157,12.157,0,0,0,10.645,3.314A12.145,12.145,0,0,0,164.773,22.23Z" transform="translate(-157.478 -20.055)" fill="#67c846"/>
        </g>
        <g id="Group_1177264" data-name="Group 1177264" transform="translate(28.204 4.17)">
          <path id="Path_1036561" data-name="Path 1036561" d="M267.006,38.036A9.331,9.331,0,0,1,256.19,48.868a9.316,9.316,0,0,1,10.816-10.832Z" transform="translate(-256.041 -37.889)" fill="#93d87b"/>
        </g>
        <g id="Group_1177265" data-name="Group 1177265" transform="translate(28.205 7.14)">
          <path id="Path_1036562" data-name="Path 1036562" d="M265.235,67.477a9.264,9.264,0,0,1-6.525,2.736,1.827,1.827,0,0,1-1.856-1.832,9.847,9.847,0,0,1,.076-1.15,9.41,9.41,0,0,0-.738,5.649,9.35,9.35,0,0,0,8.232-2.593,9.161,9.161,0,0,0,2.654-5.416,9.241,9.241,0,0,1-1.844,2.606Z" transform="translate(-256.044 -64.871)" fill="#67c846"/>
        </g>
        <g id="Group_1177266" data-name="Group 1177266" transform="translate(0.029 0)">
          <path id="Path_1036563" data-name="Path 1036563" d="M210.106,264.463l-1.14-.59h0a1.565,1.565,0,0,0-2,.476l-3.553,4.913a1.568,1.568,0,0,0,.163,2.036l.125.125a1.578,1.578,0,0,0,1.986.2l.659-.439,1.36-.109a1.568,1.568,0,0,0,1.047-.518l1.588-1.771a1.564,1.564,0,0,0,.392-.872l.214-1.871A1.582,1.582,0,0,0,210.106,264.463ZM209.1,267.7l-1.551,1.73-1.349.108a1.576,1.576,0,0,0-.748.259l-.623.415-.035-.035,3.476-4.807,1.035.535Z" transform="translate(-180.763 -234.675)"/>
          <path id="Path_1036564" data-name="Path 1036564" d="M322.968,242.046l-.708.708a.825.825,0,0,0,1.167,1.167l.708-.708a.825.825,0,0,0-1.167-1.167Z" transform="translate(-286.582 -215.193)"/>
          <path id="Path_1036565" data-name="Path 1036565" d="M180.792,216.183a.825.825,0,0,0,1.141-.247l.388-.6a.825.825,0,1,0-1.388-.894l-.388.6A.825.825,0,0,0,180.792,216.183Z" transform="translate(-160.562 -190.503)"/>
          <path id="Path_1036566" data-name="Path 1036566" d="M55.385,7.121a3.947,3.947,0,0,0-7.891.168V20.643a3.929,3.929,0,0,0-3.93,2.555l-1.377,3.725a15.284,15.284,0,0,0-13.162-9.108V16.079c.262.024.575.043.93.043a10.055,10.055,0,0,0,7.213-2.982,10.11,10.11,0,0,0,2.8-9.011.825.825,0,0,0-.616-.616A10.2,10.2,0,0,0,28.416,8.987,12.7,12.7,0,0,0,25.235,3.8,12.883,12.883,0,0,0,13.752.219a.825.825,0,0,0-.616.616,12.882,12.882,0,0,0,3.579,11.484,12.822,12.822,0,0,0,9.2,3.806,12.6,12.6,0,0,0,1.46-.083v1.776a15.21,15.21,0,0,0-10.254,4.734,15.332,15.332,0,0,0-2.908,4.371L12.835,23.2a3.928,3.928,0,0,0-3.93-2.555V7.289a3.947,3.947,0,0,0-7.891-.168L.03,30.254a.831.831,0,0,0,.012.178l.729,4.145A.825.825,0,1,0,2.4,34.291l-.713-4.057L2.663,7.191a2.3,2.3,0,0,1,4.591.1v13.84a3.936,3.936,0,0,0-1.772,4.809l3.535,9.421a.825.825,0,0,0,1.545-.58L7.028,25.358a2.272,2.272,0,0,1,3.064-2.869,2.256,2.256,0,0,1,1.195,1.282l7.181,18.715a5.813,5.813,0,0,1,.458,2.268v2.061a5.849,5.849,0,0,1-.807,2.963l-1.3,2.214a.825.825,0,0,0-.114.418V54.7H5.57V52.41a.83.83,0,0,0-.012-.143l-2.49-14.16a.825.825,0,1,0-1.626.286L3.92,52.482v3.04a.825.825,0,0,0,.825.825H17.528a.825.825,0,0,0,.825-.825V52.635l1.188-2.02a7.5,7.5,0,0,0,1.035-3.8v-.507a15.278,15.278,0,0,0,15.246,0v.507a7.5,7.5,0,0,0,1.035,3.8l1.188,2.02v2.888a.825.825,0,0,0,.825.825H51.654a.825.825,0,0,0,.825-.825v-3.04l2.478-14.089a.825.825,0,1,0-1.626-.286l-2.49,14.16a.829.829,0,0,0-.012.143V54.7H39.7V52.41a.825.825,0,0,0-.114-.418l-1.3-2.214a5.848,5.848,0,0,1-.807-2.963V44.753a5.813,5.813,0,0,1,.458-2.268l2.145-5.095c0-.008.006-.016.008-.023l0-.011L45.112,23.77a2.273,2.273,0,0,1,2.947-1.332,2.279,2.279,0,0,1,1.312,2.919l-3.535,9.421a.825.825,0,0,0,1.545.58l3.535-9.421a3.936,3.936,0,0,0-1.772-4.809V7.289a2.3,2.3,0,0,1,4.591-.1l.98,23.044L54,34.291a.825.825,0,0,0,.67.956.835.835,0,0,0,.144.013.826.826,0,0,0,.812-.682l.729-4.145a.817.817,0,0,0,.012-.178ZM41.3,29.319,39.578,33.98c-.072,0-.144,0-.216.008l-1.848.167a.674.674,0,0,1-.345-.061l-2.44-1.146a.674.674,0,0,1-.387-.608V30.185a2.332,2.332,0,0,0-1.154-2.007l-2.63-1.529a.674.674,0,0,1-.334-.581V24.757a.673.673,0,0,1,.672-.672h7.547A13.661,13.661,0,0,1,41.3,29.319ZM31.513,7.484a8.465,8.465,0,0,1,6.932-2.447A8.531,8.531,0,0,1,36,11.972a8.409,8.409,0,0,1-5.8,2.5l3.064-3.064a.825.825,0,0,0-1.167-1.167l-3.069,3.069a8.384,8.384,0,0,1,2.488-5.825ZM17.882,11.151a11.021,11.021,0,0,1-3.219-6.589,11.605,11.605,0,0,1-.006-2.822,11.616,11.616,0,0,1,2.822.006,11.27,11.27,0,0,1,9.8,9.812,11.893,11.893,0,0,1,.083,1.742L20.021,5.958a.825.825,0,0,0-1.167,1.167l7.338,7.338a11.287,11.287,0,0,1-8.31-3.312Zm5.369,9.221,1.109,3.016a1.649,1.649,0,0,1-.191,1.508l-1.9,2.745a1.649,1.649,0,0,1-1.355.71,3.3,3.3,0,0,0-3.126,2.24l-.357,1.057A1.649,1.649,0,0,1,16.346,32.7L15.1,29.319A13.759,13.759,0,0,1,23.252,20.372Zm-2.192,24.3,1.253-1.168a.947.947,0,0,1,.422-.227l4.415-1.056a3.2,3.2,0,0,0,1.3-.653l1.6-1.342a.944.944,0,0,1,.99-.134L35.2,41.982a.936.936,0,0,1,.486.512l.295.75a7.444,7.444,0,0,0-.142,1.11,13.626,13.626,0,0,1-14.774.321ZM36.724,41.1a2.594,2.594,0,0,0-.845-.618l-4.155-1.888a2.6,2.6,0,0,0-2.732.371L27.39,40.3a1.54,1.54,0,0,1-.625.314l-4.417,1.056a2.6,2.6,0,0,0-1.161.624l-.808.753a7.5,7.5,0,0,0-.39-1.207l-3.07-7.6a3.3,3.3,0,0,0,2.075-2.068l.357-1.057A1.649,1.649,0,0,1,20.914,30a3.3,3.3,0,0,0,2.712-1.422l1.9-2.744a3.3,3.3,0,0,0,.383-3.017l-1.085-2.95a13.623,13.623,0,0,1,11.889,2.567H30.9a2.326,2.326,0,0,0-2.323,2.323v1.311a2.33,2.33,0,0,0,1.154,2.007L32.356,29.6a.676.676,0,0,1,.335.581v2.156a2.331,2.331,0,0,0,1.336,2.1l2.439,1.145a2.321,2.321,0,0,0,.986.22q.105,0,.211-.01l1.286-.116-.4,1.083Z" transform="translate(-0.029 0)"/>
        </g>
      </g>
    </g>
  </g>
</svg>
