<svg xmlns="http://www.w3.org/2000/svg" width="38.749" height="37.499" viewBox="0 0 38.749 37.499">
  <g id="Group_1177345" data-name="Group 1177345" transform="translate(-336.188 -746.735)">
    <g id="salesman_3079299" transform="translate(335.188 744.735)">
      <path id="Path_1036003" data-name="Path 1036003" d="M37.874,22.624a1.865,1.865,0,0,0-1.25.481,1.864,1.864,0,0,0-2.5,0,1.865,1.865,0,0,0-1.25-.481,1.732,1.732,0,0,0-.625.112V18.25a1.875,1.875,0,0,0-3.75,0v8.125h-.625A1.88,1.88,0,0,0,26,28.249v1.875a.7.7,0,0,0,.081.312l1.212,2.119a4.34,4.34,0,0,0-.631-.194l-6.287-1.481V28.412a9.377,9.377,0,0,0,4.981-7.719,3.131,3.131,0,0,0,2.519-3.069,3.083,3.083,0,0,0-.306-1.337.638.638,0,0,0,.306-.537V12A8.765,8.765,0,0,0,19.65,3.262,1.888,1.888,0,0,0,17.875,2H11a8.759,8.759,0,0,0-8.75,8.75v.625a5,5,0,0,0,2.531,4.344,3.091,3.091,0,0,0-.656,1.906,3.131,3.131,0,0,0,2.519,3.069,9.377,9.377,0,0,0,4.981,7.719v2.469L5.337,32.362A5.6,5.6,0,0,0,1,37.837v1.037a.627.627,0,0,0,.625.625h37.5a.627.627,0,0,0,.625-.625V24.5a1.88,1.88,0,0,0-1.875-1.875ZM34.749,24.5a.625.625,0,0,1,1.25,0V27a.625.625,0,0,1-1.25,0Zm-2.5,0a.625.625,0,1,1,1.25,0V27a.625.625,0,1,1-1.25,0Zm-2.5-6.25a.625.625,0,1,1,1.25,0v8.125h-1.25Zm-4.375,1.137V16.375h.769a1.866,1.866,0,0,1-.769,3.012Zm-18.75,0a1.869,1.869,0,0,1-.7-3.087.54.54,0,0,1,.087-.081,5.047,5.047,0,0,0,.612.119ZM3.5,11.375V10.75A7.506,7.506,0,0,1,11,3.25h6.875a.627.627,0,0,1,.625.625.627.627,0,0,0,.625.625,7.506,7.506,0,0,1,7.5,7.5v3.125H24.749a5.007,5.007,0,0,1-5-5A1.88,1.88,0,0,0,17.875,8.25a.627.627,0,0,0-.625.625c0,.075-.025,1.875-1.25,1.875H11.562A1.832,1.832,0,0,0,9.75,12.625a2.5,2.5,0,0,1-2.5,2.5A3.753,3.753,0,0,1,3.5,11.375Zm4.375,8.75V16.318A3.762,3.762,0,0,0,11,12.575.567.567,0,0,1,11.562,12H16a2.487,2.487,0,0,0,2.394-2.219.6.6,0,0,1,.106.344,6.263,6.263,0,0,0,5.625,6.219v3.781a8.125,8.125,0,1,1-16.25,0ZM16,34.137l.675.675L16,35.493l-.675-.681Zm0-1.587-3.125-1.562V28.962a9.353,9.353,0,0,0,6.25,0v2.025Zm-13.75,5.7v-.412a4.361,4.361,0,0,1,3.375-4.262l1.369-.319,1.419,1.412-.506,1.506a.623.623,0,0,0,.337.769l2.937,1.306Zm7.025-2.212L9.719,34.7a.629.629,0,0,0-.15-.644L8.425,32.912l3.369-.787,1.412,5.656Zm4.937.6-.144-.569.369-.369.062.063Zm-.5-1.987-.525-2.112,1.756.881Zm1.281,3.6.5-1.494.062.062a.634.634,0,0,0,.887,0l.062-.062.5,1.494Zm2.794-1.612-.287-.875.062-.062.369.369Zm-.731-3.219,1.756-.881-.525,2.112Zm3.15-1.294,3.369.787-1.144,1.144a.629.629,0,0,0-.15.644l.444,1.337L18.793,37.78ZM28.5,38.249H20.818l2.937-1.306a.623.623,0,0,0,.337-.769l-.506-1.506,1.419-1.412,1.369.319A4.342,4.342,0,0,1,28.5,34.787Zm10,0h-8.75V34.5a.7.7,0,0,0-.081-.312l-2.419-4.231V28.249a.627.627,0,0,1,.625-.625h3.019a1.883,1.883,0,0,1-1.769,1.25H28.5v1.25h.625a3.12,3.12,0,0,0,2.706-1.562,1.933,1.933,0,0,0,1.044.312,1.865,1.865,0,0,0,1.25-.481,1.864,1.864,0,0,0,2.5,0,1.865,1.865,0,0,0,1.25.481,1.732,1.732,0,0,0,.625-.112ZM38.5,27a.625.625,0,1,1-1.25,0V24.5a.625.625,0,1,1,1.25,0Z"/>
      <path id="Path_1036007" data-name="Path 1036007" d="M56,2H46.625A.625.625,0,0,0,46,2.625V13.25a.625.625,0,0,0,.625.625H49.75V15.75a.625.625,0,0,0,.972.52l3.592-2.395H56a.625.625,0,0,0,.625-.625V2.625A.625.625,0,0,0,56,2Zm-.625,10.625h-1.25a.628.628,0,0,0-.347.1L51,14.582V13.25a.625.625,0,0,0-.625-.625H47.25V3.25h8.125Z" transform="translate(-16.876 0)"/>
      <path id="Path_1036008" data-name="Path 1036008" d="M-.38-2.09-.77-7.05H.77L.38-2.09ZM-.7,0V-1.39H.7V0Z" transform="translate(35 11.499)" fill="#212429"/>
    </g>
  </g>
</svg>
