<svg xmlns="http://www.w3.org/2000/svg" xmlns:xlink="http://www.w3.org/1999/xlink" width="113" height="113" viewBox="0 0 113 113">
  <defs>
    <filter id="Path_982547" x="0" y="0" width="113" height="113" filterUnits="userSpaceOnUse">
      <feOffset dy="3" input="SourceAlpha"/>
      <feGaussianBlur stdDeviation="3" result="blur"/>
      <feFlood flood-opacity="0.161"/>
      <feComposite operator="in" in2="blur"/>
      <feComposite in="SourceGraphic"/>
    </filter>
  </defs>
  <g id="Group_1177320" data-name="Group 1177320" transform="translate(-4967 -1920.273)">
    <g id="Group_1176927" data-name="Group 1176927" transform="translate(4976 1926.273)">
      <g id="Group_1172322" data-name="Group 1172322" transform="translate(0 0)">
        <g id="Group_1164700" data-name="Group 1164700">
          <g id="Group_1160931" data-name="Group 1160931">
            <g id="Group_1160749" data-name="Group 1160749">
              <g id="Group_1158891" data-name="Group 1158891">
                <g id="Group_1157406" data-name="Group 1157406">
                  <g id="Group_1155793" data-name="Group 1155793">
                    <g id="Group_1154704" data-name="Group 1154704">
                      <g id="Group_1150790" data-name="Group 1150790">
                        <g id="Group_1154214" data-name="Group 1154214">
                          <g id="Group_1152583" data-name="Group 1152583">
                            <g id="Group_1146973" data-name="Group 1146973">
                              <g id="Group_1146954" data-name="Group 1146954">
                                <g transform="matrix(1, 0, 0, 1, -9, -6)" filter="url(#Path_982547)">
                                  <g id="Path_982547-2" data-name="Path 982547" transform="translate(9 6)" fill="#f2f7e5">
                                    <path d="M 47.5000114440918 93.49987030029297 C 41.28938293457031 93.49987030029297 35.26534652709961 92.28384399414062 29.5951976776123 89.88558959960938 C 24.11773109436035 87.56881713867188 19.19814491271973 84.25183868408203 14.97310447692871 80.02680206298828 C 10.74805164337158 75.80176544189453 7.43107795715332 70.88218688964844 5.114304542541504 65.40472412109375 C 2.716038227081299 59.73458862304688 1.500011444091797 53.71054840087891 1.500011444091797 47.49993515014648 C 1.500011444091797 41.28932189941406 2.716038227081299 35.26528167724609 5.114304542541504 29.59514808654785 C 7.43107795715332 24.1176815032959 10.74805164337158 19.1981086730957 14.97310447692871 14.97306823730469 C 19.19814491271973 10.74802875518799 24.11773109436035 7.431055068969727 29.5951976776123 5.11428165435791 C 35.26534652709961 2.716028451919556 41.28938293457031 1.500001788139343 47.5000114440918 1.500001788139343 C 53.71063995361328 1.500001788139343 59.73467636108398 2.716028451919556 65.40482330322266 5.11428165435791 C 70.88229370117188 7.431055068969727 75.8018798828125 10.74802875518799 80.02691650390625 14.97306823730469 C 84.25196838378906 19.1981086730957 87.56894683837891 24.1176815032959 89.88571929931641 29.59514808654785 C 92.28398132324219 35.26528167724609 93.50001525878906 41.28932189941406 93.50001525878906 47.49993515014648 C 93.50001525878906 53.71054840087891 92.28398132324219 59.73458862304688 89.88571929931641 65.40472412109375 C 87.56894683837891 70.88218688964844 84.25196838378906 75.80176544189453 80.02691650390625 80.02680206298828 C 75.8018798828125 84.25183868408203 70.88229370117188 87.56881713867188 65.40482330322266 89.88558959960938 C 59.73467636108398 92.28384399414062 53.71063995361328 93.49987030029297 47.5000114440918 93.49987030029297 Z" stroke="none"/>
                                    <path d="M 47.5000114440918 3 C 41.49122619628906 3 35.66378021240234 4.1761474609375 30.17951965332031 6.495796203613281 C 24.880859375 8.7369384765625 20.12153625488281 11.94596862792969 16.03376770019531 16.03373718261719 C 11.94598388671875 20.12149047851562 8.736968994140625 24.88081359863281 6.495811462402344 30.17947387695312 C 4.176162719726562 35.66371917724609 3.000007629394531 41.49116516113281 3.000007629394531 47.49993515014648 C 3.000007629394531 53.50870513916016 4.176162719726562 59.33615112304688 6.495811462402344 64.82039642333984 C 8.736968994140625 70.11905670166016 11.94598388671875 74.87837982177734 16.03376770019531 78.96613311767578 C 20.12153625488281 83.05390167236328 24.880859375 86.26293182373047 30.17951965332031 88.50407409667969 C 35.66378021240234 90.82372283935547 41.49122619628906 91.99987030029297 47.5000114440918 91.99987030029297 C 53.50879669189453 91.99987030029297 59.33624267578125 90.82372283935547 64.82050323486328 88.50407409667969 C 70.11916351318359 86.26293182373047 74.87848663330078 83.05390167236328 78.96625518798828 78.96613311767578 C 83.05403900146484 74.87837982177734 86.2630615234375 70.11905670166016 88.50421142578125 64.82039642333984 C 90.82386016845703 59.33615112304688 92.00001525878906 53.50870513916016 92.00001525878906 47.49993515014648 C 92.00001525878906 41.49116516113281 90.82386016845703 35.66371917724609 88.50421142578125 30.17947387695312 C 86.2630615234375 24.88081359863281 83.05403900146484 20.12149047851562 78.96625518798828 16.03373718261719 C 74.87848663330078 11.94596862792969 70.11916351318359 8.7369384765625 64.82050323486328 6.495796203613281 C 59.33624267578125 4.1761474609375 53.50879669189453 3 47.5000114440918 3 M 47.5000114440918 0 C 73.73353576660156 0 95.00001525878906 21.26644134521484 95.00001525878906 47.49993515014648 C 95.00001525878906 73.73342895507812 73.73353576660156 94.99987030029297 47.5000114440918 94.99987030029297 C 21.26648712158203 94.99987030029297 7.62939453125e-06 73.73342895507812 7.62939453125e-06 47.49993515014648 C 7.62939453125e-06 21.26644134521484 21.26648712158203 0 47.5000114440918 0 Z" stroke="none" fill="#86b60c"/>
                                  </g>
                                </g>
                              </g>
                            </g>
                          </g>
                        </g>
                      </g>
                    </g>
                  </g>
                </g>
              </g>
            </g>
          </g>
        </g>
      </g>
      <g id="money_1751761" transform="translate(19.854 17.34)">
        <path id="Path_1036461" data-name="Path 1036461" d="M176.542,8,168.5,16.042h3.016V56.255h10.053V16.042h3.016Zm0,0" transform="translate(-146.889 -6.994)" fill="#99d8aa"/>
        <path id="Path_1036462" data-name="Path 1036462" d="M202.553,362.584l-2.011.431A3.016,3.016,0,0,0,197.527,360H192.5v4.021h10.053Zm0,0" transform="translate(-167.873 -314.76)" fill="#8dc79d"/>
        <path id="Path_1036463" data-name="Path 1036463" d="M310.532,132.191H304.5V98.011L307.516,96l3.016,2.011Zm0,0" transform="translate(-265.799 -83.936)" fill="#c0f5f9"/>
        <path id="Path_1036464" data-name="Path 1036464" d="M310.532,363.43l-6.032,1.292v1.293h6.032Zm0,0" transform="translate(-265.799 -317.76)" fill="#b9edf0"/>
        <path id="Path_1036465" data-name="Path 1036465" d="M118.532,165.154H112.5V138.011L115.516,136l3.016,2.011Zm0,0" transform="translate(-97.926 -118.91)" fill="#c0f5f9"/>
        <path id="Path_1036466" data-name="Path 1036466" d="M172.606,170.053A10.053,10.053,0,1,1,162.553,160,10.053,10.053,0,0,1,172.606,170.053Zm0,0" transform="translate(-132.9 -139.894)" fill="#fbb540"/>
        <path id="Path_1036467" data-name="Path 1036467" d="M212.521,193.151V192h-2.011v1.151a2.859,2.859,0,0,0-.424,5.29l1.959.979a.859.859,0,0,1-.383,1.628h-.294a.86.86,0,0,1-.859-.859v-.147H208.5v.147a2.865,2.865,0,0,0,2.011,2.723v1.151h2.011v-1.151a2.859,2.859,0,0,0,.424-5.29l-1.96-.979a.858.858,0,0,1,.383-1.627h.294a.859.859,0,0,1,.859.859v.147h2.011v-.147a2.864,2.864,0,0,0-2.011-2.723Zm0,0" transform="translate(-181.862 -167.872)" fill="#d18d28"/>
        <path id="Path_1036468" data-name="Path 1036468" d="M272.5,232h2.011v2.011H272.5Zm0,0" transform="translate(-237.82 -202.846)" fill="#d18d28"/>
        <path id="Path_1036469" data-name="Path 1036469" d="M176.5,240h2.011v2.011H176.5Zm0,0" transform="translate(-153.884 -209.84)" fill="#d18d28"/>
        <path id="Path_1036470" data-name="Path 1036470" d="M58.51,368h19.1l4.021,3.016L95.707,368h.019a3,3,0,0,1,1.113,5.781l-18.222,7.289L58.51,378.053H56.5V368Zm0,0" transform="translate(-48.963 -321.755)" fill="#fdc9a6"/>
        <path id="Path_1036471" data-name="Path 1036471" d="M168.5,382.032h9.048a3.016,3.016,0,0,0,2.986-3.441l.015-.793-.991.213-2.011-1.508-3.016-.5H168.5Zm0,0" transform="translate(-146.889 -328.75)" fill="#f6bb92"/>
        <path id="Path_1036472" data-name="Path 1036472" d="M376.5,120h2.011v2.011H376.5Zm0,0" transform="translate(-328.751 -104.92)" fill="#fbd699"/>
        <path id="Path_1036473" data-name="Path 1036473" d="M376.5,152h2.011v2.011H376.5Zm0,0" transform="translate(-328.751 -132.899)" fill="#fbd699"/>
        <path id="Path_1036474" data-name="Path 1036474" d="M376.5,184h2.011v4.021H376.5Zm0,0" transform="translate(-328.751 -160.878)" fill="#fbd699"/>
        <g id="Group_1177210" data-name="Group 1177210" transform="translate(6.531 8.043)">
          <path id="Path_1036475" data-name="Path 1036475" d="M72.5,184h2.011v2.011H72.5Zm0,0" transform="translate(-69.484 -168.92)" fill="#fbedbf"/>
          <path id="Path_1036476" data-name="Path 1036476" d="M72.5,216h2.011v2.011H72.5Zm0,0" transform="translate(-69.484 -196.899)" fill="#fbedbf"/>
          <path id="Path_1036477" data-name="Path 1036477" d="M72.5,248h2.011v4.021H72.5Zm0,0" transform="translate(-69.484 -224.878)" fill="#fbedbf"/>
          <path id="Path_1036478" data-name="Path 1036478" d="M72.5,64h2.011v2.011H72.5Zm0,0" transform="translate(-69.484 -64)" fill="#fbedbf"/>
          <path id="Path_1036479" data-name="Path 1036479" d="M48.5,88h2.011v2.011H48.5Zm0,0" transform="translate(-48.5 -84.984)" fill="#fbedbf"/>
          <path id="Path_1036480" data-name="Path 1036480" d="M96.5,88h2.011v2.011H96.5Zm0,0" transform="translate(-90.468 -84.984)" fill="#fbedbf"/>
          <path id="Path_1036481" data-name="Path 1036481" d="M72.5,112h2.011v2.011H72.5Zm0,0" transform="translate(-69.484 -105.968)" fill="#fbedbf"/>
        </g>
        <path id="Path_1036482" data-name="Path 1036482" d="M408.5,24h2.011v2.011H408.5Zm0,0" transform="translate(-356.73 -20.984)" fill="#fbd699"/>
        <path id="Path_1036483" data-name="Path 1036483" d="M392.5,40h2.011v2.011H392.5Zm0,0" transform="translate(-342.74 -34.973)" fill="#fbd699"/>
        <path id="Path_1036484" data-name="Path 1036484" d="M424.5,40h2.011v2.011H424.5Zm0,0" transform="translate(-370.719 -34.973)" fill="#fbd699"/>
        <path id="Path_1036485" data-name="Path 1036485" d="M408.5,56h2.011v2.011H408.5Zm0,0" transform="translate(-356.73 -48.963)" fill="#fbd699"/>
        <path id="Path_1036486" data-name="Path 1036486" d="M118.532,313.268a6.993,6.993,0,0,0-6.032-.975v6.742h6.032Zm0,0" transform="translate(-97.926 -272.79)" fill="#b9edf0"/>
        <path id="Path_1036487" data-name="Path 1036487" d="M8.5,336h8.042v17.09H8.5Zm0,0" transform="translate(-6.995 -293.777)" fill="#4799cf"/>
        <path id="Path_1036488" data-name="Path 1036488" d="M92.606,326.049H86.494a7.028,7.028,0,0,0-13.913,0H72.5v6.032H92.606a3.016,3.016,0,1,0,0-6.032Zm0,0" transform="translate(-62.953 -279.804)" fill="#fdc9a6"/>
        <path id="Path_1036489" data-name="Path 1036489" d="M210.511,202.913v1.151h2.011v-1.151a2.859,2.859,0,0,0,.424-5.29l-1.96-.979a.858.858,0,0,1,.383-1.627h.294a.859.859,0,0,1,.859.859v.147h2.011v-.147a2.864,2.864,0,0,0-2.011-2.723V192H210.51v1.151a2.859,2.859,0,0,0-.424,5.29l1.959.979a.859.859,0,0,1-.383,1.628h-.294a.86.86,0,0,1-.859-.859v-.147H208.5v.147a2.865,2.865,0,0,0,2.011,2.723Zm0,0" transform="translate(-181.862 -167.872)"/>
        <path id="Path_1036490" data-name="Path 1036490" d="M272.5,232h2.011v2.011H272.5Zm0,0" transform="translate(-237.82 -202.846)"/>
        <path id="Path_1036491" data-name="Path 1036491" d="M176.5,240h2.011v2.011H176.5Zm0,0" transform="translate(-153.884 -209.84)"/>
        <path id="Path_1036492" data-name="Path 1036492" d="M.5,42.223v17.09A1,1,0,0,0,1.5,60.319H9.547a1,1,0,0,0,1.005-1.005V57.464L29.5,60.308a1.072,1.072,0,0,0,.149.011,1.012,1.012,0,0,0,.373-.072l18.225-7.289a4,4,0,0,0-1.508-7.719.952.952,0,0,0-.211.022l-.794.171V14.075a1,1,0,0,0-.448-.836l-3.016-2.011a1,1,0,0,0-1.116,0l-3.016,2.011a1.006,1.006,0,0,0-.447.836v8.519A11.133,11.133,0,0,0,35.685,20.9V10.053H37.7a1.006,1.006,0,0,0,.711-1.716L30.364.295a1,1,0,0,0-1.422,0L20.9,8.337a1.005,1.005,0,0,0,.711,1.716h2.011V20.9a11.1,11.1,0,0,0-2.011,1.691V19.1a1,1,0,0,0-.448-.836l-3.016-2.011a1,1,0,0,0-1.116,0l-3.016,2.011a1.006,1.006,0,0,0-.447.836V39.81A8.131,8.131,0,0,0,10.508,42a.991.991,0,0,0-.961-.786H1.5A1,1,0,0,0,.5,42.223ZM39.707,14.612l2.011-1.342,2.011,1.34V45.862l-4.021.861V34.739a10.938,10.938,0,0,0,0-9.16ZM33.473,48.06a4.014,4.014,0,0,0-3.82-2.821H25.632V40.45a10.912,10.912,0,0,0,8.042,0v7.567Zm-9.852-8.646v3.965A8.133,8.133,0,0,0,21.611,41v-3.27a11.121,11.121,0,0,0,2.011,1.691Zm12.064,0A11.133,11.133,0,0,0,37.7,37.723v9.43l-2.011.431ZM24.627,8.043h-.589l5.616-5.616,5.616,5.616H34.68a1,1,0,0,0-1.005,1.005V19.869a10.912,10.912,0,0,0-8.042,0V9.048a1,1,0,0,0-1.005-1.005Zm5.027,13.069a9.048,9.048,0,1,1-9.048,9.048,9.048,9.048,0,0,1,9.048-9.048ZM15.579,19.639,17.59,18.3l2.011,1.34v5.941a10.935,10.935,0,0,0,0,9.16V39.81a7.661,7.661,0,0,0-4.021-.531Zm1.005,21.579a6.054,6.054,0,0,1,5.962,5.169,1.006,1.006,0,0,0,.995.863h6.112a2.011,2.011,0,0,1,0,4.021H21.611v2.011h8.042a4.029,4.029,0,0,0,3.933-3.19L46.844,47.25a1.993,1.993,0,0,1,.663,3.84L29.533,58.279l-18.98-2.847V46.637a.982.982,0,0,0,.069-.25,6.054,6.054,0,0,1,5.963-5.169ZM2.51,43.229H8.542v15.08H2.51Zm0,0" transform="translate(0 0)"/>
        <path id="Path_1036493" data-name="Path 1036493" d="M376.5,120h2.011v2.011H376.5Zm0,0" transform="translate(-328.751 -104.92)"/>
        <path id="Path_1036494" data-name="Path 1036494" d="M376.5,152h2.011v2.011H376.5Zm0,0" transform="translate(-328.751 -132.899)"/>
        <path id="Path_1036495" data-name="Path 1036495" d="M376.5,184h2.011v4.021H376.5Zm0,0" transform="translate(-328.751 -160.878)"/>
        <path id="Path_1036496" data-name="Path 1036496" d="M72.5,184h2.011v2.011H72.5Zm0,0" transform="translate(-62.953 -160.878)"/>
        <path id="Path_1036497" data-name="Path 1036497" d="M72.5,216h2.011v2.011H72.5Zm0,0" transform="translate(-62.953 -188.856)"/>
        <path id="Path_1036498" data-name="Path 1036498" d="M72.5,248h2.011v4.021H72.5Zm0,0" transform="translate(-62.953 -216.835)"/>
        <path id="Path_1036499" data-name="Path 1036499" d="M72.5,64h2.011v2.011H72.5Zm0,0" transform="translate(-62.953 -55.957)"/>
        <path id="Path_1036500" data-name="Path 1036500" d="M48.5,88h2.011v2.011H48.5Zm0,0" transform="translate(-41.969 -76.941)"/>
        <path id="Path_1036501" data-name="Path 1036501" d="M96.5,88h2.011v2.011H96.5Zm0,0" transform="translate(-83.937 -76.941)"/>
        <path id="Path_1036502" data-name="Path 1036502" d="M72.5,112h2.011v2.011H72.5Zm0,0" transform="translate(-62.953 -97.925)"/>
        <path id="Path_1036503" data-name="Path 1036503" d="M408.5,24h2.011v2.011H408.5Zm0,0" transform="translate(-356.73 -20.984)"/>
        <path id="Path_1036504" data-name="Path 1036504" d="M392.5,40h2.011v2.011H392.5Zm0,0" transform="translate(-342.74 -34.973)"/>
        <path id="Path_1036505" data-name="Path 1036505" d="M424.5,40h2.011v2.011H424.5Zm0,0" transform="translate(-370.719 -34.973)"/>
        <path id="Path_1036506" data-name="Path 1036506" d="M408.5,56h2.011v2.011H408.5Zm0,0" transform="translate(-356.73 -48.963)"/>
      </g>
    </g>
  </g>
</svg>
