<svg xmlns="http://www.w3.org/2000/svg" xmlns:xlink="http://www.w3.org/1999/xlink" width="113" height="113" viewBox="0 0 113 113">
  <defs>
    <filter id="Path_982547" x="0" y="0" width="113" height="113" filterUnits="userSpaceOnUse">
      <feOffset dy="3" input="SourceAlpha"/>
      <feGaussianBlur stdDeviation="3" result="blur"/>
      <feFlood flood-opacity="0.161"/>
      <feComposite operator="in" in2="blur"/>
      <feComposite in="SourceGraphic"/>
    </filter>
  </defs>
  <g id="Group_1177323" data-name="Group 1177323" transform="translate(-5285.49 -2365.273)">
    <g id="Group_1177268" data-name="Group 1177268">
      <g id="Group_1176930" data-name="Group 1176930" transform="translate(5294.49 2371.273)">
        <g id="Group_1172322" data-name="Group 1172322" transform="translate(0 0)">
          <g id="Group_1164700" data-name="Group 1164700">
            <g id="Group_1160931" data-name="Group 1160931">
              <g id="Group_1160749" data-name="Group 1160749">
                <g id="Group_1158891" data-name="Group 1158891">
                  <g id="Group_1157406" data-name="Group 1157406">
                    <g id="Group_1155793" data-name="Group 1155793">
                      <g id="Group_1154704" data-name="Group 1154704">
                        <g id="Group_1150790" data-name="Group 1150790">
                          <g id="Group_1154214" data-name="Group 1154214">
                            <g id="Group_1152583" data-name="Group 1152583">
                              <g id="Group_1146973" data-name="Group 1146973">
                                <g id="Group_1146954" data-name="Group 1146954">
                                  <g transform="matrix(1, 0, 0, 1, -9, -6)" filter="url(#Path_982547)">
                                    <g id="Path_982547-2" data-name="Path 982547" transform="translate(9 6)" fill="#f2f7e5">
                                      <path d="M 47.5000114440918 93.49987030029297 C 41.28938293457031 93.49987030029297 35.26534652709961 92.28384399414062 29.5951976776123 89.88558959960938 C 24.11773109436035 87.56881713867188 19.19814491271973 84.25183868408203 14.97310447692871 80.02680206298828 C 10.74805164337158 75.80176544189453 7.43107795715332 70.88218688964844 5.114304542541504 65.40472412109375 C 2.716038227081299 59.73458862304688 1.500011444091797 53.71054840087891 1.500011444091797 47.49993515014648 C 1.500011444091797 41.28932189941406 2.716038227081299 35.26528167724609 5.114304542541504 29.59514808654785 C 7.43107795715332 24.1176815032959 10.74805164337158 19.1981086730957 14.97310447692871 14.97306823730469 C 19.19814491271973 10.74802875518799 24.11773109436035 7.431055068969727 29.5951976776123 5.11428165435791 C 35.26534652709961 2.716028451919556 41.28938293457031 1.500001788139343 47.5000114440918 1.500001788139343 C 53.71063995361328 1.500001788139343 59.73467636108398 2.716028451919556 65.40482330322266 5.11428165435791 C 70.88229370117188 7.431055068969727 75.8018798828125 10.74802875518799 80.02691650390625 14.97306823730469 C 84.25196838378906 19.1981086730957 87.56894683837891 24.1176815032959 89.88571929931641 29.59514808654785 C 92.28398132324219 35.26528167724609 93.50001525878906 41.28932189941406 93.50001525878906 47.49993515014648 C 93.50001525878906 53.71054840087891 92.28398132324219 59.73458862304688 89.88571929931641 65.40472412109375 C 87.56894683837891 70.88218688964844 84.25196838378906 75.80176544189453 80.02691650390625 80.02680206298828 C 75.8018798828125 84.25183868408203 70.88229370117188 87.56881713867188 65.40482330322266 89.88558959960938 C 59.73467636108398 92.28384399414062 53.71063995361328 93.49987030029297 47.5000114440918 93.49987030029297 Z" stroke="none"/>
                                      <path d="M 47.5000114440918 3 C 41.49122619628906 3 35.66378021240234 4.1761474609375 30.17951965332031 6.495796203613281 C 24.880859375 8.7369384765625 20.12153625488281 11.94596862792969 16.03376770019531 16.03373718261719 C 11.94598388671875 20.12149047851562 8.736968994140625 24.88081359863281 6.495811462402344 30.17947387695312 C 4.176162719726562 35.66371917724609 3.000007629394531 41.49116516113281 3.000007629394531 47.49993515014648 C 3.000007629394531 53.50870513916016 4.176162719726562 59.33615112304688 6.495811462402344 64.82039642333984 C 8.736968994140625 70.11905670166016 11.94598388671875 74.87837982177734 16.03376770019531 78.96613311767578 C 20.12153625488281 83.05390167236328 24.880859375 86.26293182373047 30.17951965332031 88.50407409667969 C 35.66378021240234 90.82372283935547 41.49122619628906 91.99987030029297 47.5000114440918 91.99987030029297 C 53.50879669189453 91.99987030029297 59.33624267578125 90.82372283935547 64.82050323486328 88.50407409667969 C 70.11916351318359 86.26293182373047 74.87848663330078 83.05390167236328 78.96625518798828 78.96613311767578 C 83.05403900146484 74.87837982177734 86.2630615234375 70.11905670166016 88.50421142578125 64.82039642333984 C 90.82386016845703 59.33615112304688 92.00001525878906 53.50870513916016 92.00001525878906 47.49993515014648 C 92.00001525878906 41.49116516113281 90.82386016845703 35.66371917724609 88.50421142578125 30.17947387695312 C 86.2630615234375 24.88081359863281 83.05403900146484 20.12149047851562 78.96625518798828 16.03373718261719 C 74.87848663330078 11.94596862792969 70.11916351318359 8.7369384765625 64.82050323486328 6.495796203613281 C 59.33624267578125 4.1761474609375 53.50879669189453 3 47.5000114440918 3 M 47.5000114440918 0 C 73.73353576660156 0 95.00001525878906 21.26644134521484 95.00001525878906 47.49993515014648 C 95.00001525878906 73.73342895507812 73.73353576660156 94.99987030029297 47.5000114440918 94.99987030029297 C 21.26648712158203 94.99987030029297 7.62939453125e-06 73.73342895507812 7.62939453125e-06 47.49993515014648 C 7.62939453125e-06 21.26644134521484 21.26648712158203 0 47.5000114440918 0 Z" stroke="none" fill="#86b60c"/>
                                    </g>
                                  </g>
                                </g>
                              </g>
                            </g>
                          </g>
                        </g>
                      </g>
                    </g>
                  </g>
                </g>
              </g>
            </g>
          </g>
        </g>
      </g>
      <g id="budget_4784202" transform="translate(5308.627 2385.413)">
        <path id="Path_1036567" data-name="Path 1036567" d="M37,33.59,47.308,22.959,44.349,20l17,.742.742,17-2.959-2.959-11.7,11.7" transform="translate(1.59 0.818)" fill="#e8eaea"/>
        <path id="Path_1036568" data-name="Path 1036568" d="M17.657,46.481l-11.7-11.7L3,37.741l.742-17,17-.742-2.959,2.959L28.09,33.59" transform="translate(0.045 0.818)" fill="#e8eaea"/>
        <path id="Path_1036569" data-name="Path 1036569" d="M24.182,34.7V14.5H20L32.545,3,45.09,14.5H40.908V34.7" transform="translate(0.818 0.046)" fill="#71c967"/>
        <circle id="Ellipse_11865" data-name="Ellipse 11865" cx="15.681" cy="15.681" r="15.681" transform="translate(17.681 32.318)" fill="#f7c23c"/>
        <path id="Path_1036570" data-name="Path 1036570" d="M33.435,45.5H33.32V40.273h3.021a1.045,1.045,0,0,0,0-2.091H33.32V35.045a1.045,1.045,0,1,0-2.091,0v3.136h-.115a4.725,4.725,0,1,0,0,9.409h.115v5.227H28.208a1.045,1.045,0,0,0,0,2.091H31.23v3.136a1.045,1.045,0,0,0,2.091,0V54.908h.115a4.725,4.725,0,1,0,0-9.409Zm-2.321,0a2.844,2.844,0,0,1-3.021-2.614,2.844,2.844,0,0,1,3.021-2.614h.115V45.5Zm2.321,7.318H33.32V47.59h.115a2.645,2.645,0,1,1,0,5.227Z" transform="translate(1.088 1.454)"/>
        <path id="Path_1036571" data-name="Path 1036571" d="M62.979,20.515l-17-.742A1.045,1.045,0,0,0,45.2,21.56l2.227,2.216-4.652,4.652V15.591h3.136a1.051,1.051,0,0,0,.711-1.819L34.074,2.272a1.045,1.045,0,0,0-1.422,0l-12.545,11.5a1.051,1.051,0,0,0,.711,1.819h3.136V28.429L19.3,23.776l2.227-2.216a1.049,1.049,0,0,0-.826-1.788l-17,.742A1.045,1.045,0,0,0,2.659,21.56L2,38.517a1.045,1.045,0,0,0,1.788.784L6,37.074,16.636,47.727V48a16.727,16.727,0,1,0,33.453,0v-.272L60.721,37.074,62.938,39.3a1.045,1.045,0,0,0,1.788-.784l-.742-17a1.045,1.045,0,0,0-1-1ZM23.5,13.5l9.858-9.032L43.221,13.5H41.726a1.045,1.045,0,0,0-1.045,1.045V32.976a16.727,16.727,0,0,0-3.136-1.15V14.545a1.045,1.045,0,0,0-2.091,0V31.418a15.012,15.012,0,0,0-4.182,0V14.545a1.045,1.045,0,1,0-2.091,0V31.826a16.727,16.727,0,0,0-3.136,1.15V14.545A1.045,1.045,0,0,0,25,13.5ZM6.778,34.858a1.045,1.045,0,0,0-1.484,0L4.248,35.9l.585-13.35,13.35-.585-1.045,1.045a1.045,1.045,0,0,0,0,1.484l6.816,6.879v2.8A16.727,16.727,0,0,0,16.918,45.03ZM33.363,62.635A14.636,14.636,0,1,1,48,48,14.636,14.636,0,0,1,33.363,62.635Zm28.1-27.777a1.045,1.045,0,0,0-1.484,0L49.807,45.03a16.727,16.727,0,0,0-7.036-10.851v-2.8l6.868-6.858a1.045,1.045,0,0,0,0-1.484l-1.045-1.045,13.35.585.585,13.35Z" transform="translate(0)"/>
      </g>
    </g>
  </g>
</svg>
