<svg xmlns="http://www.w3.org/2000/svg" xmlns:xlink="http://www.w3.org/1999/xlink" width="113" height="113" viewBox="0 0 113 113">
  <defs>
    <filter id="Path_982547" x="0" y="0" width="113" height="113" filterUnits="userSpaceOnUse">
      <feOffset dy="3" input="SourceAlpha"/>
      <feGaussianBlur stdDeviation="3" result="blur"/>
      <feFlood flood-opacity="0.161"/>
      <feComposite operator="in" in2="blur"/>
      <feComposite in="SourceGraphic"/>
    </filter>
  </defs>
  <g id="Group_1177316" data-name="Group 1177316" transform="translate(-793.49 -1489.435)">
    <g id="Group_1177172" data-name="Group 1177172">
      <g id="Group_1176922" data-name="Group 1176922" transform="translate(802.49 1495.435)">
        <g id="Group_1172322" data-name="Group 1172322" transform="translate(0 0)">
          <g id="Group_1164700" data-name="Group 1164700">
            <g id="Group_1160931" data-name="Group 1160931">
              <g id="Group_1160749" data-name="Group 1160749">
                <g id="Group_1158891" data-name="Group 1158891">
                  <g id="Group_1157406" data-name="Group 1157406">
                    <g id="Group_1155793" data-name="Group 1155793">
                      <g id="Group_1154704" data-name="Group 1154704">
                        <g id="Group_1150790" data-name="Group 1150790">
                          <g id="Group_1154214" data-name="Group 1154214">
                            <g id="Group_1152583" data-name="Group 1152583">
                              <g id="Group_1146973" data-name="Group 1146973">
                                <g id="Group_1146954" data-name="Group 1146954">
                                  <g transform="matrix(1, 0, 0, 1, -9, -6)" filter="url(#Path_982547)">
                                    <g id="Path_982547-2" data-name="Path 982547" transform="translate(9 6)" fill="#f2f7e5">
                                      <path d="M 47.5000114440918 93.49987030029297 C 41.28938293457031 93.49987030029297 35.26534652709961 92.28384399414062 29.5951976776123 89.88558959960938 C 24.11773109436035 87.56881713867188 19.19814491271973 84.25183868408203 14.97310447692871 80.02680206298828 C 10.74805164337158 75.80176544189453 7.43107795715332 70.88218688964844 5.114304542541504 65.40472412109375 C 2.716038227081299 59.73458862304688 1.500011444091797 53.71054840087891 1.500011444091797 47.49993515014648 C 1.500011444091797 41.28932189941406 2.716038227081299 35.26528167724609 5.114304542541504 29.59514808654785 C 7.43107795715332 24.1176815032959 10.74805164337158 19.1981086730957 14.97310447692871 14.97306823730469 C 19.19814491271973 10.74802875518799 24.11773109436035 7.431055068969727 29.5951976776123 5.11428165435791 C 35.26534652709961 2.716028451919556 41.28938293457031 1.500001788139343 47.5000114440918 1.500001788139343 C 53.71063995361328 1.500001788139343 59.73467636108398 2.716028451919556 65.40482330322266 5.11428165435791 C 70.88229370117188 7.431055068969727 75.8018798828125 10.74802875518799 80.02691650390625 14.97306823730469 C 84.25196838378906 19.1981086730957 87.56894683837891 24.1176815032959 89.88571929931641 29.59514808654785 C 92.28398132324219 35.26528167724609 93.50001525878906 41.28932189941406 93.50001525878906 47.49993515014648 C 93.50001525878906 53.71054840087891 92.28398132324219 59.73458862304688 89.88571929931641 65.40472412109375 C 87.56894683837891 70.88218688964844 84.25196838378906 75.80176544189453 80.02691650390625 80.02680206298828 C 75.8018798828125 84.25183868408203 70.88229370117188 87.56881713867188 65.40482330322266 89.88558959960938 C 59.73467636108398 92.28384399414062 53.71063995361328 93.49987030029297 47.5000114440918 93.49987030029297 Z" stroke="none"/>
                                      <path d="M 47.5000114440918 3 C 41.49122619628906 3 35.66378021240234 4.1761474609375 30.17951965332031 6.495796203613281 C 24.880859375 8.7369384765625 20.12153625488281 11.94596862792969 16.03376770019531 16.03373718261719 C 11.94598388671875 20.12149047851562 8.736968994140625 24.88081359863281 6.495811462402344 30.17947387695312 C 4.176162719726562 35.66371917724609 3.000007629394531 41.49116516113281 3.000007629394531 47.49993515014648 C 3.000007629394531 53.50870513916016 4.176162719726562 59.33615112304688 6.495811462402344 64.82039642333984 C 8.736968994140625 70.11905670166016 11.94598388671875 74.87837982177734 16.03376770019531 78.96613311767578 C 20.12153625488281 83.05390167236328 24.880859375 86.26293182373047 30.17951965332031 88.50407409667969 C 35.66378021240234 90.82372283935547 41.49122619628906 91.99987030029297 47.5000114440918 91.99987030029297 C 53.50879669189453 91.99987030029297 59.33624267578125 90.82372283935547 64.82050323486328 88.50407409667969 C 70.11916351318359 86.26293182373047 74.87848663330078 83.05390167236328 78.96625518798828 78.96613311767578 C 83.05403900146484 74.87837982177734 86.2630615234375 70.11905670166016 88.50421142578125 64.82039642333984 C 90.82386016845703 59.33615112304688 92.00001525878906 53.50870513916016 92.00001525878906 47.49993515014648 C 92.00001525878906 41.49116516113281 90.82386016845703 35.66371917724609 88.50421142578125 30.17947387695312 C 86.2630615234375 24.88081359863281 83.05403900146484 20.12149047851562 78.96625518798828 16.03373718261719 C 74.87848663330078 11.94596862792969 70.11916351318359 8.7369384765625 64.82050323486328 6.495796203613281 C 59.33624267578125 4.1761474609375 53.50879669189453 3 47.5000114440918 3 M 47.5000114440918 0 C 73.73353576660156 0 95.00001525878906 21.26644134521484 95.00001525878906 47.49993515014648 C 95.00001525878906 73.73342895507812 73.73353576660156 94.99987030029297 47.5000114440918 94.99987030029297 C 21.26648712158203 94.99987030029297 7.62939453125e-06 73.73342895507812 7.62939453125e-06 47.49993515014648 C 7.62939453125e-06 21.26644134521484 21.26648712158203 0 47.5000114440918 0 Z" stroke="none" fill="#86b60c"/>
                                    </g>
                                  </g>
                                </g>
                              </g>
                            </g>
                          </g>
                        </g>
                      </g>
                    </g>
                  </g>
                </g>
              </g>
            </g>
          </g>
        </g>
      </g>
      <g id="market-trends_18096425" transform="translate(813.9 1511.223)">
        <g id="Group_1177171" data-name="Group 1177171" transform="translate(11.002 15.412)">
          <g id="Group_1177159" data-name="Group 1177159" transform="translate(5.658 8.711)">
            <path id="Path_1036396" data-name="Path 1036396" d="M105.134,193.874h10.925V210.7H105.134Z" transform="translate(-105.134 -193.874)" fill="#94e368" fill-rule="evenodd"/>
          </g>
          <g id="Group_1177160" data-name="Group 1177160" transform="translate(14.186 8.711)">
            <path id="Path_1036397" data-name="Path 1036397" d="M174.95,193.874h2.4V210.7h-2.4Z" transform="translate(-174.95 -193.874)" fill="#61ce5b" fill-rule="evenodd"/>
          </g>
          <g id="Group_1177161" data-name="Group 1177161" transform="translate(37.332)">
            <path id="Path_1036398" data-name="Path 1036398" d="M364.424,122.569h10.925V148.1H364.424Z" transform="translate(-364.424 -122.569)" fill="#14cfff" fill-rule="evenodd"/>
          </g>
          <g id="Group_1177162" data-name="Group 1177162" transform="translate(45.864)">
            <path id="Path_1036399" data-name="Path 1036399" d="M434.268,122.569h2.393V148.1h-2.393Z" transform="translate(-434.268 -122.569)" fill="#28abfa" fill-rule="evenodd"/>
          </g>
          <g id="Group_1177163" data-name="Group 1177163" transform="translate(21.493 4.901)">
            <path id="Path_1036400" data-name="Path 1036400" d="M234.765,162.685h10.928V183.32H234.765Z" transform="translate(-234.765 -162.685)" fill="#9255e3" fill-rule="evenodd"/>
          </g>
          <g id="Group_1177164" data-name="Group 1177164" transform="translate(0 17.744)">
            <path id="Path_1036401" data-name="Path 1036401" d="M58.819,267.823h24.22a1.128,1.128,0,0,1,.956.538,1.485,1.485,0,0,1,.205,1.195L80.949,283.2H63.073Z" transform="translate(-58.819 -267.823)" fill="#fedb41" fill-rule="evenodd"/>
          </g>
          <g id="Group_1177165" data-name="Group 1177165" transform="translate(6.408 41.411)">
            <path id="Path_1036402" data-name="Path 1036402" d="M113.848,466.71a2.571,2.571,0,1,0-2.571-2.571A2.576,2.576,0,0,0,113.848,466.71Z" transform="translate(-111.277 -461.567)" fill="#445a64" fill-rule="evenodd"/>
          </g>
          <g id="Group_1177166" data-name="Group 1177166" transform="translate(16.021 41.411)">
            <path id="Path_1036403" data-name="Path 1036403" d="M192.541,466.71a2.571,2.571,0,1,0-2.575-2.571A2.578,2.578,0,0,0,192.541,466.71Z" transform="translate(-189.966 -461.567)" fill="#445a64" fill-rule="evenodd"/>
          </g>
          <g id="Group_1177167" data-name="Group 1177167" transform="translate(30.025 4.901)">
            <path id="Path_1036404" data-name="Path 1036404" d="M304.609,162.685h2.4V183.32h-2.4Z" transform="translate(-304.609 -162.685)" fill="#793bcc" fill-rule="evenodd"/>
          </g>
          <g id="Group_1177168" data-name="Group 1177168" transform="translate(18.744 17.744)">
            <path id="Path_1036405" data-name="Path 1036405" d="M214.346,267.823h3.386a1.128,1.128,0,0,1,.956.538,1.485,1.485,0,0,1,.205,1.195L215.642,283.2h-3.386l3.248-13.648a1.485,1.485,0,0,0-.205-1.195A1.127,1.127,0,0,0,214.346,267.823Z" transform="translate(-212.256 -267.823)" fill="#f99608" fill-rule="evenodd"/>
          </g>
          <g id="Group_1177169" data-name="Group 1177169" transform="translate(28.171 21.009)">
            <path id="Path_1036406" data-name="Path 1036406" d="M302.2,320.095a12.773,12.773,0,1,0-12.776-12.773A12.8,12.8,0,0,0,302.2,320.095Z" transform="translate(-289.428 -294.549)" fill="#f99608" fill-rule="evenodd"/>
          </g>
          <g id="Group_1177170" data-name="Group 1177170" transform="translate(31.961 24.795)">
            <path id="Path_1036407" data-name="Path 1036407" d="M329.438,343.518a8.986,8.986,0,1,0-8.986-8.986A9,9,0,0,0,329.438,343.518Z" transform="translate(-320.452 -325.545)" fill="#ffd039" fill-rule="evenodd"/>
          </g>
        </g>
        <path id="Path_1036408" data-name="Path 1036408" d="M48.151,13.411H59.369a.854.854,0,0,1,.854.854V34.633a.854.854,0,1,1-1.707,0V15.118H49v18.1a.854.854,0,1,1-1.707,0V14.265a.853.853,0,0,1,.853-.854ZM33.443,52.663a.854.854,0,0,1-.854.854H15.358a.854.854,0,0,1-.825-.633L13.359,48.5,8.194,29.813H5.2a.854.854,0,0,1,0-1.707H8.844a.854.854,0,0,1,.823.626l.8,2.9h4.3V23.212a.854.854,0,0,1,.854-.854H26.842a.854.854,0,0,1,.854.854V31.63h3.338V19.3a.854.854,0,0,1,.854-.854H43.105a.854.854,0,0,1,.854.854V35.363a.854.854,0,1,1-1.707,0V20.15H32.741V31.63h1.946a2.007,2.007,0,0,1,1.691.941,2.37,2.37,0,0,1,.328,1.89l-1.231,5.173h2.612a.854.854,0,0,1,0,1.707H35.069l-1.7,7.134a.854.854,0,0,1-.83.656H15.3l.718,2.678H32.589a.854.854,0,0,1,.854.854ZM16.478,31.63h9.511V24.066H16.478ZM10.94,33.338l3.893,14.086H31.866l3.179-13.358a.669.669,0,0,0-.088-.549c-.118-.18-.217-.18-.27-.18H10.94ZM22.533,59.429a3.494,3.494,0,1,1-3.494-3.494A3.5,3.5,0,0,1,22.533,59.429Zm-1.707,0a1.787,1.787,0,1,0-1.787,1.787A1.789,1.789,0,0,0,20.825,59.429Zm11.577,0a3.494,3.494,0,1,1-3.494-3.494A3.5,3.5,0,0,1,32.4,59.429Zm-1.707,0a1.787,1.787,0,1,0-1.787,1.787A1.789,1.789,0,0,0,30.7,59.429ZM65.831,48.951A13.97,13.97,0,1,1,51.859,34.982,13.988,13.988,0,0,1,65.831,48.951Zm-1.707,0A12.263,12.263,0,1,0,51.859,61.216,12.277,12.277,0,0,0,64.124,48.951Zm-2.184,0A10.079,10.079,0,1,1,51.859,38.874,10.092,10.092,0,0,1,61.94,48.951Zm-1.707,0a8.372,8.372,0,1,0-8.373,8.373,8.381,8.381,0,0,0,8.373-8.373Zm-7.52-3.3v2.526a2.923,2.923,0,0,1,0,5.846V55.14a.854.854,0,1,1-1.707,0V54.016A3.224,3.224,0,0,1,48.137,51.1a.854.854,0,1,1,1.707,0c0,.5.488.946,1.161,1.16V49.728a3.176,3.176,0,0,1-2.868-2.919,3.224,3.224,0,0,1,2.868-2.919V42.765a.854.854,0,1,1,1.707,0v1.121a3.18,3.18,0,0,1,2.872,2.923.854.854,0,1,1-1.707,0c0-.5-.49-.946-1.165-1.16Zm-1.707,2.317V45.649c-.673.214-1.161.665-1.161,1.16S50.332,47.751,51.005,47.965Zm1.707,1.972v2.321c.675-.214,1.165-.665,1.165-1.16s-.49-.946-1.165-1.16ZM8.685,16.8a2.82,2.82,0,0,1,5.508-.854H21.03A2.817,2.817,0,0,1,25.016,14.3l2.541-2.541a2.819,2.819,0,1,1,5.19-2.152H39a2.818,2.818,0,0,1,4.586-1.23l7.709-4.449a2.827,2.827,0,1,1,.855,1.478L44.439,9.854A2.82,2.82,0,0,1,39,11.313h-6.25a2.817,2.817,0,0,1-3.981,1.651l-2.543,2.543a2.819,2.819,0,1,1-5.192,2.147H14.192A2.82,2.82,0,0,1,8.685,16.8ZM52.934,3.323a1.1,1.1,0,0,0,.132.525c.006.01.013.02.019.03l.009.018a1.113,1.113,0,1,0-.161-.572ZM40.572,10.46a1.113,1.113,0,1,0,1.113-1.113A1.114,1.114,0,0,0,40.572,10.46Zm-11.625,0A1.113,1.113,0,1,0,30.06,9.347,1.114,1.114,0,0,0,28.947,10.46ZM22.605,16.8a1.113,1.113,0,1,0,1.113-1.113A1.114,1.114,0,0,0,22.605,16.8Zm-12.213,0A1.113,1.113,0,1,0,11.5,15.688,1.114,1.114,0,0,0,10.392,16.8Z"/>
      </g>
    </g>
  </g>
</svg>
