<svg xmlns="http://www.w3.org/2000/svg" xmlns:xlink="http://www.w3.org/1999/xlink" width="113" height="113" viewBox="0 0 113 113">
  <defs>
    <filter id="Path_982547" x="0" y="0" width="113" height="113" filterUnits="userSpaceOnUse">
      <feOffset dy="3" input="SourceAlpha"/>
      <feGaussianBlur stdDeviation="3" result="blur"/>
      <feFlood flood-opacity="0.161"/>
      <feComposite operator="in" in2="blur"/>
      <feComposite in="SourceGraphic"/>
    </filter>
  </defs>
  <g id="Group_1177318" data-name="Group 1177318" transform="translate(-4968.49 -1476.273)">
    <g id="Group_1177207" data-name="Group 1177207">
      <g id="Group_1176925" data-name="Group 1176925" transform="translate(4977.49 1482.273)">
        <g id="Group_1172322" data-name="Group 1172322" transform="translate(0 0)">
          <g id="Group_1164700" data-name="Group 1164700">
            <g id="Group_1160931" data-name="Group 1160931">
              <g id="Group_1160749" data-name="Group 1160749">
                <g id="Group_1158891" data-name="Group 1158891">
                  <g id="Group_1157406" data-name="Group 1157406">
                    <g id="Group_1155793" data-name="Group 1155793">
                      <g id="Group_1154704" data-name="Group 1154704">
                        <g id="Group_1150790" data-name="Group 1150790">
                          <g id="Group_1154214" data-name="Group 1154214">
                            <g id="Group_1152583" data-name="Group 1152583">
                              <g id="Group_1146973" data-name="Group 1146973">
                                <g id="Group_1146954" data-name="Group 1146954">
                                  <g transform="matrix(1, 0, 0, 1, -9, -6)" filter="url(#Path_982547)">
                                    <g id="Path_982547-2" data-name="Path 982547" transform="translate(9 6)" fill="#f2f7e5">
                                      <path d="M 47.5000114440918 93.49987030029297 C 41.28938293457031 93.49987030029297 35.26534652709961 92.28384399414062 29.5951976776123 89.88558959960938 C 24.11773109436035 87.56881713867188 19.19814491271973 84.25183868408203 14.97310447692871 80.02680206298828 C 10.74805164337158 75.80176544189453 7.43107795715332 70.88218688964844 5.114304542541504 65.40472412109375 C 2.716038227081299 59.73458862304688 1.500011444091797 53.71054840087891 1.500011444091797 47.49993515014648 C 1.500011444091797 41.28932189941406 2.716038227081299 35.26528167724609 5.114304542541504 29.59514808654785 C 7.43107795715332 24.1176815032959 10.74805164337158 19.1981086730957 14.97310447692871 14.97306823730469 C 19.19814491271973 10.74802875518799 24.11773109436035 7.431055068969727 29.5951976776123 5.11428165435791 C 35.26534652709961 2.716028451919556 41.28938293457031 1.500001788139343 47.5000114440918 1.500001788139343 C 53.71063995361328 1.500001788139343 59.73467636108398 2.716028451919556 65.40482330322266 5.11428165435791 C 70.88229370117188 7.431055068969727 75.8018798828125 10.74802875518799 80.02691650390625 14.97306823730469 C 84.25196838378906 19.1981086730957 87.56894683837891 24.1176815032959 89.88571929931641 29.59514808654785 C 92.28398132324219 35.26528167724609 93.50001525878906 41.28932189941406 93.50001525878906 47.49993515014648 C 93.50001525878906 53.71054840087891 92.28398132324219 59.73458862304688 89.88571929931641 65.40472412109375 C 87.56894683837891 70.88218688964844 84.25196838378906 75.80176544189453 80.02691650390625 80.02680206298828 C 75.8018798828125 84.25183868408203 70.88229370117188 87.56881713867188 65.40482330322266 89.88558959960938 C 59.73467636108398 92.28384399414062 53.71063995361328 93.49987030029297 47.5000114440918 93.49987030029297 Z" stroke="none"/>
                                      <path d="M 47.5000114440918 3 C 41.49122619628906 3 35.66378021240234 4.1761474609375 30.17951965332031 6.495796203613281 C 24.880859375 8.7369384765625 20.12153625488281 11.94596862792969 16.03376770019531 16.03373718261719 C 11.94598388671875 20.12149047851562 8.736968994140625 24.88081359863281 6.495811462402344 30.17947387695312 C 4.176162719726562 35.66371917724609 3.000007629394531 41.49116516113281 3.000007629394531 47.49993515014648 C 3.000007629394531 53.50870513916016 4.176162719726562 59.33615112304688 6.495811462402344 64.82039642333984 C 8.736968994140625 70.11905670166016 11.94598388671875 74.87837982177734 16.03376770019531 78.96613311767578 C 20.12153625488281 83.05390167236328 24.880859375 86.26293182373047 30.17951965332031 88.50407409667969 C 35.66378021240234 90.82372283935547 41.49122619628906 91.99987030029297 47.5000114440918 91.99987030029297 C 53.50879669189453 91.99987030029297 59.33624267578125 90.82372283935547 64.82050323486328 88.50407409667969 C 70.11916351318359 86.26293182373047 74.87848663330078 83.05390167236328 78.96625518798828 78.96613311767578 C 83.05403900146484 74.87837982177734 86.2630615234375 70.11905670166016 88.50421142578125 64.82039642333984 C 90.82386016845703 59.33615112304688 92.00001525878906 53.50870513916016 92.00001525878906 47.49993515014648 C 92.00001525878906 41.49116516113281 90.82386016845703 35.66371917724609 88.50421142578125 30.17947387695312 C 86.2630615234375 24.88081359863281 83.05403900146484 20.12149047851562 78.96625518798828 16.03373718261719 C 74.87848663330078 11.94596862792969 70.11916351318359 8.7369384765625 64.82050323486328 6.495796203613281 C 59.33624267578125 4.1761474609375 53.50879669189453 3 47.5000114440918 3 M 47.5000114440918 0 C 73.73353576660156 0 95.00001525878906 21.26644134521484 95.00001525878906 47.49993515014648 C 95.00001525878906 73.73342895507812 73.73353576660156 94.99987030029297 47.5000114440918 94.99987030029297 C 21.26648712158203 94.99987030029297 7.62939453125e-06 73.73342895507812 7.62939453125e-06 47.49993515014648 C 7.62939453125e-06 21.26644134521484 21.26648712158203 0 47.5000114440918 0 Z" stroke="none" fill="#86b60c"/>
                                    </g>
                                  </g>
                                </g>
                              </g>
                            </g>
                          </g>
                        </g>
                      </g>
                    </g>
                  </g>
                </g>
              </g>
            </g>
          </g>
        </g>
      </g>
      <g id="currency-exchange_6102091" transform="translate(4992 1497)">
        <g id="Group_1177201" data-name="Group 1177201">
          <g id="Group_1177197" data-name="Group 1177197">
            <g id="Group_1177196" data-name="Group 1177196">
              <g id="Group_1177190" data-name="Group 1177190">
                <g id="Group_1177182" data-name="Group 1177182">
                  <path id="Path_1036433" data-name="Path 1036433" d="M32.99,17.48A15.51,15.51,0,1,1,9.59,4.13a15.33,15.33,0,0,1,7.89-2.16A15.5,15.5,0,0,1,32.99,17.48Z" fill="#ffab03"/>
                </g>
                <g id="Group_1177183" data-name="Group 1177183" opacity="0.3">
                  <path id="Path_1036434" data-name="Path 1036434" d="M32.99,17.48a15.526,15.526,0,0,1-.64,4.44A15.519,15.519,0,0,1,9.59,4.14a15.33,15.33,0,0,1,7.89-2.16A15.49,15.49,0,0,1,32.99,17.48Z" fill="#fff"/>
                </g>
                <g id="Group_1177184" data-name="Group 1177184">
                  <path id="Path_1036435" data-name="Path 1036435" d="M17.49,33.97a16.486,16.486,0,1,1,14.4-8.47.969.969,0,1,1-1.69-.95,14.542,14.542,0,1,0-2.55,3.34A.969.969,0,1,1,29,29.28a16.42,16.42,0,0,1-11.51,4.69Z"/>
                </g>
                <g id="Group_1177185" data-name="Group 1177185">
                  <path id="Path_1036436" data-name="Path 1036436" d="M17.49,29.56A12.084,12.084,0,0,1,5.42,17.49a.97.97,0,0,1,1.94,0,10.1,10.1,0,1,0,.37-2.75.972.972,0,1,1-1.87-.53A12.072,12.072,0,1,1,17.49,29.56Z"/>
                </g>
                <g id="Group_1177189" data-name="Group 1177189">
                  <g id="Group_1177186" data-name="Group 1177186">
                    <path id="Path_1036437" data-name="Path 1036437" d="M17.49,23.34a3.414,3.414,0,0,1-3.41-3.41.97.97,0,0,1,1.94,0,1.47,1.47,0,1,0,1.47-1.47,3.41,3.41,0,1,1,3.41-3.41.97.97,0,1,1-1.94,0,1.47,1.47,0,1,0-1.47,1.47,3.41,3.41,0,0,1,0,6.82Z"/>
                  </g>
                  <g id="Group_1177187" data-name="Group 1177187">
                    <path id="Path_1036438" data-name="Path 1036438" d="M17.49,13.57a.965.965,0,0,1-.97-.97V10.91a.97.97,0,1,1,1.94,0V12.6a.984.984,0,0,1-.97.97Z"/>
                  </g>
                  <g id="Group_1177188" data-name="Group 1177188">
                    <path id="Path_1036439" data-name="Path 1036439" d="M17.49,25.03a.965.965,0,0,1-.97-.97V22.37a.97.97,0,1,1,1.94,0v1.69A.984.984,0,0,1,17.49,25.03Z"/>
                  </g>
                </g>
              </g>
              <g id="Group_1177195" data-name="Group 1177195">
                <g id="Group_1177191" data-name="Group 1177191">
                  <path id="Path_1036440" data-name="Path 1036440" d="M58.14,60.69a15.484,15.484,0,1,1,5.24-7.74,15.615,15.615,0,0,1-5.24,7.74" fill="#7ca444"/>
                </g>
                <g id="Group_1177192" data-name="Group 1177192" opacity="0.3">
                  <path id="Path_1036441" data-name="Path 1036441" d="M64.02,48.51a15.526,15.526,0,0,1-.64,4.44A15.519,15.519,0,0,1,40.62,35.17a15.33,15.33,0,0,1,7.89-2.16,15.5,15.5,0,0,1,15.51,15.5Z" fill="#fff"/>
                </g>
                <g id="Group_1177193" data-name="Group 1177193">
                  <path id="Path_1036442" data-name="Path 1036442" d="M48.51,65A16.481,16.481,0,1,1,62,58a.968.968,0,0,1-1.58-1.12,14.467,14.467,0,1,0-3.87,3.78.967.967,0,0,1,1.07,1.61A16.532,16.532,0,0,1,48.51,65Z"/>
                </g>
                <g id="Group_1177194" data-name="Group 1177194">
                  <path id="Path_1036443" data-name="Path 1036443" d="M48.51,60.59A12.07,12.07,0,1,1,60.58,48.52,12.084,12.084,0,0,1,48.51,60.59Zm0-22.21A10.13,10.13,0,1,0,58.64,48.51,10.142,10.142,0,0,0,48.51,38.38Z"/>
                </g>
              </g>
            </g>
          </g>
          <g id="Group_1177200" data-name="Group 1177200">
            <g id="Group_1177198" data-name="Group 1177198">
              <path id="Path_1036444" data-name="Path 1036444" d="M50.21,54.83a6.308,6.308,0,1,1,4.46-10.77.969.969,0,0,1-1.37,1.37,4.37,4.37,0,1,0-6.18,6.18,4.37,4.37,0,0,0,6.18,0,.969.969,0,0,1,1.37,1.37A6.28,6.28,0,0,1,50.21,54.83Z"/>
            </g>
            <g id="Group_1177199" data-name="Group 1177199">
              <path id="Path_1036445" data-name="Path 1036445" d="M49.1,49.49H43.05a.97.97,0,0,1,0-1.94H49.1a.97.97,0,0,1,0,1.94Z"/>
            </g>
          </g>
        </g>
        <g id="Group_1177206" data-name="Group 1177206">
          <g id="Group_1177202" data-name="Group 1177202">
            <path id="Path_1036446" data-name="Path 1036446" d="M17.03,43.97H13.84A12.792,12.792,0,0,0,25.43,56.54v4.81A17.567,17.567,0,0,1,9.04,43.96H5.84l5.6-8.36Z" fill="#4e6575"/>
          </g>
          <g id="Group_1177203" data-name="Group 1177203">
            <path id="Path_1036447" data-name="Path 1036447" d="M48.97,22.04h3.19A12.792,12.792,0,0,0,40.57,9.47V4.65A17.567,17.567,0,0,1,56.96,22.04h3.2l-5.6,8.36Z" fill="#4e6575"/>
          </g>
          <g id="Group_1177204" data-name="Group 1177204">
            <path id="Path_1036448" data-name="Path 1036448" d="M25.43,62.32h-.06A18.611,18.611,0,0,1,8.1,44.94H5.83a.985.985,0,0,1-.86-.51.971.971,0,0,1,.05-1l5.6-8.36a.966.966,0,0,1,.81-.43.979.979,0,0,1,.81.43l5.6,8.36a.969.969,0,0,1-.81,1.51H14.86A11.765,11.765,0,0,0,25.52,55.58a.969.969,0,0,1,.88.97v4.81a.97.97,0,0,1-.31.71,1,1,0,0,1-.66.25ZM7.65,43H9.04a.96.96,0,0,1,.96.96A16.668,16.668,0,0,0,24.46,60.28V57.39A13.7,13.7,0,0,1,12.87,43.97a.976.976,0,0,1,.28-.69.952.952,0,0,1,.68-.28h1.38l-3.78-5.65Z"/>
          </g>
          <g id="Group_1177205" data-name="Group 1177205">
            <path id="Path_1036449" data-name="Path 1036449" d="M54.57,31.36a.979.979,0,0,1-.81-.43l-5.6-8.36a.969.969,0,0,1,.81-1.51h2.17A11.765,11.765,0,0,0,40.48,10.42a.969.969,0,0,1-.88-.97V4.65a.97.97,0,0,1,.31-.71.984.984,0,0,1,.73-.26A18.627,18.627,0,0,1,57.91,21.06h2.27a.985.985,0,0,1,.86.51.972.972,0,0,1-.05,1l-5.6,8.36a1.024,1.024,0,0,1-.82.43Zm-3.78-8.35,3.78,5.65,3.78-5.65H56.96a.975.975,0,0,1-.97-.96A16.668,16.668,0,0,0,41.53,5.73V8.62A13.7,13.7,0,0,1,53.12,22.04a.973.973,0,0,1-.97.98H50.79Z"/>
          </g>
        </g>
      </g>
    </g>
  </g>
</svg>
