<svg xmlns="http://www.w3.org/2000/svg" xmlns:xlink="http://www.w3.org/1999/xlink" width="113" height="113" viewBox="0 0 113 113">
  <defs>
    <filter id="Path_982547" x="0" y="0" width="113" height="113" filterUnits="userSpaceOnUse">
      <feOffset dy="3" input="SourceAlpha"/>
      <feGaussianBlur stdDeviation="3" result="blur"/>
      <feFlood flood-opacity="0.161"/>
      <feComposite operator="in" in2="blur"/>
      <feComposite in="SourceGraphic"/>
    </filter>
  </defs>
  <g id="Group_1177319" data-name="Group 1177319" transform="translate(-5285.49 -1476.273)">
    <g id="Group_1177209" data-name="Group 1177209">
      <g id="Group_1176926" data-name="Group 1176926" transform="translate(5294.49 1482.273)">
        <g id="Group_1172322" data-name="Group 1172322" transform="translate(0 0)">
          <g id="Group_1164700" data-name="Group 1164700">
            <g id="Group_1160931" data-name="Group 1160931">
              <g id="Group_1160749" data-name="Group 1160749">
                <g id="Group_1158891" data-name="Group 1158891">
                  <g id="Group_1157406" data-name="Group 1157406">
                    <g id="Group_1155793" data-name="Group 1155793">
                      <g id="Group_1154704" data-name="Group 1154704">
                        <g id="Group_1150790" data-name="Group 1150790">
                          <g id="Group_1154214" data-name="Group 1154214">
                            <g id="Group_1152583" data-name="Group 1152583">
                              <g id="Group_1146973" data-name="Group 1146973">
                                <g id="Group_1146954" data-name="Group 1146954">
                                  <g transform="matrix(1, 0, 0, 1, -9, -6)" filter="url(#Path_982547)">
                                    <g id="Path_982547-2" data-name="Path 982547" transform="translate(9 6)" fill="#f2f7e5">
                                      <path d="M 47.5000114440918 93.49987030029297 C 41.28938293457031 93.49987030029297 35.26534652709961 92.28384399414062 29.5951976776123 89.88558959960938 C 24.11773109436035 87.56881713867188 19.19814491271973 84.25183868408203 14.97310447692871 80.02680206298828 C 10.74805164337158 75.80176544189453 7.43107795715332 70.88218688964844 5.114304542541504 65.40472412109375 C 2.716038227081299 59.73458862304688 1.500011444091797 53.71054840087891 1.500011444091797 47.49993515014648 C 1.500011444091797 41.28932189941406 2.716038227081299 35.26528167724609 5.114304542541504 29.59514808654785 C 7.43107795715332 24.1176815032959 10.74805164337158 19.1981086730957 14.97310447692871 14.97306823730469 C 19.19814491271973 10.74802875518799 24.11773109436035 7.431055068969727 29.5951976776123 5.11428165435791 C 35.26534652709961 2.716028451919556 41.28938293457031 1.500001788139343 47.5000114440918 1.500001788139343 C 53.71063995361328 1.500001788139343 59.73467636108398 2.716028451919556 65.40482330322266 5.11428165435791 C 70.88229370117188 7.431055068969727 75.8018798828125 10.74802875518799 80.02691650390625 14.97306823730469 C 84.25196838378906 19.1981086730957 87.56894683837891 24.1176815032959 89.88571929931641 29.59514808654785 C 92.28398132324219 35.26528167724609 93.50001525878906 41.28932189941406 93.50001525878906 47.49993515014648 C 93.50001525878906 53.71054840087891 92.28398132324219 59.73458862304688 89.88571929931641 65.40472412109375 C 87.56894683837891 70.88218688964844 84.25196838378906 75.80176544189453 80.02691650390625 80.02680206298828 C 75.8018798828125 84.25183868408203 70.88229370117188 87.56881713867188 65.40482330322266 89.88558959960938 C 59.73467636108398 92.28384399414062 53.71063995361328 93.49987030029297 47.5000114440918 93.49987030029297 Z" stroke="none"/>
                                      <path d="M 47.5000114440918 3 C 41.49122619628906 3 35.66378021240234 4.1761474609375 30.17951965332031 6.495796203613281 C 24.880859375 8.7369384765625 20.12153625488281 11.94596862792969 16.03376770019531 16.03373718261719 C 11.94598388671875 20.12149047851562 8.736968994140625 24.88081359863281 6.495811462402344 30.17947387695312 C 4.176162719726562 35.66371917724609 3.000007629394531 41.49116516113281 3.000007629394531 47.49993515014648 C 3.000007629394531 53.50870513916016 4.176162719726562 59.33615112304688 6.495811462402344 64.82039642333984 C 8.736968994140625 70.11905670166016 11.94598388671875 74.87837982177734 16.03376770019531 78.96613311767578 C 20.12153625488281 83.05390167236328 24.880859375 86.26293182373047 30.17951965332031 88.50407409667969 C 35.66378021240234 90.82372283935547 41.49122619628906 91.99987030029297 47.5000114440918 91.99987030029297 C 53.50879669189453 91.99987030029297 59.33624267578125 90.82372283935547 64.82050323486328 88.50407409667969 C 70.11916351318359 86.26293182373047 74.87848663330078 83.05390167236328 78.96625518798828 78.96613311767578 C 83.05403900146484 74.87837982177734 86.2630615234375 70.11905670166016 88.50421142578125 64.82039642333984 C 90.82386016845703 59.33615112304688 92.00001525878906 53.50870513916016 92.00001525878906 47.49993515014648 C 92.00001525878906 41.49116516113281 90.82386016845703 35.66371917724609 88.50421142578125 30.17947387695312 C 86.2630615234375 24.88081359863281 83.05403900146484 20.12149047851562 78.96625518798828 16.03373718261719 C 74.87848663330078 11.94596862792969 70.11916351318359 8.7369384765625 64.82050323486328 6.495796203613281 C 59.33624267578125 4.1761474609375 53.50879669189453 3 47.5000114440918 3 M 47.5000114440918 0 C 73.73353576660156 0 95.00001525878906 21.26644134521484 95.00001525878906 47.49993515014648 C 95.00001525878906 73.73342895507812 73.73353576660156 94.99987030029297 47.5000114440918 94.99987030029297 C 21.26648712158203 94.99987030029297 7.62939453125e-06 73.73342895507812 7.62939453125e-06 47.49993515014648 C 7.62939453125e-06 21.26644134521484 21.26648712158203 0 47.5000114440918 0 Z" stroke="none" fill="#86b60c"/>
                                    </g>
                                  </g>
                                </g>
                              </g>
                            </g>
                          </g>
                        </g>
                      </g>
                    </g>
                  </g>
                </g>
              </g>
            </g>
          </g>
        </g>
      </g>
      <g id="value_9845033" transform="translate(5301.976 1491.932)">
        <path id="Path_1036450" data-name="Path 1036450" d="M112.67,231.31h9.952v18.621H112.67Z" transform="translate(-91.155 -194.654)" fill="#f37f80"/>
        <path id="Path_1036451" data-name="Path 1036451" d="M189.78,162.15H198.7V189.7H189.78Z" transform="translate(-158.312 -134.42)" fill="#ffd67a"/>
        <path id="Path_1036452" data-name="Path 1036452" d="M258.9,95.44h9.7V131.6h-9.7Z" transform="translate(-218.512 -76.32)" fill="#76b4e2"/>
        <g id="Group_1177208" data-name="Group 1177208" transform="translate(8.007 7.81)">
          <path id="Path_1036453" data-name="Path 1036453" d="M334.05,30.71h8.921V70.25l-8.921,4.971Z" transform="translate(-291.97 -27.754)" fill="#cef56a" fill-rule="evenodd"/>
          <path id="Path_1036454" data-name="Path 1036454" d="M123.27,291.158H96.951l-6.121-6.611,5.468-5.3c2.781-2.548,8.33-6.094,14.316-1.306a1.013,1.013,0,0,0,.638.225h7.239a4.138,4.138,0,0,1,2.7.99l.07.059a4.23,4.23,0,0,1,1.137,1.593,1.023,1.023,0,0,0,.116.351,2.539,2.539,0,0,1,.093.661,1.311,1.311,0,0,1-.395,1.016,2.441,2.441,0,0,1-1.649.472H109.067a1.02,1.02,0,1,0,0,2.04H120.56a4.33,4.33,0,0,0,3.029-1.009,3.357,3.357,0,0,0,1.056-2.521,4.343,4.343,0,0,0-.085-.852l7.411-7.2h0l.977-.949c1.337-1.093,4.7-3.052,8.713.469l-18.394,17.871Z" transform="translate(-80.141 -237.277)" fill="#f1d5ca" fill-rule="evenodd"/>
          <path id="Path_1036455" data-name="Path 1036455" d="M27.07,362.232l3.615-3.352,12.066,13.006L39.2,375.217Z" transform="translate(-24.61 -313.57)" fill="#a99eaa" fill-rule="evenodd"/>
          <path id="Path_1036456" data-name="Path 1036456" d="M94.293,432.488a.984.984,0,1,1,1.393-1.391l2.731,2.731a.984.984,0,0,1-1.393,1.391Z" transform="translate(-82.906 -376.214)" fill="#282828" fill-rule="evenodd"/>
          <path id="Path_1036457" data-name="Path 1036457" d="M71.734,55.182c-2.172-2.237-4.511-3.357-6.955-3.33a8.382,8.382,0,0,0-4.64,1.537V22.7a1.02,1.02,0,0,0-1.021-1.02H49.753a1.02,1.02,0,0,0-1.021,1.02v7.6H40.388a1.02,1.02,0,0,0-1.021,1.02v7.6H31.024A1.02,1.02,0,0,0,30,39.933v7.6H21.66a1.02,1.02,0,0,0-1.021,1.02V62.435L17.3,65.667l-2.417-2.606a1.02,1.02,0,0,0-1.442-.055L8.436,67.65a1.037,1.037,0,0,0-.15,1.538L21.777,83.629a1.12,1.12,0,0,0,1.522.046l4.986-4.669a1.022,1.022,0,0,0,.054-1.443l-1.627-1.754H51.551a1.018,1.018,0,0,0,.711-.289l19.451-18.9a1.021,1.021,0,0,0,.021-1.442ZM51.137,73.77H24.818L18.7,67.159l5.468-5.3c2.781-2.548,8.33-6.094,14.316-1.306a1.013,1.013,0,0,0,.638.225h7.239a4.25,4.25,0,0,1,3.9,2.642,1.023,1.023,0,0,0,.116.351,2.539,2.539,0,0,1,.093.661,1.311,1.311,0,0,1-.395,1.016,2.441,2.441,0,0,1-1.649.472H36.933a1.02,1.02,0,1,0,0,2.04H48.426a4.33,4.33,0,0,0,3.029-1.009,3.357,3.357,0,0,0,1.056-2.521,4.344,4.344,0,0,0-.085-.852l8.389-8.15c1.337-1.093,4.7-3.052,8.713.468L51.134,73.77ZM10.468,68.552,14.083,65.2,26.149,78.206,22.6,81.537ZM50.774,23.719H58.1V55.227l-6.524,6.338a6.365,6.365,0,0,0-.8-.967V23.719ZM22.68,49.572H30v6.8a15.682,15.682,0,0,0-7.324,4.084Zm9.365-8.618h7.324V58.662a11.569,11.569,0,0,0-7.324-2.526Zm9.365-8.618h7.324V59.219a6.117,6.117,0,0,0-2.373-.48H41.41v-26.4Z" transform="translate(-8.007 -19.89)" fill="#0b0a0a" fill-rule="evenodd"/>
          <path id="Path_1036458" data-name="Path 1036458" d="M47.311,34.32a9.253,9.253,0,0,1-8.781-9.454,9.255,9.255,0,0,1,8.781-9.456,9.457,9.457,0,0,1,0,18.909Z" transform="translate(-34.591 -14.429)" fill="#fcef96" fill-rule="evenodd"/>
          <path id="Path_1036459" data-name="Path 1036459" d="M84.924,38.695a1.164,1.164,0,0,0,1.158,1.243,1.147,1.147,0,0,0,1.162-1.16c0-.792-.21-.907-1.4-1.189-1.109-.263-2.966-.706-2.966-3.174a3.207,3.207,0,0,1,2.181-3.034V29.95a1.02,1.02,0,0,1,2.04,0v1.431a3.208,3.208,0,0,1,2.182,3.034,1.041,1.041,0,0,1-1.1,1.171,1.021,1.021,0,0,1-.946-1.091,1.161,1.161,0,1,0-2.319-.081c0,.792.212.906,1.4,1.189,1.109.265,2.966.706,2.966,3.174A3.207,3.207,0,0,1,87.1,41.81v1.43a1.02,1.02,0,0,1-2.04,0V41.81a3.208,3.208,0,0,1-2.181-3.034,1.041,1.041,0,0,1,1.1-1.171,1.02,1.02,0,0,1,.947,1.089Z" transform="translate(-73.217 -26.204)" fill="#0b0a0a" fill-rule="evenodd"/>
          <path id="Path_1036460" data-name="Path 1036460" d="M27.18,18.2A10.391,10.391,0,1,1,37.571,28.59,10.4,10.4,0,0,1,27.18,18.2Zm2.04,0a8.35,8.35,0,1,0,8.35-8.349A8.36,8.36,0,0,0,29.22,18.2Z" transform="translate(-24.706 -7.81)" fill="#0b0a0a" fill-rule="evenodd"/>
        </g>
      </g>
    </g>
  </g>
</svg>
