<svg xmlns="http://www.w3.org/2000/svg" xmlns:xlink="http://www.w3.org/1999/xlink" width="108" height="108" viewBox="0 0 108 108">
  <defs>
    <filter id="Path_904820" x="0" y="0" width="108" height="108" filterUnits="userSpaceOnUse">
      <feOffset dy="3" input="SourceAlpha"/>
      <feGaussianBlur stdDeviation="3" result="blur"/>
      <feFlood flood-opacity="0.161"/>
      <feComposite operator="in" in2="blur"/>
      <feComposite in="SourceGraphic"/>
    </filter>
  </defs>
  <g id="Group_1177358" data-name="Group 1177358" transform="translate(-620.001 -4949.874)">
    <g id="Group_1177290" data-name="Group 1177290">
      <g id="Group_1177108" data-name="Group 1177108" transform="translate(629.001 4955.874)">
        <g id="Group_1173585" data-name="Group 1173585" transform="translate(0 0)">
          <g id="Group_1173428" data-name="Group 1173428">
            <g id="Group_1171958" data-name="Group 1171958">
              <g id="Group_1167341" data-name="Group 1167341">
                <g id="Group_1166792" data-name="Group 1166792">
                  <g transform="matrix(1, 0, 0, 1, -9, -6)" filter="url(#Path_904820)">
                    <g id="Path_904820-2" data-name="Path 904820" transform="translate(9 6)" fill="#f2f7e5">
                      <path d="M 44.99996948242188 88.49999237060547 C 39.12684631347656 88.49999237060547 33.43020629882812 87.35006713867188 28.06828117370605 85.08216857910156 C 22.88850784301758 82.89130401611328 18.23629379272461 79.75457763671875 14.2408447265625 75.75914001464844 C 10.24540710449219 71.76369476318359 7.108694553375244 67.11146545410156 4.917831897735596 61.93169403076172 C 2.649931907653809 56.56976699829102 1.500007033348083 50.87311553955078 1.500007033348083 44.99999237060547 C 1.500007033348083 39.12686920166016 2.649931907653809 33.43021774291992 4.917831897735596 28.06829261779785 C 7.108694553375244 22.88851737976074 10.24540710449219 18.23630523681641 14.2408447265625 14.24085521697998 C 18.23629379272461 10.24540519714355 22.88850784301758 7.108692169189453 28.06828117370605 4.917829990386963 C 33.43020629882812 2.649929761886597 39.12684631347656 1.500004887580872 44.99996948242188 1.500004887580872 C 50.87309265136719 1.500004887580872 56.56973266601562 2.649929761886597 61.93165588378906 4.917829990386963 C 67.11143493652344 7.108692169189453 71.76365661621094 10.24540519714355 75.75909423828125 14.24085521697998 C 79.75454711914062 18.23630523681641 82.89125823974609 22.88851737976074 85.08212280273438 28.06829261779785 C 87.35002136230469 33.43021774291992 88.49994659423828 39.12686920166016 88.49994659423828 44.99999237060547 C 88.49994659423828 50.87311553955078 87.35002136230469 56.56976699829102 85.08212280273438 61.93169403076172 C 82.89125823974609 67.11146545410156 79.75454711914062 71.76369476318359 75.75909423828125 75.75914001464844 C 71.76364135742188 79.75457763671875 67.11143493652344 82.89130401611328 61.93165588378906 85.08216857910156 C 56.56973266601562 87.35006713867188 50.87309265136719 88.49999237060547 44.99996948242188 88.49999237060547 Z" stroke="none"/>
                      <path d="M 44.99996948242188 2.999992370605469 C 39.32868194580078 2.999992370605469 33.82863998413086 4.11004638671875 28.65261077880859 6.299331665039062 C 23.65164184570312 8.414566040039062 19.15968322753906 11.44333648681641 15.30149841308594 15.30150604248047 C 11.44332885742188 19.15967559814453 8.414566040039062 23.65164947509766 6.299324035644531 28.65262222290039 C 4.110054016113281 33.82864761352539 3 39.32870483398438 3 44.99999237060547 C 3 50.67127990722656 4.110054016113281 56.17132186889648 6.299324035644531 61.34736633300781 C 8.414566040039062 66.34833526611328 11.44332885742188 70.84029388427734 15.30149841308594 74.69846343994141 C 19.15968322753906 78.55663299560547 23.65164184570312 81.58540344238281 28.65261077880859 83.70063781738281 C 33.82863998413086 85.88992309570312 39.32868194580078 86.99997711181641 44.99996948242188 86.99997711181641 C 50.67125701904297 86.99997711181641 56.17129898071289 85.88992309570312 61.34732818603516 83.70063781738281 C 66.34829711914062 81.58540344238281 70.84025573730469 78.55663299560547 74.69844055175781 74.69846343994141 C 78.55661010742188 70.84029388427734 81.58537292480469 66.34833526611328 83.70061492919922 61.34736633300781 C 85.88988494873047 56.17132186889648 86.99993896484375 50.67127990722656 86.99993896484375 44.99999237060547 C 86.99993896484375 39.32870483398438 85.88988494873047 33.82864761352539 83.70061492919922 28.65262222290039 C 81.58537292480469 23.65164947509766 78.55661010742188 19.15967559814453 74.69844055175781 15.30150604248047 C 70.84025573730469 11.44333648681641 66.34829711914062 8.414566040039062 61.34732818603516 6.299331665039062 C 56.17129898071289 4.11004638671875 50.67125701904297 2.999992370605469 44.99996948242188 2.999992370605469 M 44.99996948242188 -7.62939453125e-06 C 69.85276794433594 -7.62939453125e-06 89.99993896484375 20.14717864990234 89.99993896484375 44.99999237060547 C 89.99993896484375 69.85279083251953 69.85276794433594 89.99997711181641 44.99996948242188 89.99997711181641 C 20.14717102050781 89.99997711181641 0 69.85279083251953 0 44.99999237060547 C 0 20.14717864990234 20.14717102050781 -7.62939453125e-06 44.99996948242188 -7.62939453125e-06 Z" stroke="none" fill="#86b60c"/>
                    </g>
                  </g>
                </g>
              </g>
            </g>
          </g>
        </g>
      </g>
      <g id="benefit_7871048" transform="translate(635.839 4962.715)">
        <g id="Group_1177289" data-name="Group 1177289" transform="translate(8.976 8.909)">
          <g id="Group_1177286" data-name="Group 1177286" transform="translate(31.532 10.606)">
            <path id="Path_1036612" data-name="Path 1036612" d="M303.823,146.833l-.018-11.951c0-2.243.293-4.351,1.959-5.852,1.857-1.674,5.233-4.209,7.832-7.282a2.873,2.873,0,0,1,3.974,0,2.78,2.78,0,0,1,0,3.974l.884-1.088A6.446,6.446,0,0,0,320,120.409l-.044-11.506c-.034-8.944,6.531-6.464,6.616-3.448l.6,21.181a6.617,6.617,0,0,1-2.025,5.018l-9.58,9.58v5.6a1.957,1.957,0,0,1-1.954,1.954h-7.838A1.958,1.958,0,0,1,303.823,146.833Z" transform="translate(-300.338 -102.687)" fill="#f6dccd" fill-rule="evenodd"/>
            <path id="Path_1036613" data-name="Path 1036613" d="M370.17,263.661a2.837,2.837,0,0,1-.418,3.46c-1.563,1.573-3.137,3.137-4.7,4.7a1.075,1.075,0,0,1-1.521-1.521Z" transform="translate(-352.521 -244.086)" fill="#f1cbbc" fill-rule="evenodd"/>
            <path id="Path_1036614" data-name="Path 1036614" d="M303.823,312.729l-.018-11.951c0-2.243.293-4.351,1.959-5.852.993-.9,2.422-2.038,3.933-3.377V314.68h-3.921a1.957,1.957,0,0,1-1.954-1.951Z" transform="translate(-300.338 -268.583)" fill="#f1cbbc" fill-rule="evenodd"/>
            <path id="Path_1036615" data-name="Path 1036615" d="M276.8,444.917l16.65.143a1.468,1.468,0,0,1,1.451,1.476l-.027,3.205a1.468,1.468,0,0,1-1.476,1.451l-16.65-.143a1.468,1.468,0,0,1-1.451-1.476l.028-3.205A1.468,1.468,0,0,1,276.8,444.917Z" transform="translate(-275.299 -403.3)" fill="#d1d1d6" fill-rule="evenodd"/>
            <path id="Path_1036616" data-name="Path 1036616" d="M288.049,446.158l2.947.025,2.914.025a1.468,1.468,0,0,1,1.451,1.471l.01-1.145a1.468,1.468,0,0,0-1.451-1.476L291,445.034l-5.871-.05-5.878-.05-1.977-.017a1.47,1.47,0,0,0-1.439,1.138l3.422.029,5.871.05,2.924.025Z" transform="translate(-275.766 -403.299)" fill="#b1b1b5" fill-rule="evenodd"/>
          </g>
          <g id="Group_1177287" data-name="Group 1177287" transform="translate(0 10.606)">
            <path id="Path_1036617" data-name="Path 1036617" d="M39.354,146.833l.018-11.951c0-2.243-.293-4.351-1.959-5.852-1.857-1.674-5.233-4.209-7.832-7.282a2.873,2.873,0,0,0-3.974,0,2.78,2.78,0,0,0,0,3.974l-.884-1.088a6.447,6.447,0,0,1-1.548-4.224l.044-11.506c.034-8.944-6.531-6.464-6.616-3.448L16,126.636a6.617,6.617,0,0,0,2.025,5.018l9.58,9.58v5.6a1.957,1.957,0,0,0,1.954,1.954H37.4A1.957,1.957,0,0,0,39.354,146.833Z" transform="translate(-16 -102.687)" fill="#f6dccd" fill-rule="evenodd"/>
            <path id="Path_1036618" data-name="Path 1036618" d="M88.569,263.661a2.837,2.837,0,0,0,.418,3.46c1.563,1.573,3.137,3.137,4.7,4.7a1.075,1.075,0,1,0,1.521-1.521Z" transform="translate(-79.38 -244.086)" fill="#f1cbbc" fill-rule="evenodd"/>
            <path id="Path_1036619" data-name="Path 1036619" d="M165.615,312.729l.018-11.951c0-2.243-.293-4.351-1.959-5.852-.993-.9-2.422-2.038-3.933-3.377V314.68h3.921a1.957,1.957,0,0,0,1.954-1.951Z" transform="translate(-142.262 -268.583)" fill="#f1cbbc" fill-rule="evenodd"/>
            <path id="Path_1036620" data-name="Path 1036620" d="M93.58,444.917l-16.65.143a1.468,1.468,0,0,0-1.451,1.476l.027,3.205a1.468,1.468,0,0,0,1.476,1.451l16.65-.143a1.468,1.468,0,0,0,1.451-1.476l-.027-3.205A1.469,1.469,0,0,0,93.58,444.917Z" transform="translate(-68.246 -403.3)" fill="#d1d1d6" fill-rule="evenodd"/>
            <path id="Path_1036621" data-name="Path 1036621" d="M82.8,446.158l-2.947.025-2.914.025a1.468,1.468,0,0,0-1.451,1.471l-.01-1.145a1.468,1.468,0,0,1,1.451-1.476l2.924-.025,5.871-.05,5.878-.05,1.977-.017a1.47,1.47,0,0,1,1.439,1.138l-3.422.029-5.871.05-2.924.025Z" transform="translate(-68.245 -403.299)" fill="#b1b1b5" fill-rule="evenodd"/>
          </g>
          <g id="Group_1177288" data-name="Group 1177288" transform="translate(12.546 0)">
            <path id="Path_1036622" data-name="Path 1036622" d="M139.122,18.229a14.2,14.2,0,0,1,4.158,1.724l2.7-1.2,3.185,3.185-1.2,2.7a14.2,14.2,0,0,1,1.724,4.159l2.757,1.061v4.5l-2.757,1.061a14.2,14.2,0,0,1-1.724,4.158l1.2,2.7-3.185,3.185-2.7-1.2a14.2,14.2,0,0,1-4.159,1.724l-1.061,2.757h-4.5L132.5,45.992a14.2,14.2,0,0,1-4.158-1.724l-2.7,1.2-3.185-3.185,1.2-2.7a14.2,14.2,0,0,1-1.724-4.159l-2.757-1.061v-4.5l2.757-1.061a14.2,14.2,0,0,1,1.724-4.159l-1.2-2.7,3.185-3.185,2.7,1.2a14.2,14.2,0,0,1,4.158-1.724l1.061-2.757h4.5Z" transform="translate(-119.17 -15.471)" fill="#a79ba7" fill-rule="evenodd"/>
            <path id="Path_1036623" data-name="Path 1036623" d="M189.144,19.128l.842-.374,3.185,3.184-1.2,2.7a14.2,14.2,0,0,1,1.724,4.159l2.757,1.061v4.5l-2.757,1.061a14.2,14.2,0,0,1-1.724,4.158l1.2,2.7-3.185,3.185-.842-.374,2.811-2.811-1.2-2.7a14.2,14.2,0,0,0,1.724-4.158l2.757-1.061v-4.5L192.479,28.8a14.2,14.2,0,0,0-1.724-4.159l1.2-2.7Zm-6.018-.9a14.2,14.2,0,0,1,4.087,1.681c.023.015.046.03.071.043l-.692.307a18.237,18.237,0,0,0-4.682-2.031l-1.061-2.757h1.216Zm-13.86.9.374-.374,2.7,1.2q-.265.148-.524.307Zm3.076,25.142-2.7,1.2-.374-.374,2.552-1.133q.259.159.524.307Zm14.944,0a14.2,14.2,0,0,1-4.159,1.724l-1.061,2.757h-1.216l1.061-2.757a18.23,18.23,0,0,0,4.683-2.032Z" transform="translate(-163.173 -15.473)" fill="#837683" fill-rule="evenodd"/>
            <circle id="Ellipse_11878" data-name="Ellipse 11878" cx="10.333" cy="10.333" r="10.333" transform="translate(2.023 16.641) rotate(-45)" fill="#ffe177"/>
            <path id="Path_1036624" data-name="Path 1036624" d="M181.358,67.329c.141,0,.282,0,.422.009a10.333,10.333,0,0,0,0,20.648c-.14.006-.28.009-.422.009a10.333,10.333,0,1,1,0-20.666Z" transform="translate(-164.719 -61.023)" fill="#ffd064" fill-rule="evenodd"/>
          </g>
        </g>
        <path id="Path_1036625" data-name="Path 1036625" d="M22.5,27.2l2.133.822a.97.97,0,0,1,.6.682,13.216,13.216,0,0,0,1.606,3.874.973.973,0,0,1,.061.9l-.929,2.092,2.24,2.24,2.092-.929a.973.973,0,0,1,.905.061,13.217,13.217,0,0,0,3.873,1.6.974.974,0,0,1,.683.6l.821,2.134h3.168l.821-2.133a.974.974,0,0,1,.683-.6,13.2,13.2,0,0,0,3.874-1.606.976.976,0,0,1,.905-.061l2.091.929,2.24-2.24-.929-2.092a.975.975,0,0,1,.061-.905A13.2,13.2,0,0,0,51.1,28.7a.975.975,0,0,1,.6-.682l2.134-.822V24.028l-2.133-.821a.974.974,0,0,1-.6-.682,13.2,13.2,0,0,0-1.606-3.874.974.974,0,0,1-.061-.9l.928-2.091-2.24-2.24-2.092.929a.97.97,0,0,1-.9-.061,13.233,13.233,0,0,0-3.873-1.6.975.975,0,0,1-.683-.6l-.821-2.134H36.578l-.821,2.134a.974.974,0,0,1-.683.6,13.231,13.231,0,0,0-3.873,1.6.97.97,0,0,1-.9.061L28.2,13.415l-2.24,2.24.929,2.091a.972.972,0,0,1-.061.9,13.2,13.2,0,0,0-1.606,3.874.974.974,0,0,1-.6.682L22.5,24.03Zm-1.946.669v-4.5a.971.971,0,0,1,.623-.907l2.289-.882a15.158,15.158,0,0,1,1.449-3.495l-1-2.243a.973.973,0,0,1,.2-1.083L27.3,11.567a.974.974,0,0,1,1.083-.2l2.243,1a15.14,15.14,0,0,1,3.494-1.448L35,8.625A.972.972,0,0,1,35.91,8h4.5a.972.972,0,0,1,.908.624l.881,2.288A15.156,15.156,0,0,1,45.7,12.361l2.243-1a.973.973,0,0,1,1.083.2l3.185,3.184a.973.973,0,0,1,.2,1.083l-1,2.243a15.15,15.15,0,0,1,1.449,3.495l2.288.882a.971.971,0,0,1,.623.907v4.5a.971.971,0,0,1-.623.907l-2.289.882a15.1,15.1,0,0,1-1.449,3.494l1,2.244a.973.973,0,0,1-.2,1.083l-3.184,3.184a.975.975,0,0,1-1.083.2l-2.243-1a15.134,15.134,0,0,1-3.5,1.448L41.322,42.6a.974.974,0,0,1-.908.624h-4.5A.973.973,0,0,1,35,42.6l-.881-2.289a15.106,15.106,0,0,1-3.495-1.449l-2.243,1a.974.974,0,0,1-1.083-.2l-3.185-3.184a.974.974,0,0,1-.2-1.083l1-2.242a15.121,15.121,0,0,1-1.449-3.5l-2.289-.882a.97.97,0,0,1-.623-.907Zm11.8,35.369a.993.993,0,1,0,1.29.556A.993.993,0,0,0,32.347,63.234Zm2.424,2.5a.494.494,0,0,1-.483.491l-16.606.143h0a.494.494,0,0,1-.487-.483l-.027-3.2a.492.492,0,0,1,.483-.491l16.606-.143h0a.492.492,0,0,1,.487.483ZM21.527,58.024a.973.973,0,0,0-.285-.688l-9.555-9.555a5.643,5.643,0,0,1-1.735-4.289l.6-21.124a2.216,2.216,0,0,1,2.2-1.816c1.55.025,2.468,1.978,2.456,5.223L15.16,37.251a7.366,7.366,0,0,0,1.761,4.83c.215.266.43.521.643.769.04.057,4.483,4.57,5,5.084a.973.973,0,1,0,1.376-1.377c-.525-.524-3.748-3.656-4.83-4.9a1.742,1.742,0,0,1,.138-2.381,1.878,1.878,0,0,1,2.579,0,51.5,51.5,0,0,0,6.169,5.853c.653.551,1.217,1.026,1.687,1.45,1.439,1.3,1.635,3.224,1.632,5.112L31.3,60.138l-9.774.084v-2.2Zm15.162,4.5.027,3.2A2.436,2.436,0,0,1,34.3,68.174L17.7,68.316h-.021a2.435,2.435,0,0,1-2.432-2.411l-.027-3.2a2.436,2.436,0,0,1,2.412-2.454l1.952-.017v-1.81l-9.27-9.27a7.619,7.619,0,0,1-2.3-5.719l.6-21.125a4.145,4.145,0,0,1,4.173-3.706c1.031.017,4.4.583,4.37,7.176l-.044,11.474a5.437,5.437,0,0,0,.168,1.394,4.077,4.077,0,0,1,.6-.749,3.849,3.849,0,0,1,5.3-.035.889.889,0,0,1,.091.095,49.71,49.71,0,0,0,5.984,5.676c.639.537,1.242,1.047,1.736,1.491,2.011,1.813,2.279,4.333,2.275,6.561l-.013,8.43.989-.009h.021a2.438,2.438,0,0,1,2.432,2.412Zm6.554,2.556a.993.993,0,1,0-.556-1.29.994.994,0,0,0,.556,1.29ZM54.8,60.221l-9.774-.084-.013-8.451c0-1.888.193-3.815,1.632-5.112.469-.424,1.034-.9,1.687-1.45A51.52,51.52,0,0,0,54.5,39.273a1.878,1.878,0,0,1,2.579,0,1.742,1.742,0,0,1,.139,2.381c-1.082,1.243-4.306,4.374-4.83,4.9a.973.973,0,0,0,1.376,1.377c.515-.516,4.958-5.027,5-5.084.214-.248.428-.5.643-.769a7.367,7.367,0,0,0,1.761-4.83L61.12,25.776c-.012-3.245.906-5.2,2.456-5.223a2.218,2.218,0,0,1,2.2,1.816l.6,21.124a5.643,5.643,0,0,1-1.735,4.289l-9.555,9.555a.973.973,0,0,0-.285.688v2.2ZM58.677,62.2a.492.492,0,0,1,.483.491l-.027,3.2a.49.49,0,0,1-.491.483l-16.606-.143a.494.494,0,0,1-.483-.491l.027-3.2a.494.494,0,0,1,.487-.483h0Zm-1.935-3.773v1.81l1.952.017a2.436,2.436,0,0,1,2.412,2.454l-.027,3.2a2.435,2.435,0,0,1-2.432,2.411h-.021l-16.606-.142a2.436,2.436,0,0,1-2.412-2.454l.028-3.2a2.435,2.435,0,0,1,2.432-2.411h.021l.989.009-.013-8.43c0-2.227.264-4.748,2.275-6.561.493-.444,1.1-.954,1.736-1.491a49.738,49.738,0,0,0,5.984-5.676.876.876,0,0,1,.091-.095,3.849,3.849,0,0,1,5.3.035,4.081,4.081,0,0,1,.6.749,5.437,5.437,0,0,0,.168-1.394l-.044-11.474c-.025-6.593,3.339-7.159,4.37-7.176a4.142,4.142,0,0,1,4.173,3.706l.6,21.125a7.615,7.615,0,0,1-2.3,5.719ZM29.4,25.613a8.761,8.761,0,1,1,8.761,8.761A8.771,8.771,0,0,1,29.4,25.613Zm-1.946,0A10.707,10.707,0,1,1,38.162,36.32,10.719,10.719,0,0,1,27.455,25.613Zm6.64,2.854A.973.973,0,1,1,35.983,28a2.146,2.146,0,0,0,2.283,1.426,2.648,2.648,0,0,0,1.832-.671.9.9,0,0,0,.2-.743c-.063-.52-.38-1.157-2.289-1.47-2.889-.474-3.563-1.984-3.621-3.168a3.354,3.354,0,0,1,2.8-3.4v-.517a.973.973,0,1,1,1.946,0v.508a3.838,3.838,0,0,1,2.79,2.318.973.973,0,1,1-1.794.753,2.1,2.1,0,0,0-2.491-1.168c-.227.051-1.355.36-1.3,1.411.013.28.05,1.023,1.993,1.343,2.384.392,3.7,1.453,3.9,3.156a2.826,2.826,0,0,1-.664,2.249,4.151,4.151,0,0,1-2.435,1.265v.484a.973.973,0,0,1-1.946,0v-.5A3.857,3.857,0,0,1,34.095,28.467Z" fill-rule="evenodd"/>
      </g>
    </g>
  </g>
</svg>
