<svg xmlns="http://www.w3.org/2000/svg" xmlns:xlink="http://www.w3.org/1999/xlink" width="108" height="108" viewBox="0 0 108 108">
  <defs>
    <filter id="Path_904820" x="0" y="0" width="108" height="108" filterUnits="userSpaceOnUse">
      <feOffset dy="3" input="SourceAlpha"/>
      <feGaussianBlur stdDeviation="3" result="blur"/>
      <feFlood flood-opacity="0.161"/>
      <feComposite operator="in" in2="blur"/>
      <feComposite in="SourceGraphic"/>
    </filter>
  </defs>
  <g id="Group_1177343" data-name="Group 1177343" transform="translate(-620 -474)">
    <g id="Group_1177092" data-name="Group 1177092" transform="translate(629 480)">
      <g id="Group_1173585" data-name="Group 1173585" transform="translate(0 0)">
        <g id="Group_1173428" data-name="Group 1173428">
          <g id="Group_1171958" data-name="Group 1171958">
            <g id="Group_1167341" data-name="Group 1167341">
              <g id="Group_1166792" data-name="Group 1166792">
                <g transform="matrix(1, 0, 0, 1, -9, -6)" filter="url(#Path_904820)">
                  <g id="Path_904820-2" data-name="Path 904820" transform="translate(9 6)" fill="#e9f9fd">
                    <path d="M 44.99996948242188 88.49999237060547 C 39.12684631347656 88.49999237060547 33.43020629882812 87.35006713867188 28.06828117370605 85.08216857910156 C 22.88850784301758 82.89130401611328 18.23629379272461 79.75457763671875 14.2408447265625 75.75914001464844 C 10.24540710449219 71.76369476318359 7.108694553375244 67.11146545410156 4.917831897735596 61.93169403076172 C 2.649931907653809 56.56976699829102 1.500007033348083 50.87311553955078 1.500007033348083 44.99999237060547 C 1.500007033348083 39.12686920166016 2.649931907653809 33.43021774291992 4.917831897735596 28.06829261779785 C 7.108694553375244 22.88851737976074 10.24540710449219 18.23630523681641 14.2408447265625 14.24085521697998 C 18.23629379272461 10.24540519714355 22.88850784301758 7.108692169189453 28.06828117370605 4.917829990386963 C 33.43020629882812 2.649929761886597 39.12684631347656 1.500004887580872 44.99996948242188 1.500004887580872 C 50.87309265136719 1.500004887580872 56.56973266601562 2.649929761886597 61.93165588378906 4.917829990386963 C 67.11143493652344 7.108692169189453 71.76365661621094 10.24540519714355 75.75909423828125 14.24085521697998 C 79.75454711914062 18.23630523681641 82.89125823974609 22.88851737976074 85.08212280273438 28.06829261779785 C 87.35002136230469 33.43021774291992 88.49994659423828 39.12686920166016 88.49994659423828 44.99999237060547 C 88.49994659423828 50.87311553955078 87.35002136230469 56.56976699829102 85.08212280273438 61.93169403076172 C 82.89125823974609 67.11146545410156 79.75454711914062 71.76369476318359 75.75909423828125 75.75914001464844 C 71.76364135742188 79.75457763671875 67.11143493652344 82.89130401611328 61.93165588378906 85.08216857910156 C 56.56973266601562 87.35006713867188 50.87309265136719 88.49999237060547 44.99996948242188 88.49999237060547 Z" stroke="none"/>
                    <path d="M 44.99996948242188 2.999992370605469 C 39.32868194580078 2.999992370605469 33.82863998413086 4.11004638671875 28.65261077880859 6.299331665039062 C 23.65164184570312 8.414566040039062 19.15968322753906 11.44333648681641 15.30149841308594 15.30150604248047 C 11.44332885742188 19.15967559814453 8.414566040039062 23.65164947509766 6.299324035644531 28.65262222290039 C 4.110054016113281 33.82864761352539 3 39.32870483398438 3 44.99999237060547 C 3 50.67127990722656 4.110054016113281 56.17132186889648 6.299324035644531 61.34736633300781 C 8.414566040039062 66.34833526611328 11.44332885742188 70.84029388427734 15.30149841308594 74.69846343994141 C 19.15968322753906 78.55663299560547 23.65164184570312 81.58540344238281 28.65261077880859 83.70063781738281 C 33.82863998413086 85.88992309570312 39.32868194580078 86.99997711181641 44.99996948242188 86.99997711181641 C 50.67125701904297 86.99997711181641 56.17129898071289 85.88992309570312 61.34732818603516 83.70063781738281 C 66.34829711914062 81.58540344238281 70.84025573730469 78.55663299560547 74.69844055175781 74.69846343994141 C 78.55661010742188 70.84029388427734 81.58537292480469 66.34833526611328 83.70061492919922 61.34736633300781 C 85.88988494873047 56.17132186889648 86.99993896484375 50.67127990722656 86.99993896484375 44.99999237060547 C 86.99993896484375 39.32870483398438 85.88988494873047 33.82864761352539 83.70061492919922 28.65262222290039 C 81.58537292480469 23.65164947509766 78.55661010742188 19.15967559814453 74.69844055175781 15.30150604248047 C 70.84025573730469 11.44333648681641 66.34829711914062 8.414566040039062 61.34732818603516 6.299331665039062 C 56.17129898071289 4.11004638671875 50.67125701904297 2.999992370605469 44.99996948242188 2.999992370605469 M 44.99996948242188 -7.62939453125e-06 C 69.85276794433594 -7.62939453125e-06 89.99993896484375 20.14717864990234 89.99993896484375 44.99999237060547 C 89.99993896484375 69.85279083251953 69.85276794433594 89.99997711181641 44.99996948242188 89.99997711181641 C 20.14717102050781 89.99997711181641 0 69.85279083251953 0 44.99999237060547 C 0 20.14717864990234 20.14717102050781 -7.62939453125e-06 44.99996948242188 -7.62939453125e-06 Z" stroke="none" fill="#1d7083"/>
                  </g>
                </g>
              </g>
            </g>
          </g>
        </g>
      </g>
      <g id="cash-flow_3880868" transform="translate(17.854 17.854)">
        <g id="Group_1177280" data-name="Group 1177280" transform="translate(0.876 0.876)">
          <g id="Group_1177270" data-name="Group 1177270">
            <path id="Path_1036598" data-name="Path 1036598" d="M22.016,9.757v3.5l-2.11.7a8.631,8.631,0,0,1-.718,1.76l.99,1.979L17.7,20.177l-1.979-.99a8.631,8.631,0,0,1-1.76.718l-.7,2.11h-3.5l-.7-2.11a8.631,8.631,0,0,1-1.76-.718l-1.979.99L2.839,17.7l.99-1.979a8.631,8.631,0,0,1-.718-1.76L1,13.259v-3.5l2.11-.7A8.631,8.631,0,0,1,3.828,7.3l-.99-1.979L5.317,2.839l1.979.99a8.631,8.631,0,0,1,1.76-.718L9.757,1h3.5l.7,2.11a8.631,8.631,0,0,1,1.76.718l1.979-.99,2.478,2.478L19.188,7.3a8.631,8.631,0,0,1,.718,1.76Zm-5.254,1.751a5.254,5.254,0,1,0-5.254,5.254A5.258,5.258,0,0,0,16.762,11.508Z" transform="translate(-1 -1)" fill="#a0d468"/>
          </g>
          <g id="Group_1177271" data-name="Group 1177271" transform="translate(5.254 5.254)">
            <path id="Path_1036599" data-name="Path 1036599" d="M12.254,7A5.254,5.254,0,1,1,7,12.254,5.258,5.258,0,0,1,12.254,7Zm1.751,5.254a1.751,1.751,0,1,0-1.751,1.751A1.756,1.756,0,0,0,14.005,12.254Z" transform="translate(-7 -7)" fill="#b4dd7f"/>
          </g>
          <g id="Group_1177272" data-name="Group 1177272" transform="translate(3.503 33.275)">
            <path id="Path_1036600" data-name="Path 1036600" d="M5,39H15.508V58.265H5Z" transform="translate(-5 -39)" fill="#ccd1d9"/>
          </g>
          <g id="Group_1177273" data-name="Group 1177273" transform="translate(19.265 22.767)">
            <path id="Path_1036601" data-name="Path 1036601" d="M33.508,35.065V56.773H23V27h8.879a12.784,12.784,0,0,0-.123,1.751A12.212,12.212,0,0,0,33.508,35.065Z" transform="translate(-23 -27)" fill="#ccd1d9"/>
          </g>
          <g id="Group_1177274" data-name="Group 1177274" transform="translate(33.275 42.032)">
            <path id="Path_1036602" data-name="Path 1036602" d="M46.005,54.254H40.751A1.756,1.756,0,0,1,39,52.5V50.751A1.756,1.756,0,0,1,40.751,49H51.259a1.756,1.756,0,0,1,1.751,1.751V52.5a1.756,1.756,0,0,1-1.751,1.751H46.005Z" transform="translate(-39 -49)" fill="#ffc729"/>
          </g>
          <g id="Group_1177275" data-name="Group 1177275" transform="translate(28.021 12.259)">
            <path id="Path_1036603" data-name="Path 1036603" d="M50.513,16.182A12.259,12.259,0,1,1,33,27.259a12.784,12.784,0,0,1,.123-1.751,12.264,12.264,0,0,1,17.391-9.326Z" transform="translate(-33 -15)" fill="#ffc729"/>
          </g>
          <g id="Group_1177276" data-name="Group 1177276" transform="translate(33.275 47.286)">
            <path id="Path_1036604" data-name="Path 1036604" d="M42.5,55h8.757a1.756,1.756,0,0,1,1.751,1.751V58.5a1.756,1.756,0,0,1-1.751,1.751H40.751A1.756,1.756,0,0,1,39,58.5V56.751A1.756,1.756,0,0,1,40.751,55Z" transform="translate(-39 -55)" fill="#fcd770"/>
          </g>
          <g id="Group_1177277" data-name="Group 1177277" transform="translate(33.275 36.778)">
            <path id="Path_1036605" data-name="Path 1036605" d="M42.5,48.254H40.751A1.756,1.756,0,0,1,39,46.5V44.751A1.756,1.756,0,0,1,40.751,43H51.259a1.756,1.756,0,0,1,1.751,1.751V46.5a1.756,1.756,0,0,1-1.751,1.751H42.5Z" transform="translate(-39 -43)" fill="#fcd770"/>
          </g>
          <g id="Group_1177278" data-name="Group 1177278" transform="translate(31.524 15.762)">
            <circle id="Ellipse_11873" data-name="Ellipse 11873" cx="9" cy="9" r="9" transform="translate(-0.254 -0.492)" fill="#fcd770"/>
          </g>
          <g id="Group_1177279" data-name="Group 1177279" transform="translate(35.027 5.254)">
            <path id="Path_1036606" data-name="Path 1036606" d="M51.508,7v8.187a12.267,12.267,0,0,0-10.508,0V7Z" transform="translate(-41 -7)" fill="#ccd1d9"/>
          </g>
        </g>
        <g id="Group_1177281" data-name="Group 1177281" transform="translate(0 0)">
          <path id="Path_1036607" data-name="Path 1036607" d="M47.378,30.757H45.627a.877.877,0,0,1-.876-.876H43a2.63,2.63,0,0,0,2.627,2.627v1.751h1.751V32.508a2.627,2.627,0,1,0,0-5.254H45.627a.876.876,0,0,1,0-1.751h1.751a.877.877,0,0,1,.876.876h1.751a2.63,2.63,0,0,0-2.627-2.627V22H45.627v1.751a2.627,2.627,0,1,0,0,5.254h1.751a.876.876,0,0,1,0,1.751Z" transform="translate(-5.346 -2.735)"/>
          <path id="Path_1036608" data-name="Path 1036608" d="M49.037,52.41V50.659a2.61,2.61,0,0,0-.683-1.751,2.606,2.606,0,0,0,.683-1.751V45.4a2.61,2.61,0,0,0-.683-1.751,2.606,2.606,0,0,0,.683-1.751V40.151a2.626,2.626,0,0,0-1.672-2.44,13.124,13.124,0,0,0-.08-23.178V6H35.027v8.532a13.176,13.176,0,0,0-6.741,8.981H19.265V53.286h-3.5V34.021H3.5V53.286H0v1.751H54.291V53.286H48.876A2.6,2.6,0,0,0,49.037,52.41ZM35.9,48.032a.877.877,0,0,1-.876-.876V45.4a.877.877,0,0,1,.876-.876h.876v1.751h1.751V44.529h1.751v1.751h1.751V44.529h1.751v1.751h1.751V44.529h.876a.877.877,0,0,1,.876.876v1.751a.877.877,0,0,1-.876.876Zm9.632-7.005V39.275h.876a.877.877,0,0,1,.876.876V41.9a.877.877,0,0,1-.876.876H35.9a.877.877,0,0,1-.876-.876V40.151a.877.877,0,0,1,.876-.876h.876v1.751h1.751V39.275h1.751v1.751h1.751V39.275h1.751v1.751ZM41.156,18.259a7.881,7.881,0,1,1-7.881,7.881A7.89,7.89,0,0,1,41.156,18.259ZM35,33.538a9.583,9.583,0,0,0,5.284,2.19v1.751a11.319,11.319,0,0,1-6.521-2.7Zm7.035,2.19a9.592,9.592,0,0,0,5.284-2.19l1.238,1.238a11.321,11.321,0,0,1-6.521,2.7V35.728ZM48.554,32.3a9.583,9.583,0,0,0,2.19-5.284H52.5a11.319,11.319,0,0,1-2.7,6.521Zm2.19-7.035a9.592,9.592,0,0,0-2.19-5.284l1.238-1.238a11.321,11.321,0,0,1,2.7,6.521H50.744Zm-3.428-6.522a9.583,9.583,0,0,0-5.284-2.19V14.8a11.319,11.319,0,0,1,6.521,2.7Zm-7.035-2.19A9.592,9.592,0,0,0,35,18.743L33.759,17.5a11.321,11.321,0,0,1,6.521-2.7v1.752Zm-6.522,3.428a9.583,9.583,0,0,0-2.19,5.284H29.817a11.319,11.319,0,0,1,2.7-6.521Zm-2.19,7.035a9.592,9.592,0,0,0,2.19,5.284L32.52,33.538a11.321,11.321,0,0,1-2.7-6.521h1.752Zm3.378,10.695a2.626,2.626,0,0,0-1.672,2.44V41.9a2.61,2.61,0,0,0,.683,1.751,2.606,2.606,0,0,0-.683,1.751v1.751a2.61,2.61,0,0,0,.683,1.751,2.606,2.606,0,0,0-.683,1.751V52.41a2.6,2.6,0,0,0,.161.876H31.524V35.041a13.2,13.2,0,0,0,3.423,2.67ZM45.535,7.751V9.5H36.778V7.751Zm-8.757,3.5h8.757v2.518a12.893,12.893,0,0,0-8.757,0ZM28.066,25.265c-.019.291-.045.58-.045.876s.025.585.045.876h-7.05V25.265Zm-7.05,3.5h7.27a13.021,13.021,0,0,0,1.487,3.9v20.62H21.016Zm-7.005,7.005v1.751H5.254V35.773Zm-8.757,3.5h8.757V53.286H5.254ZM35.9,53.286a.877.877,0,0,1-.876-.876V50.659a.877.877,0,0,1,.876-.876h.876v1.751h1.751V49.783h1.751v1.751h1.751V49.783h1.751v1.751h1.751V49.783h.876a.877.877,0,0,1,.876.876V52.41a.877.877,0,0,1-.876.876Z" transform="translate(0 -0.746)"/>
          <path id="Path_1036609" data-name="Path 1036609" d="M2.723,15.6,1.649,17.748l3.37,3.37,2.148-1.074a9.821,9.821,0,0,0,1.074.441L9,22.767h4.765l.761-2.282a9.582,9.582,0,0,0,1.074-.441l2.148,1.074,3.37-3.37L20.043,15.6a9.807,9.807,0,0,0,.441-1.073l2.283-.761V9L20.485,8.24a9.637,9.637,0,0,0-.441-1.073l1.074-2.149-3.37-3.37L15.6,2.723a9.75,9.75,0,0,0-1.074-.441L13.766,0H9L8.241,2.282a9.68,9.68,0,0,0-1.074.441L5.018,1.65,1.65,5.018l1.074,2.15A9.722,9.722,0,0,0,2.282,8.24L0,9v4.765l2.282.761A9.666,9.666,0,0,0,2.723,15.6Zm-.972-5.335,1.943-.647.128-.44A7.9,7.9,0,0,1,4.473,7.6l.221-.4L3.78,5.364,5.364,3.78l1.828.914.4-.222a7.766,7.766,0,0,1,1.58-.651l.44-.128.649-1.943H12.5l.648,1.943.44.128a7.866,7.866,0,0,1,1.58.651l.4.222L17.4,3.78l1.584,1.584-.913,1.829.221.4a7.794,7.794,0,0,1,.651,1.581l.128.44,1.943.647V12.5l-1.943.647-.128.44a7.9,7.9,0,0,1-.651,1.581l-.221.4.913,1.829L17.4,18.988l-1.828-.914-.4.222a7.807,7.807,0,0,1-1.58.651l-.44.128L12.5,21.016H10.263l-.647-1.943-.44-.128a7.866,7.866,0,0,1-1.58-.651l-.4-.222-1.828.914L3.78,17.4l.913-1.829-.221-.4a7.794,7.794,0,0,1-.651-1.581l-.128-.44L1.751,12.5Z" transform="translate(0 0)"/>
          <path id="Path_1036610" data-name="Path 1036610" d="M12.13,18.259A6.13,6.13,0,1,0,6,12.13,6.137,6.137,0,0,0,12.13,18.259Zm0-10.508A4.378,4.378,0,1,1,7.751,12.13,4.383,4.383,0,0,1,12.13,7.751Z" transform="translate(-0.746 -0.746)"/>
          <path id="Path_1036611" data-name="Path 1036611" d="M12.627,15.254A2.627,2.627,0,1,0,10,12.627,2.63,2.63,0,0,0,12.627,15.254Zm0-3.5a.876.876,0,1,1-.876.876A.877.877,0,0,1,12.627,11.751Z" transform="translate(-1.243 -1.243)"/>
        </g>
      </g>
    </g>
  </g>
</svg>
