<svg xmlns="http://www.w3.org/2000/svg" xmlns:xlink="http://www.w3.org/1999/xlink" width="108" height="108" viewBox="0 0 108 108">
  <defs>
    <filter id="Path_904820" x="0" y="0" width="108" height="108" filterUnits="userSpaceOnUse">
      <feOffset dy="3" input="SourceAlpha"/>
      <feGaussianBlur stdDeviation="3" result="blur"/>
      <feFlood flood-opacity="0.161"/>
      <feComposite operator="in" in2="blur"/>
      <feComposite in="SourceGraphic"/>
    </filter>
  </defs>
  <g id="Group_1177312" data-name="Group 1177312" transform="translate(-200 -1004)">
    <g id="Group_1176920" data-name="Group 1176920" transform="translate(209 1010)">
      <g id="Group_1173585" data-name="Group 1173585" transform="translate(0 0)">
        <g id="Group_1173428" data-name="Group 1173428">
          <g id="Group_1171958" data-name="Group 1171958">
            <g id="Group_1167341" data-name="Group 1167341">
              <g id="Group_1166792" data-name="Group 1166792">
                <g transform="matrix(1, 0, 0, 1, -9, -6)" filter="url(#Path_904820)">
                  <g id="Path_904820-2" data-name="Path 904820" transform="translate(9 6)" fill="#f2f7e5">
                    <path d="M 44.99999618530273 88.49999237060547 C 39.12687301635742 88.49999237060547 33.43022155761719 87.35006713867188 28.06829643249512 85.08216857910156 C 22.88852119445801 82.89130401611328 18.23629570007324 79.75457763671875 14.24084663391113 75.75914001464844 C 10.24540901184082 71.76369476318359 7.108683586120605 67.11146545410156 4.917821407318115 61.93169403076172 C 2.649921178817749 56.56976699829102 1.499996185302734 50.87311553955078 1.499996185302734 44.99999237060547 C 1.499996185302734 39.12686920166016 2.649921178817749 33.43021774291992 4.917821407318115 28.06829261779785 C 7.108683586120605 22.88851737976074 10.24540901184082 18.23630523681641 14.24084663391113 14.24085521697998 C 18.23629570007324 10.24540519714355 22.88852119445801 7.108692169189453 28.06829643249512 4.917829990386963 C 33.43022155761719 2.649929761886597 39.12687301635742 1.500004887580872 44.99999618530273 1.500004887580872 C 50.87311935424805 1.500004887580872 56.56977081298828 2.649929761886597 61.93169784545898 4.917829990386963 C 67.11147308349609 7.108692169189453 71.76369476318359 10.24540519714355 75.75914764404297 14.24085521697998 C 79.75458526611328 18.23630523681641 82.89131164550781 22.88851737976074 85.08216857910156 28.06829261779785 C 87.35007476806641 33.43021774291992 88.5 39.12686920166016 88.5 44.99999237060547 C 88.5 50.87311553955078 87.35007476806641 56.56976699829102 85.08216857910156 61.93169403076172 C 82.89131164550781 67.11146545410156 79.75458526611328 71.76369476318359 75.75914764404297 75.75914001464844 C 71.76369476318359 79.75457763671875 67.11147308349609 82.89130401611328 61.93169784545898 85.08216857910156 C 56.56977081298828 87.35006713867188 50.87311935424805 88.49999237060547 44.99999618530273 88.49999237060547 Z" stroke="none"/>
                    <path d="M 44.99999618530273 2.999992370605469 C 39.32870864868164 2.999992370605469 33.82865142822266 4.11004638671875 28.65262603759766 6.299331665039062 C 23.65165710449219 8.414566040039062 19.15968322753906 11.44333648681641 15.301513671875 15.30150604248047 C 11.44333648681641 19.15967559814453 8.414566040039062 23.65164947509766 6.299339294433594 28.65262222290039 C 4.110054016113281 33.82864761352539 2.999992370605469 39.32870483398438 2.999992370605469 44.99999237060547 C 2.999992370605469 50.67127990722656 4.110054016113281 56.17132186889648 6.299339294433594 61.34736633300781 C 8.414566040039062 66.34833526611328 11.44333648681641 70.84029388427734 15.301513671875 74.69846343994141 C 19.15968322753906 78.55663299560547 23.65165710449219 81.58540344238281 28.65262603759766 83.70063781738281 C 33.82865142822266 85.88992309570312 39.32870864868164 86.99997711181641 44.99999618530273 86.99997711181641 C 50.67128372192383 86.99997711181641 56.17134094238281 85.88992309570312 61.34736633300781 83.70063781738281 C 66.34834289550781 81.58540344238281 70.84030914306641 78.55663299560547 74.69847869873047 74.69846343994141 C 78.55665588378906 70.84029388427734 81.58542633056641 66.34833526611328 83.70065307617188 61.34736633300781 C 85.88993835449219 56.17132186889648 87 50.67127990722656 87 44.99999237060547 C 87 39.32870483398438 85.88993835449219 33.82864761352539 83.70065307617188 28.65262222290039 C 81.58542633056641 23.65164947509766 78.55665588378906 19.15967559814453 74.69847869873047 15.30150604248047 C 70.84030914306641 11.44333648681641 66.34834289550781 8.414566040039062 61.34736633300781 6.299331665039062 C 56.17134094238281 4.11004638671875 50.67128372192383 2.999992370605469 44.99999618530273 2.999992370605469 M 44.99999618530273 -7.62939453125e-06 C 69.85281372070312 -7.62939453125e-06 90 20.14717864990234 90 44.99999237060547 C 90 69.85279083251953 69.85281372070312 89.99997711181641 44.99999618530273 89.99997711181641 C 20.14717864990234 89.99997711181641 -7.62939453125e-06 69.85279083251953 -7.62939453125e-06 44.99999237060547 C -7.62939453125e-06 20.14717864990234 20.14717864990234 -7.62939453125e-06 44.99999618530273 -7.62939453125e-06 Z" stroke="none" fill="#86b60c"/>
                  </g>
                </g>
              </g>
            </g>
          </g>
        </g>
      </g>
      <g id="profits_2936758" transform="translate(19.868 14.794)">
        <g id="Group_1177156" data-name="Group 1177156" transform="translate(0.792 3.378)">
          <path id="Path_1036368" data-name="Path 1036368" d="M34.848,295.073H9.814A2.314,2.314,0,0,1,7.5,292.759v-2.913a2.314,2.314,0,0,1,2.314-2.314H34.848a2.314,2.314,0,0,1,2.314,2.314v2.913A2.314,2.314,0,0,1,34.848,295.073Z" transform="translate(-7.5 -258.252)" fill="#f1e64c"/>
          <path id="Path_1036369" data-name="Path 1036369" d="M14.63,295.076H9.815A2.315,2.315,0,0,1,7.5,292.762v-2.913a2.315,2.315,0,0,1,2.315-2.314H14.63a2.314,2.314,0,0,0-2.314,2.314v2.913A2.314,2.314,0,0,0,14.63,295.076Z" transform="translate(-7.5 -258.254)" fill="#ffc250"/>
          <path id="Path_1036370" data-name="Path 1036370" d="M37.163,319.63v1.841a2.314,2.314,0,0,1-2.314,2.313H9.815A2.314,2.314,0,0,1,7.5,321.471V319.63a2.315,2.315,0,0,0,2.314,2.314H34.849A2.315,2.315,0,0,0,37.163,319.63Z" transform="translate(-7.501 -286.962)" fill="#ffc250"/>
          <path id="Path_1036371" data-name="Path 1036371" d="M75.486,223.617H50.452a2.314,2.314,0,0,1-2.314-2.314V218.39a2.314,2.314,0,0,1,2.314-2.314H75.486A2.314,2.314,0,0,1,77.8,218.39V221.3a2.314,2.314,0,0,1-2.314,2.314Z" transform="translate(-43.849 -194.336)" fill="#f1e64c"/>
          <path id="Path_1036372" data-name="Path 1036372" d="M55.269,223.62H50.454a2.315,2.315,0,0,1-2.315-2.314v-2.913a2.315,2.315,0,0,1,2.315-2.314h4.815a2.314,2.314,0,0,0-2.314,2.314v2.913A2.314,2.314,0,0,0,55.269,223.62Z" transform="translate(-43.85 -194.339)" fill="#ffc250"/>
          <path id="Path_1036373" data-name="Path 1036373" d="M77.8,248.174v1.84a2.314,2.314,0,0,1-2.314,2.313H50.454a2.314,2.314,0,0,1-2.314-2.313v-1.84a2.315,2.315,0,0,0,2.314,2.314H75.488A2.315,2.315,0,0,0,77.8,248.174Z" transform="translate(-43.851 -223.047)" fill="#ffc250"/>
          <path id="Path_1036374" data-name="Path 1036374" d="M46.91,152.159H21.876a2.314,2.314,0,0,1-2.314-2.314v-2.913a2.314,2.314,0,0,1,2.314-2.314H46.91a2.314,2.314,0,0,1,2.314,2.314v2.913A2.314,2.314,0,0,1,46.91,152.159Z" transform="translate(-18.289 -130.42)" fill="#f1e64c"/>
          <path id="Path_1036375" data-name="Path 1036375" d="M26.693,152.163H21.878a2.315,2.315,0,0,1-2.315-2.314v-2.913a2.315,2.315,0,0,1,2.315-2.314h4.815a2.314,2.314,0,0,0-2.314,2.314v2.913A2.314,2.314,0,0,0,26.693,152.163Z" transform="translate(-18.29 -130.423)" fill="#ffc250"/>
          <path id="Path_1036376" data-name="Path 1036376" d="M49.225,176.716v1.84a2.314,2.314,0,0,1-2.314,2.313H21.877a2.314,2.314,0,0,1-2.314-2.313v-1.84a2.315,2.315,0,0,0,2.314,2.314H46.911A2.315,2.315,0,0,0,49.225,176.716Z" transform="translate(-18.29 -159.13)" fill="#ffc250"/>
          <path id="Path_1036377" data-name="Path 1036377" d="M54.848,366.531H29.814a2.314,2.314,0,0,1-2.314-2.314V361.3a2.314,2.314,0,0,1,2.314-2.314H54.848a2.314,2.314,0,0,1,2.314,2.314v2.913A2.314,2.314,0,0,1,54.848,366.531Z" transform="translate(-25.389 -322.168)" fill="#f1e64c"/>
          <path id="Path_1036378" data-name="Path 1036378" d="M57.163,391.088v1.84a2.314,2.314,0,0,1-2.314,2.313H29.815a2.314,2.314,0,0,1-2.314-2.313v-1.84a2.315,2.315,0,0,0,2.314,2.314H54.849A2.315,2.315,0,0,0,57.163,391.088Z" transform="translate(-25.39 -350.879)" fill="#ffc250"/>
          <path id="Path_1036379" data-name="Path 1036379" d="M34.63,366.534H29.815A2.315,2.315,0,0,1,27.5,364.22v-2.913a2.315,2.315,0,0,1,2.315-2.314H34.63a2.314,2.314,0,0,0-2.314,2.314v2.913A2.314,2.314,0,0,0,34.63,366.534Z" transform="translate(-25.389 -322.171)" fill="#ffc250"/>
          <path id="Path_1036380" data-name="Path 1036380" d="M39.848,437.989H14.814a2.314,2.314,0,0,1-2.314-2.314v-2.913a2.314,2.314,0,0,1,2.314-2.314H39.848a2.314,2.314,0,0,1,2.314,2.314v2.913A2.314,2.314,0,0,1,39.848,437.989Z" transform="translate(-11.972 -386.085)" fill="#f1e64c"/>
          <path id="Path_1036381" data-name="Path 1036381" d="M42.163,462.546v1.84a2.314,2.314,0,0,1-2.314,2.313H14.815a2.314,2.314,0,0,1-2.314-2.313v-1.84a2.315,2.315,0,0,0,2.314,2.314H39.849A2.315,2.315,0,0,0,42.163,462.546Z" transform="translate(-11.973 -414.796)" fill="#ffc250"/>
          <path id="Path_1036382" data-name="Path 1036382" d="M19.63,437.992H14.815a2.315,2.315,0,0,1-2.315-2.314v-2.913a2.315,2.315,0,0,1,2.315-2.314H19.63a2.314,2.314,0,0,0-2.314,2.314v2.913A2.314,2.314,0,0,0,19.63,437.992Z" transform="translate(-11.972 -386.088)" fill="#ffc250"/>
          <g id="Group_1177153" data-name="Group 1177153" transform="translate(22.788 22.242)">
            <circle id="Ellipse_11861" data-name="Ellipse 11861" cx="14.831" cy="14.831" r="14.831" fill="#f1e64c"/>
            <g id="Group_1177152" data-name="Group 1177152" transform="translate(0 0)">
              <path id="Path_1036383" data-name="Path 1036383" d="M239.515,250.45q-.619.054-1.254.053a14.831,14.831,0,1,1,0-29.661q.634,0,1.254.053a14.831,14.831,0,0,0,0,29.556Z" transform="translate(-223.43 -220.841)" fill="#ffc250"/>
              <circle id="Ellipse_11862" data-name="Ellipse 11862" cx="10.015" cy="10.015" r="10.015" transform="translate(4.816 4.816)" fill="#ffc250"/>
            </g>
          </g>
          <g id="Group_1177154" data-name="Group 1177154" transform="translate(5.449 1.276)">
            <path id="Path_1036384" data-name="Path 1036384" d="M73.718,52.543V40.334h2.087a3.291,3.291,0,0,0,2.85-4.937L71.966,23.812a3.291,3.291,0,0,0-5.7,0L59.576,35.4a3.292,3.292,0,0,0,2.85,4.938h2.088v12.21a2.071,2.071,0,0,0,2.071,2.071h5.062A2.071,2.071,0,0,0,73.718,52.543Z" transform="translate(-59.13 -22.166)" fill="#95d6a4"/>
            <path id="Path_1036385" data-name="Path 1036385" d="M68.491,54.622H66.585a2.071,2.071,0,0,1-2.071-2.071V40.34H62.426a3.291,3.291,0,0,1-2.85-4.937l6.689-11.585a3.26,3.26,0,0,1,2.851-1.645,2.2,2.2,0,0,0-1.909,1.645L62.725,35.4c-.85,2.195.212,4.937,1.909,4.937h.858A1.611,1.611,0,0,1,67.1,41.951v10.6C67.1,53.694,67.725,54.622,68.491,54.622Z" transform="translate(-59.13 -22.173)" fill="#78c2a4"/>
          </g>
          <g id="Group_1177155" data-name="Group 1177155" transform="translate(26.681)">
            <path id="Path_1036386" data-name="Path 1036386" d="M372.355,139.247l-.061-.226a1.569,1.569,0,0,1,1.007-1.89l2.4-.823a1.569,1.569,0,0,1,2.024,1.078l.15.561a1.569,1.569,0,0,1-1.214,1.946l-2.49.487A1.569,1.569,0,0,1,372.355,139.247Z" transform="translate(-360.43 -122.91)" fill="#f7f493"/>
            <path id="Path_1036387" data-name="Path 1036387" d="M331.694,60.49l-.165-.165a1.569,1.569,0,0,1-.073-2.14l1.667-1.913a1.569,1.569,0,0,1,2.292-.079l.411.411a1.569,1.569,0,0,1-.078,2.292l-1.913,1.667A1.569,1.569,0,0,1,331.694,60.49Z" transform="translate(-323.603 -50.915)" fill="#f7f493"/>
            <path id="Path_1036388" data-name="Path 1036388" d="M261.714,15.712l-.226-.061a1.569,1.569,0,0,1-1.134-1.817l.487-2.49a1.569,1.569,0,0,1,1.946-1.214l.561.15a1.569,1.569,0,0,1,1.078,2.024l-.823,2.4A1.569,1.569,0,0,1,261.714,15.712Z" transform="translate(-260.325 -10.077)" fill="#f7f493"/>
          </g>
        </g>
        <g id="Group_1177157" data-name="Group 1177157" transform="translate(0 2.587)">
          <path id="Path_1036389" data-name="Path 1036389" d="M49.784,40.544a.791.791,0,1,0-1.152,1.085,14.038,14.038,0,1,1-2.271-1.947.791.791,0,0,0,.9-1.3,15.631,15.631,0,0,0-12.588-2.294,3.093,3.093,0,0,0-2.243-.957h-.311a3.086,3.086,0,0,0,.4-1.523V30.693a3.109,3.109,0,0,0-3.106-3.106H26.045L19.762,16.707a4.043,4.043,0,0,0-3.537-2.042h0a4.04,4.04,0,0,0-3.534,2.041L6.407,27.587H4.379a3.109,3.109,0,0,0-3.106,3.106v2.913a3.109,3.109,0,0,0,3.106,3.106h.311a3.086,3.086,0,0,0-.4,1.523v2.913a3.086,3.086,0,0,0,.4,1.523H3.106A3.109,3.109,0,0,0,0,45.775v2.913a3.11,3.11,0,0,0,2.541,3.053,3.086,3.086,0,0,0-.431,1.575v2.913a3.087,3.087,0,0,0,.505,1.695A3.111,3.111,0,0,0,.528,60.858V63.77a3.109,3.109,0,0,0,3.106,3.106H28.667a3.117,3.117,0,0,0,2.746-1.657A15.621,15.621,0,0,0,49.784,40.544ZM3.694,56.229V53.316a1.525,1.525,0,0,1,1.523-1.523H22.8A15.517,15.517,0,0,0,24.2,57.752H5.216a1.525,1.525,0,0,1-1.523-1.523Zm28.963-19.5a15.711,15.711,0,0,0-7.293,5.941H21.62V36.712H32.428a1.524,1.524,0,0,1,.229.018Zm-1.722-6.036v2.913a1.525,1.525,0,0,1-1.523,1.523H21.62v-.713h1.295A4.085,4.085,0,0,0,26.83,29.17h2.581a1.525,1.525,0,0,1,1.523,1.523ZM2.856,33.606V30.693A1.525,1.525,0,0,1,4.379,29.17H5.621a4.031,4.031,0,0,0-.073,2.048.791.791,0,1,0,1.544-.348,2.445,2.445,0,0,1,.279-1.788L14.062,17.5a2.473,2.473,0,0,1,2.163-1.249h0a2.476,2.476,0,0,1,2.166,1.25L25.08,29.083a2.5,2.5,0,0,1-2.165,3.75H20.829a.792.792,0,0,0-.791.791V45.834a1.282,1.282,0,0,1-1.28,1.28H13.7a1.282,1.282,0,0,1-1.28-1.28V33.625a.792.792,0,0,0-.791-.791H9.537a2.515,2.515,0,0,1-.862-.149.791.791,0,0,0-.541,1.488,4.091,4.091,0,0,0,1.4.244h1.3v.713H4.379a1.525,1.525,0,0,1-1.523-1.523Zm3.016,7.541V38.235a1.525,1.525,0,0,1,1.523-1.523h3.438V42.67H7.395A1.525,1.525,0,0,1,5.872,41.147Zm-4.289,7.54V45.775a1.524,1.524,0,0,1,1.523-1.522h7.727v1.581A2.866,2.866,0,0,0,13.7,48.7h5.061a2.866,2.866,0,0,0,2.863-2.863V44.253h2.826a15.507,15.507,0,0,0-1.624,5.957H3.106a1.525,1.525,0,0,1-1.523-1.523ZM28.667,65.293H3.634A1.525,1.525,0,0,1,2.111,63.77V60.858a1.525,1.525,0,0,1,1.523-1.523H25.044a15.745,15.745,0,0,0,4.991,5.1A1.527,1.527,0,0,1,28.667,65.293Z" transform="translate(0 -13.39)"/>
          <path id="Path_1036390" data-name="Path 1036390" d="M329.087,295.684c-.28-.082-.567-.167-.853-.257V291.92a3.346,3.346,0,0,1,1.4.511.791.791,0,0,0,.952-1.264,5.006,5.006,0,0,0-2.348-.84v-.684a.791.791,0,0,0-1.583,0v.735c-.153.026-.309.058-.468.1a3.308,3.308,0,0,0-2.538,2.594,2.55,2.55,0,0,0,1.118,2.607,9.372,9.372,0,0,0,1.889.888v4.442a4.564,4.564,0,0,1-2.259-.655.792.792,0,0,0-.751,1.394,6.056,6.056,0,0,0,3.01.845v.777a.791.791,0,0,0,1.583,0v-.829a4.031,4.031,0,0,0,3.56-3.252C332.023,297.644,330.961,296.23,329.087,295.684Zm-3.465-1.337a.98.98,0,0,1-.415-1.017,1.7,1.7,0,0,1,1.358-1.317l.087-.02v2.874A6.625,6.625,0,0,1,325.621,294.346Zm4.6,4.722a2.4,2.4,0,0,1-1.992,1.86v-3.846l.41.121C329.769,297.531,330.345,298.211,330.226,299.068Z" transform="translate(-289.114 -258.642)"/>
          <path id="Path_1036391" data-name="Path 1036391" d="M272.375,258.977a10.806,10.806,0,1,0,10.806,10.806A10.818,10.818,0,0,0,272.375,258.977Zm0,20.029a9.223,9.223,0,1,1,9.223-9.223A9.234,9.234,0,0,1,272.375,279.006Z" transform="translate(-233.965 -231.92)"/>
          <path id="Path_1036392" data-name="Path 1036392" d="M364.826,132.527l.06.226h0a2.37,2.37,0,0,0,2.282,1.749,2.339,2.339,0,0,0,.451-.044l2.49-.487a2.36,2.36,0,0,0,1.827-2.927l-.15-.562a2.361,2.361,0,0,0-3.046-1.622l-2.4.823a2.368,2.368,0,0,0-1.515,2.844Zm2.028-1.346,2.4-.823a.778.778,0,0,1,1,.534l.15.562a.778.778,0,0,1-.6.964l-2.49.487a.779.779,0,0,1-.9-.562l-.061-.226A.78.78,0,0,1,366.854,131.181Z" transform="translate(-326.254 -115.421)"/>
          <path id="Path_1036393" data-name="Path 1036393" d="M324.447,54.34a2.367,2.367,0,0,0,3.22.11l1.913-1.667a2.36,2.36,0,0,0,.118-3.449l-.411-.411a2.36,2.36,0,0,0-3.449.118l-1.667,1.913a2.368,2.368,0,0,0,.11,3.22Zm.918-2.345,1.667-1.913a.769.769,0,0,1,.56-.266h.028a.769.769,0,0,1,.549.228l.411.411a.778.778,0,0,1-.039,1.136l-1.913,1.667a.78.78,0,0,1-1.061-.036l-.165-.165A.78.78,0,0,1,325.365,51.995Z" transform="translate(-289.444 -43.415)"/>
          <path id="Path_1036394" data-name="Path 1036394" d="M271.547,70.725h0Z" transform="translate(-242.89 -63.534)"/>
          <path id="Path_1036395" data-name="Path 1036395" d="M254.578,9.718l.226.06a2.344,2.344,0,0,0,.607.08,2.37,2.37,0,0,0,2.237-1.595l.823-2.4a2.36,2.36,0,0,0-1.622-3.046l-.561-.15a2.361,2.361,0,0,0-2.928,1.827l-.487,2.49A2.368,2.368,0,0,0,254.578,9.718Zm-.152-2.43.487-2.49a.779.779,0,0,1,.761-.629.787.787,0,0,1,.2.027l.561.15a.778.778,0,0,1,.534,1l-.823,2.4a.78.78,0,0,1-.937.5h0l-.226-.06A.78.78,0,0,1,254.426,7.288Z" transform="translate(-226.147 -2.587)"/>
        </g>
      </g>
    </g>
  </g>
</svg>
